<svg xmlns="http://www.w3.org/2000/svg" xmlns:xlink="http://www.w3.org/1999/xlink" width="200" zoomAndPan="magnify" viewBox="0 0 150 149.999998" height="200" preserveAspectRatio="xMidYMid meet" version="1.0"><defs><g/><clipPath id="9d02815594"><rect x="0" width="39" y="0" height="73"/></clipPath><clipPath id="9c3cfa05e6"><rect x="0" width="39" y="0" height="72"/></clipPath><clipPath id="acc84f799d"><path d="M 41.6875 44.484375 L 105.4375 44.484375 L 105.4375 79.734375 L 41.6875 79.734375 Z M 41.6875 44.484375 " clip-rule="nonzero"/></clipPath><clipPath id="a09ccabc80"><path d="M 86 0.519531 L 90 0.519531 L 90 5 L 86 5 Z M 86 0.519531 " clip-rule="nonzero"/></clipPath><clipPath id="2a8f859b3c"><rect x="0" width="105" y="0" height="7"/></clipPath></defs><g transform="matrix(1, 0, 0, 1, 48, 27)"><g clip-path="url(#9d02815594)"><g fill="#ffffff" fill-opacity="1"><g transform="translate(0.573398, 53.901883)"><g><path d="M 30.140625 -2.515625 C 28.660156 -1.679688 27.003906 -1.054688 25.171875 -0.640625 C 23.347656 -0.234375 21.363281 -0.03125 19.21875 -0.03125 C 16.675781 -0.03125 14.285156 -0.492188 12.046875 -1.421875 C 9.816406 -2.347656 7.851562 -3.707031 6.15625 -5.5 C 4.457031 -7.300781 3.128906 -9.5 2.171875 -12.09375 C 1.210938 -14.695312 0.734375 -17.660156 0.734375 -20.984375 C 0.734375 -24.316406 1.21875 -27.28125 2.1875 -29.875 C 3.15625 -32.476562 4.515625 -34.679688 6.265625 -36.484375 C 8.023438 -38.296875 10.101562 -39.671875 12.5 -40.609375 C 14.90625 -41.546875 17.554688 -42.015625 20.453125 -42.015625 C 22.484375 -42.015625 24.210938 -41.851562 25.640625 -41.53125 C 27.066406 -41.207031 28.265625 -40.820312 29.234375 -40.375 C 30.210938 -39.925781 31.046875 -39.492188 31.734375 -39.078125 C 32.429688 -38.671875 33.070312 -38.359375 33.65625 -38.140625 C 34.25 -37.929688 34.875 -37.914062 35.53125 -38.09375 L 33.546875 -32.703125 C 32.585938 -34.265625 31.648438 -35.566406 30.734375 -36.609375 C 29.816406 -37.648438 28.820312 -38.484375 27.75 -39.109375 C 26.6875 -39.734375 25.46875 -40.179688 24.09375 -40.453125 C 22.71875 -40.734375 21.09375 -40.875 19.21875 -40.875 C 17.988281 -40.875 16.691406 -40.617188 15.328125 -40.109375 C 13.972656 -39.597656 12.648438 -38.820312 11.359375 -37.78125 C 10.078125 -36.75 8.910156 -35.441406 7.859375 -33.859375 C 6.816406 -32.285156 5.988281 -30.429688 5.375 -28.296875 C 4.757812 -26.171875 4.453125 -23.757812 4.453125 -21.0625 C 4.453125 -17.6875 4.832031 -14.757812 5.59375 -12.28125 C 6.351562 -9.800781 7.410156 -7.753906 8.765625 -6.140625 C 10.128906 -4.523438 11.703125 -3.328125 13.484375 -2.546875 C 15.273438 -1.765625 17.1875 -1.375 19.21875 -1.375 C 21.582031 -1.375 23.6875 -1.648438 25.53125 -2.203125 C 27.375 -2.765625 28.84375 -3.539062 29.9375 -4.53125 C 31.03125 -5.53125 31.609375 -6.695312 31.671875 -8.03125 L 31.671875 -14.0625 C 31.671875 -15.238281 31.566406 -16.097656 31.359375 -16.640625 C 31.160156 -17.191406 30.957031 -17.546875 30.75 -17.703125 C 30.539062 -17.867188 30.4375 -17.953125 30.4375 -17.953125 L 36.453125 -17.953125 C 36.453125 -17.953125 36.351562 -17.875 36.15625 -17.71875 C 35.957031 -17.5625 35.753906 -17.207031 35.546875 -16.65625 C 35.347656 -16.113281 35.25 -15.257812 35.25 -14.09375 L 35.25 -4.109375 C 35.25 -2.953125 35.347656 -2.078125 35.546875 -1.484375 C 35.753906 -0.898438 35.957031 -0.507812 36.15625 -0.3125 C 36.351562 -0.125 36.453125 -0.03125 36.453125 -0.03125 Z M 30.140625 -2.515625 "/></g></g></g></g></g><g transform="matrix(1, 0, 0, 1, 63, 39)"><g clip-path="url(#9c3cfa05e6)"><g fill="#ffffff" fill-opacity="1"><g transform="translate(0.655252, 53.093984)"><g><path d="M 30.140625 -2.515625 C 28.660156 -1.679688 27.003906 -1.054688 25.171875 -0.640625 C 23.347656 -0.234375 21.363281 -0.03125 19.21875 -0.03125 C 16.675781 -0.03125 14.285156 -0.492188 12.046875 -1.421875 C 9.816406 -2.347656 7.851562 -3.707031 6.15625 -5.5 C 4.457031 -7.300781 3.128906 -9.5 2.171875 -12.09375 C 1.210938 -14.695312 0.734375 -17.660156 0.734375 -20.984375 C 0.734375 -24.316406 1.21875 -27.28125 2.1875 -29.875 C 3.15625 -32.476562 4.515625 -34.679688 6.265625 -36.484375 C 8.023438 -38.296875 10.101562 -39.671875 12.5 -40.609375 C 14.90625 -41.546875 17.554688 -42.015625 20.453125 -42.015625 C 22.484375 -42.015625 24.210938 -41.851562 25.640625 -41.53125 C 27.066406 -41.207031 28.265625 -40.820312 29.234375 -40.375 C 30.210938 -39.925781 31.046875 -39.492188 31.734375 -39.078125 C 32.429688 -38.671875 33.070312 -38.359375 33.65625 -38.140625 C 34.25 -37.929688 34.875 -37.914062 35.53125 -38.09375 L 33.546875 -32.703125 C 32.585938 -34.265625 31.648438 -35.566406 30.734375 -36.609375 C 29.816406 -37.648438 28.820312 -38.484375 27.75 -39.109375 C 26.6875 -39.734375 25.46875 -40.179688 24.09375 -40.453125 C 22.71875 -40.734375 21.09375 -40.875 19.21875 -40.875 C 17.988281 -40.875 16.691406 -40.617188 15.328125 -40.109375 C 13.972656 -39.597656 12.648438 -38.820312 11.359375 -37.78125 C 10.078125 -36.75 8.910156 -35.441406 7.859375 -33.859375 C 6.816406 -32.285156 5.988281 -30.429688 5.375 -28.296875 C 4.757812 -26.171875 4.453125 -23.757812 4.453125 -21.0625 C 4.453125 -17.6875 4.832031 -14.757812 5.59375 -12.28125 C 6.351562 -9.800781 7.410156 -7.753906 8.765625 -6.140625 C 10.128906 -4.523438 11.703125 -3.328125 13.484375 -2.546875 C 15.273438 -1.765625 17.1875 -1.375 19.21875 -1.375 C 21.582031 -1.375 23.6875 -1.648438 25.53125 -2.203125 C 27.375 -2.765625 28.84375 -3.539062 29.9375 -4.53125 C 31.03125 -5.53125 31.609375 -6.695312 31.671875 -8.03125 L 31.671875 -14.0625 C 31.671875 -15.238281 31.566406 -16.097656 31.359375 -16.640625 C 31.160156 -17.191406 30.957031 -17.546875 30.75 -17.703125 C 30.539062 -17.867188 30.4375 -17.953125 30.4375 -17.953125 L 36.453125 -17.953125 C 36.453125 -17.953125 36.351562 -17.875 36.15625 -17.71875 C 35.957031 -17.5625 35.753906 -17.207031 35.546875 -16.65625 C 35.347656 -16.113281 35.25 -15.257812 35.25 -14.09375 L 35.25 -4.109375 C 35.25 -2.953125 35.347656 -2.078125 35.546875 -1.484375 C 35.753906 -0.898438 35.957031 -0.507812 36.15625 -0.3125 C 36.351562 -0.125 36.453125 -0.03125 36.453125 -0.03125 Z M 30.140625 -2.515625 "/></g></g></g></g></g><g clip-path="url(#acc84f799d)"><path fill="#ffffff" d="M 52.707031 63.710938 C 52.320312 63.824219 51.921875 63.910156 51.515625 63.96875 C 51.117188 64.023438 50.710938 64.054688 50.296875 64.054688 C 47.925781 64.054688 45.773438 63.089844 44.21875 61.535156 C 42.664062 59.980469 41.699219 57.832031 41.699219 55.457031 C 41.699219 53.082031 42.664062 50.933594 44.21875 49.375 C 45.773438 47.820312 47.925781 46.859375 50.296875 46.859375 C 51.617188 46.859375 52.867188 47.15625 53.988281 47.6875 C 55.148438 48.242188 56.164062 49.046875 56.96875 50.035156 C 59.402344 52.980469 61.382812 56.074219 63.363281 59.164062 C 67.445312 65.535156 71.519531 71.894531 79.484375 76.863281 C 80.210938 77.261719 80.972656 77.605469 81.757812 77.894531 C 83.582031 78.5625 85.554688 78.925781 87.609375 78.925781 C 92.304688 78.925781 96.558594 77.023438 99.632812 73.949219 C 102.710938 70.871094 104.613281 66.621094 104.613281 61.925781 C 104.613281 57.230469 102.710938 52.976562 99.632812 49.902344 C 96.722656 46.988281 92.761719 45.128906 88.367188 44.9375 C 88.714844 45.1875 88.9375 45.59375 88.9375 46.054688 C 88.9375 46.8125 88.324219 47.429688 87.5625 47.429688 C 86.800781 47.429688 86.183594 46.8125 86.183594 46.054688 C 86.183594 45.390625 86.652344 44.839844 87.273438 44.707031 L 87.273438 44.492188 L 87.609375 44.488281 C 92.425781 44.488281 96.785156 46.4375 99.941406 49.59375 C 103.09375 52.75 105.046875 57.109375 105.046875 61.925781 C 105.046875 66.738281 103.09375 71.097656 99.941406 74.253906 C 96.785156 77.410156 92.425781 79.363281 87.609375 79.363281 C 85.5 79.363281 83.480469 78.988281 81.609375 78.304688 C 79.667969 77.59375 77.890625 76.546875 76.34375 75.234375 C 70.15625 70.570312 66.578125 64.988281 63 59.402344 C 61.023438 56.316406 59.046875 53.234375 56.632812 50.308594 L 56.800781 50.171875 L 56.632812 50.308594 C 55.871094 49.371094 54.902344 48.605469 53.800781 48.082031 C 52.738281 47.578125 51.550781 47.292969 50.296875 47.292969 C 48.042969 47.292969 46 48.207031 44.523438 49.683594 C 43.046875 51.164062 42.132812 53.203125 42.132812 55.457031 C 42.132812 57.710938 43.046875 59.753906 44.523438 61.230469 C 46 62.707031 48.042969 63.621094 50.296875 63.621094 C 50.691406 63.621094 51.078125 63.59375 51.453125 63.542969 C 51.839844 63.488281 52.21875 63.40625 52.582031 63.296875 L 52.703125 63.714844 Z M 52.707031 63.710938 " fill-opacity="1" fill-rule="nonzero"/></g><g transform="matrix(1, 0, 0, 1, 24, 101)"><g clip-path="url(#2a8f859b3c)"><g fill="#ffffff" fill-opacity="1"><g transform="translate(1.006744, 4.537431)"><g><path d="M 3.328125 -1.421875 L 3.296875 -1.234375 C 3.234375 -0.859375 3.054688 -0.554688 2.765625 -0.328125 C 2.460938 -0.0859375 2.128906 0.03125 1.765625 0.03125 C 1.546875 0.03125 1.34375 -0.0078125 1.15625 -0.09375 C 0.96875 -0.164062 0.800781 -0.273438 0.65625 -0.421875 C 0.519531 -0.566406 0.410156 -0.734375 0.328125 -0.921875 C 0.242188 -1.109375 0.203125 -1.3125 0.203125 -1.53125 C 0.203125 -1.75 0.242188 -1.953125 0.328125 -2.140625 C 0.410156 -2.328125 0.519531 -2.492188 0.65625 -2.640625 C 0.800781 -2.773438 0.96875 -2.882812 1.15625 -2.96875 C 1.34375 -3.050781 1.535156 -3.09375 1.734375 -3.09375 C 2.097656 -3.09375 2.414062 -2.988281 2.6875 -2.78125 C 2.96875 -2.582031 3.160156 -2.3125 3.265625 -1.96875 L 2.9375 -1.96875 C 2.84375 -2.21875 2.6875 -2.414062 2.46875 -2.5625 C 2.257812 -2.707031 2.023438 -2.78125 1.765625 -2.78125 C 1.421875 -2.78125 1.125 -2.660156 0.875 -2.421875 C 0.632812 -2.171875 0.515625 -1.875 0.515625 -1.53125 C 0.515625 -1.1875 0.632812 -0.890625 0.875 -0.640625 C 1.125 -0.398438 1.421875 -0.28125 1.765625 -0.28125 C 2.035156 -0.28125 2.285156 -0.359375 2.515625 -0.515625 C 2.734375 -0.671875 2.890625 -0.882812 2.984375 -1.15625 L 1.75 -1.15625 L 1.75 -1.421875 Z M 3.328125 -1.421875 "/></g></g></g><g fill="#ffffff" fill-opacity="1"><g transform="translate(7.713687, 4.537431)"><g><path d="M 2.140625 0 L 0.328125 0 L 0.328125 -3.03125 L 2.140625 -3.03125 L 2.140625 -2.75 L 0.640625 -2.75 L 0.640625 -1.671875 L 2.09375 -1.671875 L 2.09375 -1.375 L 0.640625 -1.375 L 0.640625 -0.296875 L 2.140625 -0.296875 Z M 2.140625 0 "/></g></g></g><g fill="#ffffff" fill-opacity="1"><g transform="translate(13.363462, 4.537431)"><g><path d="M 0.640625 -1.5 L 1.359375 -1.5 C 1.535156 -1.5 1.675781 -1.5625 1.78125 -1.6875 C 1.90625 -1.800781 1.96875 -1.945312 1.96875 -2.125 C 1.96875 -2.300781 1.910156 -2.445312 1.796875 -2.5625 C 1.679688 -2.675781 1.535156 -2.734375 1.359375 -2.734375 L 0.640625 -2.734375 Z M 2.28125 -2.125 C 2.28125 -1.851562 2.1875 -1.632812 2 -1.46875 C 1.832031 -1.3125 1.628906 -1.222656 1.390625 -1.203125 L 2.328125 0 L 1.90625 0 L 1.015625 -1.203125 L 0.640625 -1.203125 L 0.640625 0 L 0.328125 0 L 0.328125 -3.03125 L 1.3125 -3.03125 C 1.582031 -3.03125 1.8125 -2.945312 2 -2.78125 C 2.1875 -2.601562 2.28125 -2.382812 2.28125 -2.125 Z M 2.28125 -2.125 "/></g></g></g><g fill="#ffffff" fill-opacity="1"><g transform="translate(18.968631, 4.537431)"><g><path d="M 0.09375 -2.75 L 0.09375 -3.046875 L 1.875 -3.046875 L 1.875 -2.75 L 1.140625 -2.75 L 1.140625 -0.015625 L 0.828125 -0.015625 L 0.828125 -2.75 Z M 0.09375 -2.75 "/></g></g></g><g fill="#ffffff" fill-opacity="1"><g transform="translate(24.109896, 4.537431)"><g><path d="M 0.640625 -1.5 L 1.359375 -1.5 C 1.535156 -1.5 1.675781 -1.5625 1.78125 -1.6875 C 1.90625 -1.800781 1.96875 -1.945312 1.96875 -2.125 C 1.96875 -2.300781 1.910156 -2.445312 1.796875 -2.5625 C 1.679688 -2.675781 1.535156 -2.734375 1.359375 -2.734375 L 0.640625 -2.734375 Z M 2.28125 -2.125 C 2.28125 -1.851562 2.1875 -1.632812 2 -1.46875 C 1.832031 -1.3125 1.628906 -1.222656 1.390625 -1.203125 L 2.328125 0 L 1.90625 0 L 1.015625 -1.203125 L 0.640625 -1.203125 L 0.640625 0 L 0.328125 0 L 0.328125 -3.03125 L 1.3125 -3.03125 C 1.582031 -3.03125 1.8125 -2.945312 2 -2.78125 C 2.1875 -2.601562 2.28125 -2.382812 2.28125 -2.125 Z M 2.28125 -2.125 "/></g></g></g><g fill="#ffffff" fill-opacity="1"><g transform="translate(29.715065, 4.537431)"><g><path d="M 2.53125 -1 C 2.53125 -0.675781 2.425781 -0.421875 2.21875 -0.234375 C 2.007812 -0.046875 1.738281 0.046875 1.40625 0.046875 C 1.0625 0.046875 0.789062 -0.046875 0.59375 -0.234375 C 0.375 -0.421875 0.265625 -0.675781 0.265625 -1 L 0.265625 -3.03125 L 0.578125 -3.03125 L 0.578125 -0.953125 C 0.578125 -0.722656 0.660156 -0.550781 0.828125 -0.4375 C 0.972656 -0.320312 1.164062 -0.265625 1.40625 -0.265625 C 1.78125 -0.265625 2.03125 -0.390625 2.15625 -0.640625 C 2.195312 -0.734375 2.21875 -0.835938 2.21875 -0.953125 L 2.21875 -3.03125 L 2.53125 -3.03125 Z M 2.53125 -1 "/></g></g></g><g fill="#ffffff" fill-opacity="1"><g transform="translate(35.690467, 4.537431)"><g><path d="M 2.6875 -1.515625 C 2.6875 -1.296875 2.648438 -1.09375 2.578125 -0.90625 C 2.492188 -0.71875 2.378906 -0.554688 2.234375 -0.421875 C 2.097656 -0.296875 1.9375 -0.191406 1.75 -0.109375 C 1.550781 -0.0351562 1.34375 0 1.125 0 L 0.328125 0 L 0.328125 -3.03125 L 1.125 -3.03125 C 1.34375 -3.03125 1.550781 -2.992188 1.75 -2.921875 C 1.9375 -2.847656 2.097656 -2.742188 2.234375 -2.609375 C 2.378906 -2.472656 2.492188 -2.3125 2.578125 -2.125 C 2.648438 -1.9375 2.6875 -1.734375 2.6875 -1.515625 Z M 2.390625 -1.515625 C 2.390625 -1.859375 2.269531 -2.148438 2.03125 -2.390625 C 1.789062 -2.609375 1.492188 -2.71875 1.140625 -2.71875 L 0.640625 -2.71875 L 0.640625 -0.3125 L 1.140625 -0.3125 C 1.492188 -0.3125 1.789062 -0.425781 2.03125 -0.65625 C 2.269531 -0.882812 2.390625 -1.171875 2.390625 -1.515625 Z M 2.390625 -1.515625 "/></g></g></g><g fill="#ffffff" fill-opacity="1"><g transform="translate(41.759539, 4.537431)"><g><path d="M 2.140625 0 L 0.328125 0 L 0.328125 -3.03125 L 2.140625 -3.03125 L 2.140625 -2.75 L 0.640625 -2.75 L 0.640625 -1.671875 L 2.09375 -1.671875 L 2.09375 -1.375 L 0.640625 -1.375 L 0.640625 -0.296875 L 2.140625 -0.296875 Z M 2.140625 0 "/></g></g></g><g fill="#ffffff" fill-opacity="1"><g transform="translate(47.409314, 4.537431)"><g/></g></g><g fill="#ffffff" fill-opacity="1"><g transform="translate(51.792275, 4.537431)"><g><path d="M 3.328125 -1.421875 L 3.296875 -1.234375 C 3.234375 -0.859375 3.054688 -0.554688 2.765625 -0.328125 C 2.460938 -0.0859375 2.128906 0.03125 1.765625 0.03125 C 1.546875 0.03125 1.34375 -0.0078125 1.15625 -0.09375 C 0.96875 -0.164062 0.800781 -0.273438 0.65625 -0.421875 C 0.519531 -0.566406 0.410156 -0.734375 0.328125 -0.921875 C 0.242188 -1.109375 0.203125 -1.3125 0.203125 -1.53125 C 0.203125 -1.75 0.242188 -1.953125 0.328125 -2.140625 C 0.410156 -2.328125 0.519531 -2.492188 0.65625 -2.640625 C 0.800781 -2.773438 0.96875 -2.882812 1.15625 -2.96875 C 1.34375 -3.050781 1.535156 -3.09375 1.734375 -3.09375 C 2.097656 -3.09375 2.414062 -2.988281 2.6875 -2.78125 C 2.96875 -2.582031 3.160156 -2.3125 3.265625 -1.96875 L 2.9375 -1.96875 C 2.84375 -2.21875 2.6875 -2.414062 2.46875 -2.5625 C 2.257812 -2.707031 2.023438 -2.78125 1.765625 -2.78125 C 1.421875 -2.78125 1.125 -2.660156 0.875 -2.421875 C 0.632812 -2.171875 0.515625 -1.875 0.515625 -1.53125 C 0.515625 -1.1875 0.632812 -0.890625 0.875 -0.640625 C 1.125 -0.398438 1.421875 -0.28125 1.765625 -0.28125 C 2.035156 -0.28125 2.285156 -0.359375 2.515625 -0.515625 C 2.734375 -0.671875 2.890625 -0.882812 2.984375 -1.15625 L 1.75 -1.15625 L 1.75 -1.421875 Z M 3.328125 -1.421875 "/></g></g></g><g fill="#ffffff" fill-opacity="1"><g transform="translate(58.499218, 4.537431)"><g><path d="M 2.53125 -1 C 2.53125 -0.675781 2.425781 -0.421875 2.21875 -0.234375 C 2.007812 -0.046875 1.738281 0.046875 1.40625 0.046875 C 1.0625 0.046875 0.789062 -0.046875 0.59375 -0.234375 C 0.375 -0.421875 0.265625 -0.675781 0.265625 -1 L 0.265625 -3.03125 L 0.578125 -3.03125 L 0.578125 -0.953125 C 0.578125 -0.722656 0.660156 -0.550781 0.828125 -0.4375 C 0.972656 -0.320312 1.164062 -0.265625 1.40625 -0.265625 C 1.78125 -0.265625 2.03125 -0.390625 2.15625 -0.640625 C 2.195312 -0.734375 2.21875 -0.835938 2.21875 -0.953125 L 2.21875 -3.03125 L 2.53125 -3.03125 Z M 2.53125 -1 "/></g></g></g><g fill="#ffffff" fill-opacity="1"><g transform="translate(64.47462, 4.537431)"><g><path d="M 0.640625 0 L 0.328125 0 L 0.328125 -3.03125 L 0.640625 -3.03125 Z M 0.640625 0 "/></g></g></g><g fill="#ffffff" fill-opacity="1"><g transform="translate(68.63455, 4.537431)"><g><path d="M 3.140625 0 L 2.65625 -2.15625 L 1.75 0.171875 L 0.828125 -2.15625 L 0.359375 0 L 0.046875 0 L 0.75 -3.234375 L 1.75 -0.640625 L 2.75 -3.234375 L 3.453125 0 Z M 3.140625 0 "/></g></g></g><g fill="#ffffff" fill-opacity="1"><g transform="translate(75.305808, 4.537431)"><g><path d="M 0.828125 -1.109375 L 1.9375 -1.109375 L 1.375 -2.515625 Z M 2.71875 0 L 2.375 0 L 2.046875 -0.828125 L 0.703125 -0.828125 L 0.390625 0 L 0.046875 0 L 1.375 -3.25 Z M 2.71875 0 "/></g></g></g><g fill="#ffffff" fill-opacity="1"><g transform="translate(81.236604, 4.537431)"><g><path d="M 0.640625 -1.5 L 1.359375 -1.5 C 1.535156 -1.5 1.675781 -1.5625 1.78125 -1.6875 C 1.90625 -1.800781 1.96875 -1.945312 1.96875 -2.125 C 1.96875 -2.300781 1.910156 -2.445312 1.796875 -2.5625 C 1.679688 -2.675781 1.535156 -2.734375 1.359375 -2.734375 L 0.640625 -2.734375 Z M 2.28125 -2.125 C 2.28125 -1.851562 2.1875 -1.632812 2 -1.46875 C 1.832031 -1.3125 1.628906 -1.222656 1.390625 -1.203125 L 2.328125 0 L 1.90625 0 L 1.015625 -1.203125 L 0.640625 -1.203125 L 0.640625 0 L 0.328125 0 L 0.328125 -3.03125 L 1.3125 -3.03125 C 1.582031 -3.03125 1.8125 -2.945312 2 -2.78125 C 2.1875 -2.601562 2.28125 -2.382812 2.28125 -2.125 Z M 2.28125 -2.125 "/></g></g></g><g clip-path="url(#a09ccabc80)"><g fill="#ffffff" fill-opacity="1"><g transform="translate(86.841778, 4.537431)"><g><path d="M 0.828125 -1.109375 L 1.9375 -1.109375 L 1.375 -2.515625 Z M 2.71875 0 L 2.375 0 L 2.046875 -0.828125 L 0.703125 -0.828125 L 0.390625 0 L 0.046875 0 L 1.375 -3.25 Z M 0.640625 -3.34375 C 0.640625 -3.550781 0.695312 -3.710938 0.8125 -3.828125 C 0.875 -3.878906 0.957031 -3.90625 1.0625 -3.90625 C 1.175781 -3.90625 1.257812 -3.890625 1.3125 -3.859375 C 1.363281 -3.816406 1.410156 -3.773438 1.453125 -3.734375 C 1.484375 -3.679688 1.519531 -3.640625 1.5625 -3.609375 C 1.59375 -3.566406 1.632812 -3.546875 1.6875 -3.546875 C 1.738281 -3.546875 1.78125 -3.554688 1.8125 -3.578125 C 1.832031 -3.585938 1.851562 -3.609375 1.875 -3.640625 C 1.882812 -3.671875 1.890625 -3.742188 1.890625 -3.859375 L 2.109375 -3.859375 C 2.128906 -3.660156 2.082031 -3.503906 1.96875 -3.390625 C 1.90625 -3.328125 1.816406 -3.296875 1.703125 -3.296875 C 1.585938 -3.296875 1.5 -3.316406 1.4375 -3.359375 C 1.382812 -3.390625 1.34375 -3.429688 1.3125 -3.484375 C 1.269531 -3.523438 1.234375 -3.566406 1.203125 -3.609375 C 1.160156 -3.640625 1.109375 -3.65625 1.046875 -3.65625 C 0.953125 -3.65625 0.894531 -3.601562 0.875 -3.5 C 0.863281 -3.457031 0.859375 -3.40625 0.859375 -3.34375 Z M 0.640625 -3.34375 "/></g></g></g></g><g fill="#ffffff" fill-opacity="1"><g transform="translate(92.772574, 4.537431)"><g><path d="M 2.140625 0 L 0.328125 0 L 0.328125 -3.03125 L 2.140625 -3.03125 L 2.140625 -2.75 L 0.640625 -2.75 L 0.640625 -1.671875 L 2.09375 -1.671875 L 2.09375 -1.375 L 0.640625 -1.375 L 0.640625 -0.296875 L 2.140625 -0.296875 Z M 2.140625 0 "/></g></g></g><g fill="#ffffff" fill-opacity="1"><g transform="translate(98.422339, 4.537431)"><g><path d="M 1.1875 -1.4375 C 0.5625 -1.582031 0.25 -1.847656 0.25 -2.234375 C 0.25 -2.515625 0.347656 -2.726562 0.546875 -2.875 C 0.742188 -3.007812 0.976562 -3.078125 1.25 -3.078125 C 1.84375 -3.078125 2.195312 -2.859375 2.3125 -2.421875 L 1.96875 -2.421875 C 1.90625 -2.679688 1.664062 -2.8125 1.25 -2.8125 C 0.957031 -2.8125 0.753906 -2.726562 0.640625 -2.5625 C 0.597656 -2.488281 0.578125 -2.40625 0.578125 -2.3125 C 0.578125 -2.125 0.675781 -1.976562 0.875 -1.875 C 0.96875 -1.820312 1.171875 -1.757812 1.484375 -1.6875 C 1.796875 -1.601562 2.019531 -1.507812 2.15625 -1.40625 C 2.351562 -1.269531 2.453125 -1.078125 2.453125 -0.828125 C 2.453125 -0.523438 2.332031 -0.296875 2.09375 -0.140625 C 1.882812 -0.00390625 1.632812 0.0625 1.34375 0.0625 C 0.664062 0.0625 0.273438 -0.191406 0.171875 -0.703125 L 0.53125 -0.703125 C 0.59375 -0.390625 0.863281 -0.234375 1.34375 -0.234375 C 1.675781 -0.234375 1.910156 -0.328125 2.046875 -0.515625 C 2.097656 -0.585938 2.125 -0.6875 2.125 -0.8125 C 2.125 -0.9375 2.078125 -1.039062 1.984375 -1.125 C 1.835938 -1.238281 1.570312 -1.34375 1.1875 -1.4375 Z M 1.1875 -1.4375 "/></g></g></g></g></g></svg>