<svg xmlns="http://www.w3.org/2000/svg" xmlns:xlink="http://www.w3.org/1999/xlink" width="200" zoomAndPan="magnify" viewBox="0 0 150 149.999998" height="200" preserveAspectRatio="xMidYMid meet" version="1.0"><defs><g/><clipPath id="70ebe64f4b"><path d="M 61.421875 42 L 88 42 L 88 65.917969 L 61.421875 65.917969 Z M 61.421875 42 " clip-rule="nonzero"/></clipPath><clipPath id="f0f34505aa"><path d="M 10 1 L 26.121094 1 L 26.121094 23.917969 L 10 23.917969 Z M 10 1 " clip-rule="nonzero"/></clipPath><clipPath id="370010fb56"><path d="M 0.457031 0.71875 L 23 0.71875 L 23 18 L 0.457031 18 Z M 0.457031 0.71875 " clip-rule="nonzero"/></clipPath><clipPath id="9b8be362a8"><rect x="0" width="27" y="0" height="24"/></clipPath><clipPath id="85baf62082"><path d="M 48 0.71875 L 52 0.71875 L 52 15 L 48 15 Z M 48 0.71875 " clip-rule="nonzero"/></clipPath><clipPath id="142e1cc2c1"><path d="M 63 4 L 73.601562 4 L 73.601562 15 L 63 15 Z M 63 4 " clip-rule="nonzero"/></clipPath><clipPath id="69a0981b8f"><rect x="0" width="74" y="0" height="18"/></clipPath><clipPath id="a5e124fe8d"><path d="M 1 0.28125 L 15 0.28125 L 15 14 L 1 14 Z M 1 0.28125 " clip-rule="nonzero"/></clipPath><clipPath id="bdec309a75"><path d="M 15 0.28125 L 26 0.28125 L 26 14 L 15 14 Z M 15 0.28125 " clip-rule="nonzero"/></clipPath><clipPath id="16b05389c7"><rect x="0" width="66" y="0" height="17"/></clipPath></defs><g clip-path="url(#70ebe64f4b)"><g transform="matrix(1, 0, 0, 1, 61, 42)"><g clip-path="url(#9b8be362a8)"><g clip-path="url(#f0f34505aa)"><path fill="#ffffff" d="M 10.5625 3.753906 C 14.570312 5.039062 17.710938 3.421875 19.628906 2.199219 C 22.085938 0.632812 25.03125 1.195312 25.835938 4.539062 C 27.460938 11.308594 21.195312 24.027344 18.765625 23.808594 C 15.558594 23.523438 17.722656 17.917969 13.167969 19.296875 C 17.480469 16.507812 17.203125 21.9375 18.671875 21.835938 C 21.003906 21.671875 24.449219 12.253906 24.3125 6.796875 C 24.234375 3.664062 22.199219 2.527344 19.488281 4.085938 C 17.609375 5.171875 14.347656 6.109375 10.5625 3.753906 Z M 10.5625 3.753906 " fill-opacity="1" fill-rule="evenodd"/></g><g clip-path="url(#370010fb56)"><path fill="#ffffff" d="M 16.152344 3.261719 C 14.46875 1.523438 9.320312 -0.824219 6.28125 2.527344 C 6.007812 2.828125 5.765625 3.152344 5.554688 3.496094 C 2.460938 4.53125 0.425781 6.296875 0.425781 8.300781 C 0.425781 10.183594 2.222656 11.855469 5.007812 12.910156 C 5.546875 14.675781 6.371094 16.300781 7.351562 17.53125 C 6.894531 16.144531 6.523438 14.71875 6.261719 13.324219 C 7.9375 13.804688 9.878906 14.074219 11.945312 14.074219 C 16.941406 14.074219 21.195312 12.480469 22.789062 10.25 C 20.804688 11.660156 17.351562 12.59375 13.425781 12.59375 C 7.269531 12.59375 2.277344 10.296875 2.277344 7.46875 C 2.277344 6.113281 3.421875 4.882812 5.289062 3.964844 C 4.46875 5.546875 4.203125 7.480469 4.347656 9.441406 C 4.777344 9.789062 5.289062 10.109375 5.878906 10.398438 C 5.679688 7.539062 6.089844 5.074219 7.382812 3.75 C 10.636719 0.414062 14.476562 2.550781 16.152344 3.261719 Z M 16.152344 3.261719 " fill-opacity="1" fill-rule="evenodd"/></g></g></g></g><g transform="matrix(1, 0, 0, 1, 38, 78)"><g clip-path="url(#69a0981b8f)"><g fill="#ffffff" fill-opacity="1"><g transform="translate(0.202351, 14.405315)"><g><path d="M 4.125 0 L 1.265625 0 L 1.265625 -12.3125 L 9.9375 -12.3125 L 9.9375 -9.765625 L 4.125 -9.765625 L 4.125 -6.9375 L 9.125 -6.9375 L 9.125 -4.53125 L 4.125 -4.53125 Z M 4.125 0 "/></g></g></g><g fill="#ffffff" fill-opacity="1"><g transform="translate(10.106003, 14.405315)"><g><path d="M 4.859375 0.3125 C 4.222656 0.3125 3.640625 0.179688 3.109375 -0.078125 C 2.585938 -0.335938 2.132812 -0.695312 1.75 -1.15625 C 1.363281 -1.613281 1.0625 -2.144531 0.84375 -2.75 C 0.632812 -3.351562 0.53125 -4 0.53125 -4.6875 C 0.53125 -5.375 0.632812 -6.019531 0.84375 -6.625 C 1.0625 -7.226562 1.363281 -7.757812 1.75 -8.21875 C 2.144531 -8.675781 2.601562 -9.035156 3.125 -9.296875 C 3.644531 -9.554688 4.21875 -9.6875 4.84375 -9.6875 C 5.53125 -9.6875 6.140625 -9.554688 6.671875 -9.296875 C 7.210938 -9.035156 7.625 -8.660156 7.90625 -8.171875 L 7.90625 -9.375 L 10.546875 -9.375 L 10.546875 0 L 7.890625 0 L 7.890625 -1.1875 C 7.609375 -0.707031 7.203125 -0.335938 6.671875 -0.078125 C 6.140625 0.179688 5.535156 0.3125 4.859375 0.3125 Z M 5.53125 -2.265625 C 5.957031 -2.265625 6.335938 -2.367188 6.671875 -2.578125 C 7.015625 -2.796875 7.285156 -3.085938 7.484375 -3.453125 C 7.679688 -3.816406 7.78125 -4.226562 7.78125 -4.6875 C 7.78125 -5.144531 7.679688 -5.554688 7.484375 -5.921875 C 7.285156 -6.285156 7.015625 -6.578125 6.671875 -6.796875 C 6.335938 -7.015625 5.960938 -7.125 5.546875 -7.125 C 5.128906 -7.125 4.75 -7.023438 4.40625 -6.828125 C 4.070312 -6.628906 3.800781 -6.347656 3.59375 -5.984375 C 3.394531 -5.628906 3.296875 -5.195312 3.296875 -4.6875 C 3.296875 -4.15625 3.398438 -3.707031 3.609375 -3.34375 C 3.816406 -2.988281 4.085938 -2.71875 4.421875 -2.53125 C 4.765625 -2.351562 5.132812 -2.265625 5.53125 -2.265625 Z M 5.53125 -2.265625 "/></g></g></g><g fill="#ffffff" fill-opacity="1"><g transform="translate(21.177927, 14.405315)"><g><path d="M 5.46875 0.296875 C 4.84375 0.296875 4.253906 0.210938 3.703125 0.046875 C 3.148438 -0.117188 2.664062 -0.382812 2.25 -0.75 C 1.84375 -1.125 1.519531 -1.609375 1.28125 -2.203125 C 1.050781 -2.796875 0.9375 -3.519531 0.9375 -4.375 L 0.9375 -9.375 L 3.71875 -9.375 L 3.71875 -4.46875 C 3.71875 -3.769531 3.859375 -3.226562 4.140625 -2.84375 C 4.421875 -2.457031 4.863281 -2.265625 5.46875 -2.265625 C 6.09375 -2.265625 6.539062 -2.460938 6.8125 -2.859375 C 7.09375 -3.253906 7.234375 -3.789062 7.234375 -4.46875 L 7.234375 -9.375 L 10 -9.375 L 10 -4.375 C 10 -3.519531 9.878906 -2.796875 9.640625 -2.203125 C 9.410156 -1.609375 9.085938 -1.125 8.671875 -0.75 C 8.265625 -0.382812 7.785156 -0.117188 7.234375 0.046875 C 6.679688 0.210938 6.09375 0.296875 5.46875 0.296875 Z M 5.46875 0.296875 "/></g></g></g><g fill="#ffffff" fill-opacity="1"><g transform="translate(31.570623, 14.405315)"><g><path d="M 4.6875 0.3125 C 3.96875 0.3125 3.347656 0.210938 2.828125 0.015625 C 2.304688 -0.171875 1.878906 -0.425781 1.546875 -0.75 C 1.210938 -1.070312 0.960938 -1.429688 0.796875 -1.828125 C 0.628906 -2.234375 0.546875 -2.648438 0.546875 -3.078125 L 3.21875 -3.0625 C 3.25 -2.71875 3.378906 -2.4375 3.609375 -2.21875 C 3.847656 -2 4.210938 -1.890625 4.703125 -1.890625 C 5.148438 -1.890625 5.46875 -1.96875 5.65625 -2.125 C 5.84375 -2.28125 5.9375 -2.484375 5.9375 -2.734375 C 5.9375 -3.015625 5.800781 -3.210938 5.53125 -3.328125 C 5.269531 -3.453125 4.863281 -3.550781 4.3125 -3.625 C 3.84375 -3.675781 3.398438 -3.769531 2.984375 -3.90625 C 2.578125 -4.050781 2.210938 -4.242188 1.890625 -4.484375 C 1.578125 -4.722656 1.332031 -5.019531 1.15625 -5.375 C 0.976562 -5.726562 0.890625 -6.148438 0.890625 -6.640625 C 0.890625 -7.273438 1.035156 -7.816406 1.328125 -8.265625 C 1.617188 -8.722656 2.039062 -9.070312 2.59375 -9.3125 C 3.144531 -9.5625 3.8125 -9.6875 4.59375 -9.6875 C 5.375 -9.6875 6.054688 -9.550781 6.640625 -9.28125 C 7.234375 -9.019531 7.695312 -8.648438 8.03125 -8.171875 C 8.363281 -7.691406 8.53125 -7.132812 8.53125 -6.5 L 5.8125 -6.515625 C 5.789062 -6.773438 5.679688 -6.988281 5.484375 -7.15625 C 5.296875 -7.332031 5 -7.421875 4.59375 -7.421875 C 4.25 -7.421875 4 -7.347656 3.84375 -7.203125 C 3.695312 -7.066406 3.625 -6.898438 3.625 -6.703125 C 3.625 -6.578125 3.640625 -6.46875 3.671875 -6.375 C 3.710938 -6.289062 3.789062 -6.21875 3.90625 -6.15625 C 4.019531 -6.09375 4.1875 -6.035156 4.40625 -5.984375 C 4.632812 -5.929688 4.9375 -5.878906 5.3125 -5.828125 C 6.03125 -5.722656 6.644531 -5.566406 7.15625 -5.359375 C 7.675781 -5.148438 8.078125 -4.847656 8.359375 -4.453125 C 8.640625 -4.066406 8.78125 -3.546875 8.78125 -2.890625 C 8.78125 -2.347656 8.675781 -1.875 8.46875 -1.46875 C 8.257812 -1.070312 7.96875 -0.738281 7.59375 -0.46875 C 7.21875 -0.207031 6.78125 -0.015625 6.28125 0.109375 C 5.789062 0.242188 5.257812 0.3125 4.6875 0.3125 Z M 4.6875 0.3125 "/></g></g></g><g fill="#ffffff" fill-opacity="1"><g transform="translate(40.233551, 14.405315)"><g><path d="M 7.234375 0 L 5.15625 0 C 4.882812 0 4.597656 -0.0195312 4.296875 -0.0625 C 3.992188 -0.113281 3.703125 -0.207031 3.421875 -0.34375 C 3.140625 -0.488281 2.882812 -0.695312 2.65625 -0.96875 C 2.425781 -1.238281 2.242188 -1.59375 2.109375 -2.03125 C 1.972656 -2.46875 1.90625 -3.007812 1.90625 -3.65625 L 1.90625 -7.015625 L 0.109375 -7.015625 L 0.109375 -9.375 L 1.90625 -9.375 L 1.90625 -12.09375 L 4.703125 -12.109375 L 4.703125 -9.375 L 7.234375 -9.375 L 7.234375 -7.015625 L 4.703125 -7.015625 L 4.703125 -3.53125 C 4.703125 -3.070312 4.800781 -2.75 5 -2.5625 C 5.207031 -2.382812 5.460938 -2.296875 5.765625 -2.296875 L 7.234375 -2.296875 Z M 7.234375 0 "/></g></g></g><g clip-path="url(#85baf62082)"><g fill="#ffffff" fill-opacity="1"><g transform="translate(47.384067, 14.405315)"><g><path d="M 2.46875 -10.484375 C 2.125 -10.484375 1.828125 -10.550781 1.578125 -10.6875 C 1.335938 -10.820312 1.148438 -11.003906 1.015625 -11.234375 C 0.890625 -11.460938 0.828125 -11.710938 0.828125 -11.984375 C 0.828125 -12.265625 0.890625 -12.519531 1.015625 -12.75 C 1.140625 -12.976562 1.328125 -13.160156 1.578125 -13.296875 C 1.828125 -13.429688 2.125 -13.5 2.46875 -13.5 C 2.832031 -13.5 3.140625 -13.429688 3.390625 -13.296875 C 3.640625 -13.160156 3.828125 -12.976562 3.953125 -12.75 C 4.078125 -12.519531 4.140625 -12.265625 4.140625 -11.984375 C 4.140625 -11.566406 3.992188 -11.210938 3.703125 -10.921875 C 3.421875 -10.628906 3.007812 -10.484375 2.46875 -10.484375 Z M 3.859375 0 L 1.078125 0 L 1.078125 -9.375 L 3.859375 -9.375 Z M 3.859375 0 "/></g></g></g></g><g fill="#ffffff" fill-opacity="1"><g transform="translate(51.781441, 14.405315)"><g><path d="M 3.859375 0 L 1.078125 0 L 1.078125 -9.375 L 3.734375 -9.375 L 3.734375 -8.25 C 3.921875 -8.53125 4.160156 -8.773438 4.453125 -8.984375 C 4.753906 -9.203125 5.09375 -9.375 5.46875 -9.5 C 5.851562 -9.625 6.257812 -9.6875 6.6875 -9.6875 C 7.53125 -9.6875 8.226562 -9.5 8.78125 -9.125 C 9.34375 -8.75 9.757812 -8.210938 10.03125 -7.515625 C 10.300781 -6.828125 10.4375 -6 10.4375 -5.03125 L 10.4375 0 L 7.640625 0 L 7.640625 -4.96875 C 7.640625 -5.488281 7.566406 -5.90625 7.421875 -6.21875 C 7.273438 -6.539062 7.070312 -6.769531 6.8125 -6.90625 C 6.550781 -7.050781 6.242188 -7.125 5.890625 -7.125 C 5.546875 -7.125 5.21875 -7.035156 4.90625 -6.859375 C 4.59375 -6.679688 4.335938 -6.410156 4.140625 -6.046875 C 3.953125 -5.679688 3.859375 -5.21875 3.859375 -4.65625 Z M 3.859375 0 "/></g></g></g><g clip-path="url(#142e1cc2c1)"><g fill="#ffffff" fill-opacity="1"><g transform="translate(62.708463, 14.405315)"><g><path d="M 5.515625 0.296875 C 4.785156 0.296875 4.113281 0.164062 3.5 -0.09375 C 2.894531 -0.351562 2.367188 -0.707031 1.921875 -1.15625 C 1.484375 -1.613281 1.140625 -2.144531 0.890625 -2.75 C 0.648438 -3.351562 0.53125 -4 0.53125 -4.6875 C 0.53125 -5.375 0.648438 -6.019531 0.890625 -6.625 C 1.140625 -7.226562 1.484375 -7.757812 1.921875 -8.21875 C 2.367188 -8.675781 2.894531 -9.035156 3.5 -9.296875 C 4.113281 -9.554688 4.789062 -9.6875 5.53125 -9.6875 C 6.269531 -9.6875 6.945312 -9.554688 7.5625 -9.296875 C 8.175781 -9.035156 8.703125 -8.675781 9.140625 -8.21875 C 9.585938 -7.757812 9.929688 -7.226562 10.171875 -6.625 C 10.421875 -6.019531 10.546875 -5.375 10.546875 -4.6875 C 10.546875 -4 10.421875 -3.351562 10.171875 -2.75 C 9.929688 -2.144531 9.585938 -1.613281 9.140625 -1.15625 C 8.691406 -0.695312 8.160156 -0.335938 7.546875 -0.078125 C 6.929688 0.171875 6.253906 0.296875 5.515625 0.296875 Z M 5.546875 -2.265625 C 5.984375 -2.265625 6.367188 -2.367188 6.703125 -2.578125 C 7.035156 -2.785156 7.296875 -3.066406 7.484375 -3.421875 C 7.679688 -3.785156 7.78125 -4.207031 7.78125 -4.6875 C 7.78125 -5.164062 7.679688 -5.585938 7.484375 -5.953125 C 7.296875 -6.316406 7.035156 -6.597656 6.703125 -6.796875 C 6.367188 -7.003906 5.984375 -7.109375 5.546875 -7.109375 C 5.109375 -7.109375 4.71875 -7.003906 4.375 -6.796875 C 4.039062 -6.597656 3.773438 -6.316406 3.578125 -5.953125 C 3.390625 -5.585938 3.296875 -5.164062 3.296875 -4.6875 C 3.296875 -4.207031 3.390625 -3.785156 3.578125 -3.421875 C 3.773438 -3.066406 4.039062 -2.785156 4.375 -2.578125 C 4.71875 -2.367188 5.109375 -2.265625 5.546875 -2.265625 Z M 5.546875 -2.265625 "/></g></g></g></g></g></g><g transform="matrix(1, 0, 0, 1, 42, 65)"><g clip-path="url(#16b05389c7)"><g clip-path="url(#a5e124fe8d)"><g fill="#ffffff" fill-opacity="1"><g transform="translate(0.725779, 13.33391)"><g><path d="M 7.171875 0.28125 C 6.429688 0.28125 5.722656 0.171875 5.046875 -0.046875 C 4.378906 -0.265625 3.765625 -0.566406 3.203125 -0.953125 C 2.648438 -1.347656 2.171875 -1.816406 1.765625 -2.359375 C 1.359375 -2.898438 1.039062 -3.492188 0.8125 -4.140625 C 0.582031 -4.785156 0.46875 -5.460938 0.46875 -6.171875 C 0.46875 -6.890625 0.582031 -7.570312 0.8125 -8.21875 C 1.039062 -8.863281 1.359375 -9.453125 1.765625 -9.984375 C 2.171875 -10.523438 2.648438 -10.992188 3.203125 -11.390625 C 3.765625 -11.785156 4.378906 -12.085938 5.046875 -12.296875 C 5.722656 -12.515625 6.429688 -12.625 7.171875 -12.625 C 7.910156 -12.625 8.613281 -12.515625 9.28125 -12.296875 C 9.945312 -12.085938 10.554688 -11.785156 11.109375 -11.390625 C 11.671875 -10.992188 12.15625 -10.523438 12.5625 -9.984375 C 12.976562 -9.453125 13.296875 -8.863281 13.515625 -8.21875 C 13.742188 -7.570312 13.859375 -6.890625 13.859375 -6.171875 C 13.859375 -5.460938 13.742188 -4.785156 13.515625 -4.140625 C 13.296875 -3.492188 12.976562 -2.898438 12.5625 -2.359375 C 12.15625 -1.816406 11.671875 -1.347656 11.109375 -0.953125 C 10.554688 -0.566406 9.945312 -0.265625 9.28125 -0.046875 C 8.613281 0.171875 7.910156 0.28125 7.171875 0.28125 Z M 7.171875 -2.34375 C 7.703125 -2.34375 8.195312 -2.4375 8.65625 -2.625 C 9.125 -2.8125 9.535156 -3.078125 9.890625 -3.421875 C 10.242188 -3.765625 10.515625 -4.164062 10.703125 -4.625 C 10.898438 -5.09375 11 -5.609375 11 -6.171875 C 11 -6.722656 10.898438 -7.234375 10.703125 -7.703125 C 10.515625 -8.171875 10.242188 -8.578125 9.890625 -8.921875 C 9.535156 -9.265625 9.125 -9.53125 8.65625 -9.71875 C 8.195312 -9.90625 7.703125 -10 7.171875 -10 C 6.640625 -10 6.140625 -9.90625 5.671875 -9.71875 C 5.210938 -9.53125 4.804688 -9.265625 4.453125 -8.921875 C 4.109375 -8.578125 3.835938 -8.171875 3.640625 -7.703125 C 3.441406 -7.234375 3.34375 -6.722656 3.34375 -6.171875 C 3.34375 -5.609375 3.441406 -5.09375 3.640625 -4.625 C 3.835938 -4.164062 4.109375 -3.765625 4.453125 -3.421875 C 4.804688 -3.078125 5.210938 -2.8125 5.671875 -2.625 C 6.140625 -2.4375 6.640625 -2.34375 7.171875 -2.34375 Z M 7.171875 -2.34375 "/></g></g></g></g><g clip-path="url(#bdec309a75)"><g fill="#ffffff" fill-opacity="1"><g transform="translate(14.514615, 13.33391)"><g><path d="M 5.015625 0.3125 C 4.335938 0.3125 3.722656 0.179688 3.171875 -0.078125 C 2.628906 -0.335938 2.160156 -0.695312 1.765625 -1.15625 C 1.367188 -1.613281 1.0625 -2.144531 0.84375 -2.75 C 0.632812 -3.351562 0.53125 -4 0.53125 -4.6875 C 0.53125 -5.375 0.632812 -6.019531 0.84375 -6.625 C 1.050781 -7.226562 1.351562 -7.757812 1.75 -8.21875 C 2.144531 -8.675781 2.617188 -9.035156 3.171875 -9.296875 C 3.722656 -9.554688 4.34375 -9.6875 5.03125 -9.6875 C 5.476562 -9.6875 5.882812 -9.613281 6.25 -9.46875 C 6.613281 -9.320312 6.925781 -9.140625 7.1875 -8.921875 C 7.457031 -8.703125 7.664062 -8.484375 7.8125 -8.265625 L 7.765625 -9.296875 L 7.765625 -12.765625 L 10.53125 -12.765625 L 10.53125 0 L 7.890625 0 L 7.890625 -1.1875 C 7.722656 -0.945312 7.503906 -0.710938 7.234375 -0.484375 C 6.972656 -0.253906 6.65625 -0.0664062 6.28125 0.078125 C 5.914062 0.234375 5.492188 0.3125 5.015625 0.3125 Z M 5.53125 -2.25 C 5.945312 -2.25 6.328125 -2.351562 6.671875 -2.5625 C 7.015625 -2.78125 7.285156 -3.070312 7.484375 -3.4375 C 7.679688 -3.8125 7.78125 -4.226562 7.78125 -4.6875 C 7.78125 -5.144531 7.679688 -5.554688 7.484375 -5.921875 C 7.285156 -6.285156 7.015625 -6.578125 6.671875 -6.796875 C 6.335938 -7.015625 5.957031 -7.125 5.53125 -7.125 C 5.09375 -7.125 4.703125 -7.019531 4.359375 -6.8125 C 4.023438 -6.601562 3.757812 -6.316406 3.5625 -5.953125 C 3.375 -5.597656 3.28125 -5.175781 3.28125 -4.6875 C 3.28125 -4.226562 3.367188 -3.8125 3.546875 -3.4375 C 3.734375 -3.070312 3.992188 -2.78125 4.328125 -2.5625 C 4.671875 -2.351562 5.070312 -2.25 5.53125 -2.25 Z M 5.53125 -2.25 "/></g></g></g></g><g fill="#ffffff" fill-opacity="1"><g transform="translate(25.577483, 13.33391)"><g><path d="M 5.515625 0.296875 C 4.785156 0.296875 4.113281 0.164062 3.5 -0.09375 C 2.894531 -0.351562 2.367188 -0.707031 1.921875 -1.15625 C 1.484375 -1.613281 1.140625 -2.144531 0.890625 -2.75 C 0.648438 -3.351562 0.53125 -4 0.53125 -4.6875 C 0.53125 -5.375 0.648438 -6.019531 0.890625 -6.625 C 1.140625 -7.226562 1.484375 -7.757812 1.921875 -8.21875 C 2.367188 -8.675781 2.894531 -9.035156 3.5 -9.296875 C 4.113281 -9.554688 4.789062 -9.6875 5.53125 -9.6875 C 6.269531 -9.6875 6.945312 -9.554688 7.5625 -9.296875 C 8.175781 -9.035156 8.703125 -8.675781 9.140625 -8.21875 C 9.585938 -7.757812 9.929688 -7.226562 10.171875 -6.625 C 10.421875 -6.019531 10.546875 -5.375 10.546875 -4.6875 C 10.546875 -4 10.421875 -3.351562 10.171875 -2.75 C 9.929688 -2.144531 9.585938 -1.613281 9.140625 -1.15625 C 8.691406 -0.695312 8.160156 -0.335938 7.546875 -0.078125 C 6.929688 0.171875 6.253906 0.296875 5.515625 0.296875 Z M 5.546875 -2.265625 C 5.984375 -2.265625 6.367188 -2.367188 6.703125 -2.578125 C 7.035156 -2.785156 7.296875 -3.066406 7.484375 -3.421875 C 7.679688 -3.785156 7.78125 -4.207031 7.78125 -4.6875 C 7.78125 -5.164062 7.679688 -5.585938 7.484375 -5.953125 C 7.296875 -6.316406 7.035156 -6.597656 6.703125 -6.796875 C 6.367188 -7.003906 5.984375 -7.109375 5.546875 -7.109375 C 5.109375 -7.109375 4.71875 -7.003906 4.375 -6.796875 C 4.039062 -6.597656 3.773438 -6.316406 3.578125 -5.953125 C 3.390625 -5.585938 3.296875 -5.164062 3.296875 -4.6875 C 3.296875 -4.207031 3.390625 -3.785156 3.578125 -3.421875 C 3.773438 -3.066406 4.039062 -2.785156 4.375 -2.578125 C 4.71875 -2.367188 5.109375 -2.265625 5.546875 -2.265625 Z M 5.546875 -2.265625 "/></g></g></g><g fill="#ffffff" fill-opacity="1"><g transform="translate(36.106024, 13.33391)"><g><path d="M 3.859375 0 L 1.078125 0 L 1.078125 -9.375 L 3.734375 -9.375 L 3.734375 -8.25 C 3.921875 -8.53125 4.160156 -8.773438 4.453125 -8.984375 C 4.753906 -9.203125 5.09375 -9.375 5.46875 -9.5 C 5.851562 -9.625 6.257812 -9.6875 6.6875 -9.6875 C 7.53125 -9.6875 8.226562 -9.5 8.78125 -9.125 C 9.34375 -8.75 9.757812 -8.210938 10.03125 -7.515625 C 10.300781 -6.828125 10.4375 -6 10.4375 -5.03125 L 10.4375 0 L 7.640625 0 L 7.640625 -4.96875 C 7.640625 -5.488281 7.566406 -5.90625 7.421875 -6.21875 C 7.273438 -6.539062 7.070312 -6.769531 6.8125 -6.90625 C 6.550781 -7.050781 6.242188 -7.125 5.890625 -7.125 C 5.546875 -7.125 5.21875 -7.035156 4.90625 -6.859375 C 4.59375 -6.679688 4.335938 -6.410156 4.140625 -6.046875 C 3.953125 -5.679688 3.859375 -5.21875 3.859375 -4.65625 Z M 3.859375 0 "/></g></g></g><g fill="#ffffff" fill-opacity="1"><g transform="translate(47.033049, 13.33391)"><g><path d="M 7.234375 0 L 5.15625 0 C 4.882812 0 4.597656 -0.0195312 4.296875 -0.0625 C 3.992188 -0.113281 3.703125 -0.207031 3.421875 -0.34375 C 3.140625 -0.488281 2.882812 -0.695312 2.65625 -0.96875 C 2.425781 -1.238281 2.242188 -1.59375 2.109375 -2.03125 C 1.972656 -2.46875 1.90625 -3.007812 1.90625 -3.65625 L 1.90625 -7.015625 L 0.109375 -7.015625 L 0.109375 -9.375 L 1.90625 -9.375 L 1.90625 -12.09375 L 4.703125 -12.109375 L 4.703125 -9.375 L 7.234375 -9.375 L 7.234375 -7.015625 L 4.703125 -7.015625 L 4.703125 -3.53125 C 4.703125 -3.070312 4.800781 -2.75 5 -2.5625 C 5.207031 -2.382812 5.460938 -2.296875 5.765625 -2.296875 L 7.234375 -2.296875 Z M 7.234375 0 "/></g></g></g><g fill="#ffffff" fill-opacity="1"><g transform="translate(54.18356, 13.33391)"><g><path d="M 5.515625 0.296875 C 4.785156 0.296875 4.113281 0.164062 3.5 -0.09375 C 2.894531 -0.351562 2.367188 -0.707031 1.921875 -1.15625 C 1.484375 -1.613281 1.140625 -2.144531 0.890625 -2.75 C 0.648438 -3.351562 0.53125 -4 0.53125 -4.6875 C 0.53125 -5.375 0.648438 -6.019531 0.890625 -6.625 C 1.140625 -7.226562 1.484375 -7.757812 1.921875 -8.21875 C 2.367188 -8.675781 2.894531 -9.035156 3.5 -9.296875 C 4.113281 -9.554688 4.789062 -9.6875 5.53125 -9.6875 C 6.269531 -9.6875 6.945312 -9.554688 7.5625 -9.296875 C 8.175781 -9.035156 8.703125 -8.675781 9.140625 -8.21875 C 9.585938 -7.757812 9.929688 -7.226562 10.171875 -6.625 C 10.421875 -6.019531 10.546875 -5.375 10.546875 -4.6875 C 10.546875 -4 10.421875 -3.351562 10.171875 -2.75 C 9.929688 -2.144531 9.585938 -1.613281 9.140625 -1.15625 C 8.691406 -0.695312 8.160156 -0.335938 7.546875 -0.078125 C 6.929688 0.171875 6.253906 0.296875 5.515625 0.296875 Z M 5.546875 -2.265625 C 5.984375 -2.265625 6.367188 -2.367188 6.703125 -2.578125 C 7.035156 -2.785156 7.296875 -3.066406 7.484375 -3.421875 C 7.679688 -3.785156 7.78125 -4.207031 7.78125 -4.6875 C 7.78125 -5.164062 7.679688 -5.585938 7.484375 -5.953125 C 7.296875 -6.316406 7.035156 -6.597656 6.703125 -6.796875 C 6.367188 -7.003906 5.984375 -7.109375 5.546875 -7.109375 C 5.109375 -7.109375 4.71875 -7.003906 4.375 -6.796875 C 4.039062 -6.597656 3.773438 -6.316406 3.578125 -5.953125 C 3.390625 -5.585938 3.296875 -5.164062 3.296875 -4.6875 C 3.296875 -4.207031 3.390625 -3.785156 3.578125 -3.421875 C 3.773438 -3.066406 4.039062 -2.785156 4.375 -2.578125 C 4.71875 -2.367188 5.109375 -2.265625 5.546875 -2.265625 Z M 5.546875 -2.265625 "/></g></g></g></g></g></svg>