<svg xmlns="http://www.w3.org/2000/svg" xmlns:xlink="http://www.w3.org/1999/xlink" width="200" zoomAndPan="magnify" viewBox="0 0 150 149.999998" height="200" preserveAspectRatio="xMidYMid meet" version="1.0"><defs><g/><clipPath id="fd2fc8d45c"><path d="M 66 61 L 86.964844 61 L 86.964844 73.917969 L 66 73.917969 Z M 66 61 " clip-rule="nonzero"/></clipPath><clipPath id="509e316a20"><path d="M 72 54.417969 L 78 54.417969 L 78 60 L 72 60 Z M 72 54.417969 " clip-rule="nonzero"/></clipPath><clipPath id="63fbca5321"><path d="M 78 54.417969 L 85 54.417969 L 85 58 L 78 58 Z M 78 54.417969 " clip-rule="nonzero"/></clipPath><clipPath id="d64070f409"><path d="M 0.761719 0.558594 L 8 0.558594 L 8 11 L 0.761719 11 Z M 0.761719 0.558594 " clip-rule="nonzero"/></clipPath><clipPath id="d3bf0127f7"><path d="M 8 0.558594 L 18 0.558594 L 18 11 L 8 11 Z M 8 0.558594 " clip-rule="nonzero"/></clipPath><clipPath id="0bd0c834eb"><path d="M 18 0.558594 L 26 0.558594 L 26 11 L 18 11 Z M 18 0.558594 " clip-rule="nonzero"/></clipPath><clipPath id="e32cac325f"><path d="M 26 0.558594 L 35 0.558594 L 35 11 L 26 11 Z M 26 0.558594 " clip-rule="nonzero"/></clipPath><clipPath id="b458311e78"><path d="M 35 0.558594 L 44 0.558594 L 44 11 L 35 11 Z M 35 0.558594 " clip-rule="nonzero"/></clipPath><clipPath id="33e63dedf3"><path d="M 44 0.558594 L 47 0.558594 L 47 11 L 44 11 Z M 44 0.558594 " clip-rule="nonzero"/></clipPath><clipPath id="ff7ac2ec95"><path d="M 47 0.558594 L 56 0.558594 L 56 11 L 47 11 Z M 47 0.558594 " clip-rule="nonzero"/></clipPath><clipPath id="8c73325bf7"><path d="M 56 0.558594 L 67 0.558594 L 67 11 L 56 11 Z M 56 0.558594 " clip-rule="nonzero"/></clipPath><clipPath id="45f5caf96e"><rect x="0" width="68" y="0" height="14"/></clipPath><clipPath id="1e3e41d34e"><path d="M 0.160156 1 L 9 1 L 9 9 L 0.160156 9 Z M 0.160156 1 " clip-rule="nonzero"/></clipPath><clipPath id="3f3651ba6f"><path d="M 48 2 L 50.800781 2 L 50.800781 7 L 48 7 Z M 48 2 " clip-rule="nonzero"/></clipPath><clipPath id="185c06ca1a"><rect x="0" width="51" y="0" height="12"/></clipPath></defs><g clip-path="url(#fd2fc8d45c)"><path fill="#ffffff" d="M 78.257812 72.273438 C 78.28125 72.230469 78.25 72.199219 78.234375 72.171875 C 77.578125 70.914062 76.863281 69.691406 75.984375 68.574219 C 75.234375 67.625 74.40625 66.757812 73.484375 65.980469 C 73.386719 65.894531 73.285156 65.8125 73.191406 65.726562 C 73.101562 65.644531 73.105469 65.601562 73.222656 65.566406 C 73.484375 65.480469 73.753906 65.402344 74.023438 65.320312 C 74.4375 65.191406 74.855469 65.058594 75.253906 64.878906 C 75.515625 64.761719 75.765625 64.621094 75.992188 64.445312 C 76.171875 64.3125 76.175781 64.3125 76.371094 64.429688 C 76.882812 64.734375 77.355469 65.097656 77.800781 65.488281 C 78.855469 66.417969 79.640625 67.542969 80.265625 68.789062 C 80.496094 69.242188 80.683594 69.714844 80.851562 70.195312 C 80.859375 70.222656 80.875 70.246094 80.898438 70.304688 C 80.917969 70.210938 80.890625 70.152344 80.875 70.09375 C 80.625 69.0625 80.316406 68.050781 79.890625 67.078125 C 79.3125 65.757812 78.582031 64.53125 77.613281 63.457031 C 77.554688 63.390625 77.503906 63.324219 77.445312 63.261719 C 77.285156 63.078125 77.285156 63.074219 77.523438 62.980469 C 77.695312 62.914062 77.871094 62.847656 78.042969 62.78125 C 78.265625 62.699219 78.480469 62.601562 78.6875 62.488281 C 78.816406 62.421875 78.9375 62.347656 79.035156 62.242188 C 79.140625 62.132812 79.148438 62.128906 79.261719 62.226562 C 79.492188 62.421875 79.726562 62.613281 79.941406 62.824219 C 80.890625 63.75 81.6875 64.792969 82.28125 65.980469 C 82.296875 66.011719 82.316406 66.042969 82.34375 66.089844 C 82.320312 65.808594 81.679688 64.480469 81.117188 63.527344 C 80.636719 62.714844 80.089844 61.949219 79.460938 61.179688 C 79.664062 61.195312 79.808594 61.238281 79.953125 61.273438 C 80.773438 61.476562 81.574219 61.746094 82.339844 62.113281 C 83.597656 62.714844 84.695312 63.523438 85.550781 64.636719 C 86.367188 65.695312 86.820312 66.902344 86.949219 68.230469 C 87.03125 69.101562 87 69.960938 86.773438 70.808594 C 86.585938 71.507812 86.257812 72.125 85.722656 72.621094 C 85.175781 73.128906 84.535156 73.433594 83.785156 73.503906 C 83.542969 73.527344 83.300781 73.53125 83.054688 73.53125 C 78.738281 73.53125 74.421875 73.53125 70.101562 73.53125 C 69.574219 73.53125 69.058594 73.460938 68.574219 73.234375 C 67.640625 72.800781 66.992188 72.117188 66.769531 71.085938 C 66.710938 70.828125 66.683594 70.566406 66.71875 70.296875 C 66.742188 70.144531 66.8125 70.078125 66.957031 70.039062 C 67.535156 69.878906 68.109375 69.691406 68.667969 69.472656 C 69.722656 69.0625 70.714844 68.542969 71.589844 67.820312 C 71.707031 67.726562 71.820312 67.625 71.921875 67.515625 C 72.023438 67.402344 72.125 67.390625 72.265625 67.441406 C 72.945312 67.691406 73.601562 67.996094 74.226562 68.363281 C 75.144531 68.902344 75.972656 69.558594 76.707031 70.332031 C 77.234375 70.886719 77.707031 71.492188 78.140625 72.125 C 78.175781 72.175781 78.199219 72.238281 78.257812 72.273438 Z M 78.257812 72.273438 " fill-opacity="1" fill-rule="nonzero"/></g><path fill="#ffffff" d="M 65.25 69.183594 C 65.261719 69.980469 65.132812 70.6875 64.894531 71.378906 C 64.882812 71.417969 64.867188 71.460938 64.851562 71.5 C 64.816406 71.570312 64.769531 71.574219 64.714844 71.523438 C 64.605469 71.421875 64.507812 71.304688 64.410156 71.191406 C 63.65625 70.3125 63.214844 69.300781 63.082031 68.152344 C 62.964844 67.140625 63.117188 66.167969 63.511719 65.230469 C 63.632812 64.941406 63.671875 64.933594 63.867188 65.183594 C 64.542969 66.042969 64.960938 67.023438 65.15625 68.097656 C 65.226562 68.480469 65.261719 68.863281 65.25 69.183594 Z M 65.25 69.183594 " fill-opacity="1" fill-rule="nonzero"/><path fill="#ffffff" d="M 68.203125 62.285156 C 68.246094 60.996094 68.65625 59.835938 69.476562 58.832031 C 69.988281 58.207031 70.609375 57.722656 71.308594 57.328125 C 71.414062 57.269531 71.519531 57.207031 71.625 57.152344 C 71.765625 57.085938 71.816406 57.113281 71.800781 57.265625 C 71.773438 57.523438 71.769531 57.78125 71.726562 58.035156 C 71.511719 59.269531 70.992188 60.359375 70.1875 61.316406 C 69.691406 61.90625 69.125 62.414062 68.492188 62.851562 C 68.457031 62.875 68.421875 62.902344 68.386719 62.925781 C 68.3125 62.96875 68.261719 62.949219 68.25 62.863281 C 68.214844 62.671875 68.195312 62.480469 68.203125 62.285156 Z M 68.203125 62.285156 " fill-opacity="1" fill-rule="nonzero"/><path fill="#ffffff" d="M 78.460938 59.832031 C 77.476562 59.820312 76.527344 59.601562 75.613281 59.21875 C 75.515625 59.175781 75.414062 59.136719 75.320312 59.089844 C 75.214844 59.03125 75.207031 58.988281 75.304688 58.917969 C 75.496094 58.777344 75.691406 58.648438 75.902344 58.535156 C 76.667969 58.121094 77.488281 57.902344 78.359375 57.839844 C 79.386719 57.761719 80.367188 57.929688 81.304688 58.355469 C 81.503906 58.445312 81.703125 58.550781 81.882812 58.679688 C 82.003906 58.765625 82.003906 58.804688 81.878906 58.882812 C 81.550781 59.085938 81.203125 59.253906 80.839844 59.390625 C 80.078125 59.683594 79.285156 59.820312 78.460938 59.832031 Z M 78.460938 59.832031 " fill-opacity="1" fill-rule="nonzero"/><g clip-path="url(#509e316a20)"><path fill="#ffffff" d="M 72.851562 59.085938 C 72.855469 59.066406 72.859375 59.039062 72.867188 59.011719 C 73.03125 58.210938 73.335938 57.464844 73.824219 56.804688 C 74.71875 55.589844 75.917969 54.835938 77.378906 54.484375 C 77.390625 54.480469 77.40625 54.476562 77.417969 54.472656 C 77.628906 54.433594 77.660156 54.464844 77.597656 54.660156 C 77.445312 55.171875 77.226562 55.652344 76.957031 56.109375 C 76.664062 56.605469 76.316406 57.0625 75.90625 57.464844 C 75.304688 58.066406 74.605469 58.539062 73.824219 58.882812 C 73.554688 59 73.285156 59.117188 73.003906 59.195312 C 72.882812 59.230469 72.847656 59.203125 72.851562 59.085938 Z M 72.851562 59.085938 " fill-opacity="1" fill-rule="nonzero"/></g><path fill="#ffffff" d="M 67.398438 62.773438 C 67.410156 64.277344 66.886719 65.597656 66 66.789062 C 65.972656 66.824219 65.949219 66.859375 65.917969 66.890625 C 65.847656 66.964844 65.804688 66.960938 65.753906 66.871094 C 65.648438 66.683594 65.550781 66.492188 65.480469 66.289062 C 64.957031 64.738281 65.140625 63.257812 65.917969 61.839844 C 66.167969 61.390625 66.496094 61.003906 66.835938 60.628906 C 66.953125 60.496094 67.007812 60.507812 67.066406 60.6875 C 67.199219 61.085938 67.289062 61.5 67.347656 61.917969 C 67.390625 62.203125 67.402344 62.488281 67.398438 62.773438 Z M 67.398438 62.773438 " fill-opacity="1" fill-rule="nonzero"/><path fill="#ffffff" d="M 68.679688 64.273438 C 68.695312 64.195312 68.761719 64.171875 68.808594 64.132812 C 69.6875 63.460938 70.671875 63.046875 71.769531 62.914062 C 72.695312 62.800781 73.609375 62.867188 74.496094 63.1875 C 74.757812 63.285156 75.007812 63.402344 75.253906 63.539062 C 75.429688 63.640625 75.429688 63.667969 75.253906 63.78125 C 74.480469 64.28125 73.648438 64.632812 72.738281 64.773438 C 71.425781 64.980469 70.140625 64.863281 68.898438 64.394531 C 68.820312 64.363281 68.730469 64.351562 68.679688 64.273438 Z M 68.679688 64.273438 " fill-opacity="1" fill-rule="nonzero"/><g clip-path="url(#63fbca5321)"><path fill="#ffffff" d="M 79.742188 57.171875 C 79.371094 57.1875 78.976562 57.140625 78.578125 57.078125 C 78.515625 57.070312 78.453125 57.058594 78.390625 57.042969 C 78.257812 57.007812 78.238281 56.96875 78.324219 56.871094 C 78.453125 56.71875 78.585938 56.566406 78.730469 56.425781 C 79.484375 55.710938 80.371094 55.238281 81.371094 54.972656 C 82.414062 54.695312 83.460938 54.667969 84.511719 54.949219 C 84.597656 54.96875 84.722656 54.964844 84.746094 55.0625 C 84.769531 55.160156 84.65625 55.214844 84.589844 55.273438 C 83.804688 55.980469 82.921875 56.527344 81.90625 56.847656 C 81.359375 57.019531 80.535156 57.195312 79.742188 57.171875 Z M 79.742188 57.171875 " fill-opacity="1" fill-rule="nonzero"/></g><path fill="#ffffff" d="M 74.457031 60.292969 C 75.886719 60.308594 77.160156 60.769531 78.296875 61.625 C 78.324219 61.648438 78.355469 61.667969 78.378906 61.695312 C 78.421875 61.742188 78.414062 61.789062 78.359375 61.816406 C 78.308594 61.84375 78.257812 61.871094 78.203125 61.890625 C 77.558594 62.140625 76.898438 62.289062 76.203125 62.335938 C 74.804688 62.425781 73.535156 62.039062 72.351562 61.320312 C 72.222656 61.242188 72.09375 61.164062 71.972656 61.078125 C 71.8125 60.972656 71.816406 60.949219 71.992188 60.855469 C 72.316406 60.6875 72.660156 60.570312 73.011719 60.46875 C 73.214844 60.414062 73.417969 60.375 73.621094 60.347656 C 73.898438 60.3125 74.175781 60.277344 74.457031 60.292969 Z M 74.457031 60.292969 " fill-opacity="1" fill-rule="nonzero"/><path fill="#ffffff" d="M 71.671875 65.835938 C 71.777344 65.835938 71.914062 65.835938 72.050781 65.839844 C 72.089844 65.839844 72.140625 65.832031 72.160156 65.882812 C 72.183594 65.929688 72.144531 65.960938 72.117188 65.992188 C 71.898438 66.261719 71.660156 66.507812 71.402344 66.734375 C 70.449219 67.578125 69.34375 68.148438 68.148438 68.554688 C 67.789062 68.675781 67.429688 68.792969 67.0625 68.886719 C 67.027344 68.894531 66.992188 68.90625 66.957031 68.914062 C 66.820312 68.941406 66.78125 68.910156 66.800781 68.773438 C 66.828125 68.582031 66.863281 68.390625 66.90625 68.203125 C 66.976562 67.910156 67.078125 67.628906 67.207031 67.355469 C 67.359375 67.035156 67.605469 66.820312 67.921875 66.675781 C 68.753906 66.292969 69.628906 66.058594 70.53125 65.929688 C 70.898438 65.875 71.269531 65.832031 71.671875 65.835938 Z M 71.671875 65.835938 " fill-opacity="1" fill-rule="nonzero"/><g transform="matrix(1, 0, 0, 1, 41, 76)"><g clip-path="url(#45f5caf96e)"><g clip-path="url(#d64070f409)"><g fill="#ffffff" fill-opacity="1"><g transform="translate(0.878121, 10.483034)"><g><path d="M 1.6875 -1.6875 C 1.6875 -1.363281 1.703125 -1.0625 1.734375 -0.78125 C 1.773438 -0.507812 1.835938 -0.25 1.921875 0 L 0 0 C 0.09375 -0.25 0.15625 -0.507812 0.1875 -0.78125 C 0.21875 -1.0625 0.234375 -1.363281 0.234375 -1.6875 C 0.234375 -1.894531 0.234375 -2.203125 0.234375 -2.609375 C 0.234375 -3.023438 0.234375 -3.488281 0.234375 -4 C 0.234375 -4.507812 0.234375 -5.015625 0.234375 -5.515625 C 0.234375 -6.023438 0.234375 -6.484375 0.234375 -6.890625 C 0.234375 -7.304688 0.234375 -7.625 0.234375 -7.84375 C 0.234375 -8.164062 0.21875 -8.46875 0.1875 -8.75 C 0.15625 -9.03125 0.09375 -9.289062 0 -9.53125 L 6.25 -9.53125 L 6.34375 -8.078125 L 6.234375 -8.078125 C 6.203125 -8.171875 6.125 -8.289062 6 -8.4375 C 5.882812 -8.582031 5.707031 -8.71875 5.46875 -8.84375 C 5.238281 -8.96875 4.9375 -9.03125 4.5625 -9.03125 L 1.6875 -9.03125 L 1.6875 -4.609375 L 3.09375 -4.609375 C 3.46875 -4.609375 3.769531 -4.671875 4 -4.796875 C 4.238281 -4.921875 4.414062 -5.054688 4.53125 -5.203125 C 4.65625 -5.359375 4.734375 -5.476562 4.765625 -5.5625 L 4.875 -5.5625 C 4.875 -5.164062 4.875 -4.765625 4.875 -4.359375 C 4.875 -3.960938 4.875 -3.5625 4.875 -3.15625 L 4.765625 -3.15625 C 4.734375 -3.25 4.65625 -3.367188 4.53125 -3.515625 C 4.414062 -3.671875 4.238281 -3.804688 4 -3.921875 C 3.769531 -4.046875 3.46875 -4.109375 3.09375 -4.109375 L 1.6875 -4.109375 Z M 1.6875 -1.6875 "/></g></g></g></g><g clip-path="url(#d3bf0127f7)"><g fill="#ffffff" fill-opacity="1"><g transform="translate(8.293478, 10.483034)"><g><path d="M 5.203125 -9.53125 L 8.03125 -1.671875 C 8.132812 -1.390625 8.257812 -1.097656 8.40625 -0.796875 C 8.550781 -0.503906 8.691406 -0.238281 8.828125 0 L 6.890625 0 C 6.890625 -0.21875 6.84375 -0.476562 6.75 -0.78125 C 6.664062 -1.09375 6.578125 -1.382812 6.484375 -1.65625 C 6.367188 -1.976562 6.238281 -2.257812 6.09375 -2.5 C 5.945312 -2.75 5.742188 -2.953125 5.484375 -3.109375 C 5.191406 -3.296875 4.859375 -3.421875 4.484375 -3.484375 C 4.109375 -3.546875 3.734375 -3.550781 3.359375 -3.5 C 2.992188 -3.445312 2.660156 -3.332031 2.359375 -3.15625 C 2.066406 -2.976562 1.847656 -2.765625 1.703125 -2.515625 C 1.554688 -2.265625 1.425781 -1.984375 1.3125 -1.671875 C 1.144531 -1.222656 1.265625 -0.664062 1.671875 0 L 0 0 C 0.144531 -0.238281 0.285156 -0.503906 0.421875 -0.796875 C 0.566406 -1.097656 0.6875 -1.390625 0.78125 -1.671875 L 3.625 -9.53125 Z M 5.8125 -3.5 L 3.890625 -8.796875 L 1.96875 -3.5 C 2.34375 -3.726562 2.753906 -3.882812 3.203125 -3.96875 C 3.660156 -4.050781 4.117188 -4.050781 4.578125 -3.96875 C 5.035156 -3.882812 5.445312 -3.726562 5.8125 -3.5 Z M 5.8125 -3.5 "/></g></g></g></g><g clip-path="url(#0bd0c834eb)"><g fill="#ffffff" fill-opacity="1"><g transform="translate(18.172154, 10.483034)"><g><path d="M 7.5 -9.53125 C 7.414062 -9.289062 7.351562 -9.03125 7.3125 -8.75 C 7.28125 -8.46875 7.265625 -8.164062 7.265625 -7.84375 L 7.265625 -3.453125 C 7.265625 -2.785156 7.125 -2.191406 6.84375 -1.671875 C 6.5625 -1.148438 6.160156 -0.738281 5.640625 -0.4375 C 5.117188 -0.144531 4.488281 0 3.75 0 C 3.007812 0 2.375 -0.15625 1.84375 -0.46875 C 1.320312 -0.78125 0.921875 -1.207031 0.640625 -1.75 C 0.367188 -2.300781 0.234375 -2.921875 0.234375 -3.609375 L 0.234375 -7.84375 C 0.234375 -8.164062 0.21875 -8.46875 0.1875 -8.75 C 0.15625 -9.03125 0.09375 -9.289062 0 -9.53125 L 1.921875 -9.53125 C 1.835938 -9.289062 1.773438 -9.03125 1.734375 -8.75 C 1.703125 -8.46875 1.6875 -8.164062 1.6875 -7.84375 L 1.6875 -3.578125 C 1.6875 -3.234375 1.71875 -2.878906 1.78125 -2.515625 C 1.851562 -2.148438 1.972656 -1.816406 2.140625 -1.515625 C 2.304688 -1.210938 2.535156 -0.96875 2.828125 -0.78125 C 3.128906 -0.601562 3.507812 -0.515625 3.96875 -0.515625 C 4.5625 -0.535156 5.066406 -0.671875 5.484375 -0.921875 C 5.898438 -1.179688 6.21875 -1.53125 6.4375 -1.96875 C 6.65625 -2.414062 6.765625 -2.925781 6.765625 -3.5 L 6.765625 -7.265625 C 6.765625 -7.535156 6.738281 -7.816406 6.6875 -8.109375 C 6.644531 -8.398438 6.554688 -8.671875 6.421875 -8.921875 C 6.285156 -9.179688 6.082031 -9.382812 5.8125 -9.53125 Z M 7.5 -9.53125 "/></g></g></g></g><g clip-path="url(#e32cac325f)"><g fill="#ffffff" fill-opacity="1"><g transform="translate(26.704893, 10.483034)"><g><path d="M 6.71875 -6.921875 C 6.695312 -7.441406 6.554688 -7.867188 6.296875 -8.203125 C 6.046875 -8.546875 5.710938 -8.796875 5.296875 -8.953125 C 4.878906 -9.117188 4.414062 -9.203125 3.90625 -9.203125 C 3.695312 -9.203125 3.460938 -9.171875 3.203125 -9.109375 C 2.953125 -9.046875 2.71875 -8.941406 2.5 -8.796875 C 2.28125 -8.660156 2.113281 -8.46875 2 -8.21875 C 1.894531 -7.925781 1.890625 -7.617188 1.984375 -7.296875 C 2.085938 -6.972656 2.320312 -6.726562 2.6875 -6.5625 C 3.050781 -6.40625 3.453125 -6.253906 3.890625 -6.109375 C 4.335938 -5.972656 4.78125 -5.820312 5.21875 -5.65625 C 5.65625 -5.5 6.050781 -5.300781 6.40625 -5.0625 C 6.8125 -4.78125 7.113281 -4.445312 7.3125 -4.0625 C 7.507812 -3.6875 7.601562 -3.296875 7.59375 -2.890625 C 7.59375 -2.484375 7.492188 -2.085938 7.296875 -1.703125 C 7.109375 -1.316406 6.820312 -0.972656 6.4375 -0.671875 C 6.0625 -0.378906 5.632812 -0.164062 5.15625 -0.03125 C 4.6875 0.101562 4.210938 0.171875 3.734375 0.171875 C 3.398438 0.171875 3.03125 0.125 2.625 0.03125 C 2.226562 -0.0625 1.835938 -0.195312 1.453125 -0.375 C 1.078125 -0.550781 0.742188 -0.757812 0.453125 -1 C 0.398438 -1.039062 0.332031 -1.082031 0.25 -1.125 C 0.175781 -1.175781 0.09375 -1.191406 0 -1.171875 L 0.25 -4.171875 L 0.375 -4.171875 C 0.375 -3.691406 0.398438 -3.265625 0.453125 -2.890625 C 0.515625 -2.515625 0.640625 -2.164062 0.828125 -1.84375 C 1.023438 -1.53125 1.332031 -1.226562 1.75 -0.9375 C 2.050781 -0.726562 2.375 -0.578125 2.71875 -0.484375 C 3.0625 -0.390625 3.414062 -0.34375 3.78125 -0.34375 C 4.257812 -0.34375 4.671875 -0.4375 5.015625 -0.625 C 5.359375 -0.820312 5.617188 -1.082031 5.796875 -1.40625 C 5.984375 -1.738281 6.078125 -2.09375 6.078125 -2.46875 C 6.078125 -2.8125 5.992188 -3.101562 5.828125 -3.34375 C 5.660156 -3.582031 5.445312 -3.785156 5.1875 -3.953125 C 4.925781 -4.117188 4.65625 -4.257812 4.375 -4.375 C 3.90625 -4.5625 3.425781 -4.722656 2.9375 -4.859375 C 2.445312 -4.992188 1.988281 -5.175781 1.5625 -5.40625 C 1.226562 -5.59375 0.960938 -5.832031 0.765625 -6.125 C 0.578125 -6.425781 0.457031 -6.742188 0.40625 -7.078125 C 0.363281 -7.421875 0.40625 -7.753906 0.53125 -8.078125 C 0.65625 -8.410156 0.867188 -8.703125 1.171875 -8.953125 C 1.492188 -9.222656 1.875 -9.414062 2.3125 -9.53125 C 2.757812 -9.644531 3.203125 -9.703125 3.640625 -9.703125 C 4.742188 -9.703125 5.671875 -9.429688 6.421875 -8.890625 C 6.492188 -8.835938 6.5625 -8.789062 6.625 -8.75 C 6.695312 -8.71875 6.765625 -8.71875 6.828125 -8.75 L 6.828125 -6.921875 Z M 6.71875 -6.921875 "/></g></g></g></g><g clip-path="url(#b458311e78)"><g fill="#ffffff" fill-opacity="1"><g transform="translate(35.364609, 10.483034)"><g><path d="M 4.578125 -1.6875 C 4.578125 -1.363281 4.59375 -1.0625 4.625 -0.78125 C 4.65625 -0.507812 4.710938 -0.25 4.796875 0 L 2.890625 0 C 2.972656 -0.25 3.03125 -0.507812 3.0625 -0.78125 C 3.09375 -1.0625 3.109375 -1.363281 3.109375 -1.6875 C 3.109375 -2.90625 3.109375 -4.125 3.109375 -5.34375 C 3.109375 -6.570312 3.109375 -7.800781 3.109375 -9.03125 L 1.78125 -9.03125 C 1.40625 -9.03125 1.097656 -8.96875 0.859375 -8.84375 C 0.628906 -8.71875 0.457031 -8.582031 0.34375 -8.4375 C 0.226562 -8.289062 0.148438 -8.171875 0.109375 -8.078125 L 0 -8.078125 L 0.09375 -9.53125 L 7.609375 -9.53125 L 7.703125 -8.078125 L 7.578125 -8.078125 C 7.546875 -8.171875 7.46875 -8.289062 7.34375 -8.4375 C 7.226562 -8.582031 7.054688 -8.71875 6.828125 -8.84375 C 6.597656 -8.96875 6.289062 -9.03125 5.90625 -9.03125 L 4.578125 -9.03125 C 4.578125 -7.800781 4.578125 -6.570312 4.578125 -5.34375 C 4.578125 -4.125 4.578125 -2.90625 4.578125 -1.6875 Z M 4.578125 -1.6875 "/></g></g></g></g><g clip-path="url(#33e63dedf3)"><g fill="#ffffff" fill-opacity="1"><g transform="translate(44.125903, 10.483034)"><g><path d="M 0.234375 -7.84375 C 0.234375 -8.164062 0.21875 -8.46875 0.1875 -8.75 C 0.15625 -9.03125 0.09375 -9.289062 0 -9.53125 L 1.921875 -9.53125 C 1.835938 -9.289062 1.773438 -9.03125 1.734375 -8.75 C 1.703125 -8.46875 1.6875 -8.164062 1.6875 -7.84375 C 1.6875 -7.625 1.6875 -7.304688 1.6875 -6.890625 C 1.6875 -6.484375 1.6875 -6.023438 1.6875 -5.515625 C 1.6875 -5.015625 1.6875 -4.507812 1.6875 -4 C 1.6875 -3.488281 1.6875 -3.023438 1.6875 -2.609375 C 1.6875 -2.203125 1.6875 -1.894531 1.6875 -1.6875 C 1.6875 -1.363281 1.703125 -1.0625 1.734375 -0.78125 C 1.773438 -0.507812 1.835938 -0.25 1.921875 0 L 0 0 C 0.09375 -0.25 0.15625 -0.507812 0.1875 -0.78125 C 0.21875 -1.0625 0.234375 -1.363281 0.234375 -1.6875 Z M 0.234375 -7.84375 "/></g></g></g></g><g clip-path="url(#ff7ac2ec95)"><g fill="#ffffff" fill-opacity="1"><g transform="translate(47.135213, 10.483034)"><g><path d="M 6.28125 -9.53125 L 7.96875 -9.53125 C 7.882812 -9.289062 7.820312 -9.03125 7.78125 -8.75 C 7.75 -8.46875 7.734375 -8.164062 7.734375 -7.84375 L 7.734375 0 L 7.078125 0 L 0.71875 -8.546875 L 0.71875 -2.28125 C 0.71875 -2.007812 0.742188 -1.722656 0.796875 -1.421875 C 0.847656 -1.128906 0.941406 -0.859375 1.078125 -0.609375 C 1.222656 -0.359375 1.421875 -0.15625 1.671875 0 L 0 0 C 0.09375 -0.25 0.15625 -0.507812 0.1875 -0.78125 C 0.21875 -1.0625 0.234375 -1.363281 0.234375 -1.6875 L 0.234375 -9.21875 L 0 -9.53125 C 0.300781 -9.53125 0.601562 -9.53125 0.90625 -9.53125 C 1.21875 -9.53125 1.523438 -9.53125 1.828125 -9.53125 L 7.234375 -2.234375 L 7.234375 -7.25 C 7.234375 -7.519531 7.207031 -7.800781 7.15625 -8.09375 C 7.113281 -8.394531 7.023438 -8.671875 6.890625 -8.921875 C 6.753906 -9.179688 6.550781 -9.382812 6.28125 -9.53125 Z M 6.28125 -9.53125 "/></g></g></g></g><g clip-path="url(#8c73325bf7)"><g fill="#ffffff" fill-opacity="1"><g transform="translate(56.16316, 10.483034)"><g><path d="M 4.9375 -9.703125 C 5.625 -9.703125 6.265625 -9.570312 6.859375 -9.3125 C 7.460938 -9.0625 7.988281 -8.707031 8.4375 -8.25 C 8.894531 -7.800781 9.25 -7.28125 9.5 -6.6875 C 9.757812 -6.09375 9.890625 -5.453125 9.890625 -4.765625 C 9.890625 -4.078125 9.757812 -3.429688 9.5 -2.828125 C 9.25 -2.234375 8.894531 -1.707031 8.4375 -1.25 C 7.988281 -0.800781 7.460938 -0.453125 6.859375 -0.203125 C 6.265625 0.046875 5.625 0.171875 4.9375 0.171875 C 4.25 0.171875 3.609375 0.046875 3.015625 -0.203125 C 2.421875 -0.453125 1.894531 -0.800781 1.4375 -1.25 C 0.988281 -1.707031 0.632812 -2.234375 0.375 -2.828125 C 0.125 -3.429688 0 -4.078125 0 -4.765625 C 0 -5.453125 0.125 -6.09375 0.375 -6.6875 C 0.632812 -7.28125 0.988281 -7.800781 1.4375 -8.25 C 1.894531 -8.707031 2.421875 -9.0625 3.015625 -9.3125 C 3.609375 -9.570312 4.25 -9.703125 4.9375 -9.703125 Z M 7.078125 -0.890625 C 7.492188 -1.117188 7.828125 -1.429688 8.078125 -1.828125 C 8.328125 -2.222656 8.488281 -2.675781 8.5625 -3.1875 C 8.644531 -3.695312 8.632812 -4.226562 8.53125 -4.78125 C 8.4375 -5.332031 8.238281 -5.878906 7.9375 -6.421875 C 7.644531 -6.953125 7.289062 -7.40625 6.875 -7.78125 C 6.457031 -8.164062 6.015625 -8.460938 5.546875 -8.671875 C 5.078125 -8.878906 4.609375 -8.984375 4.140625 -8.984375 C 3.671875 -8.992188 3.226562 -8.882812 2.8125 -8.65625 C 2.394531 -8.425781 2.0625 -8.109375 1.8125 -7.703125 C 1.5625 -7.296875 1.394531 -6.84375 1.3125 -6.34375 C 1.226562 -5.84375 1.238281 -5.3125 1.34375 -4.75 C 1.445312 -4.195312 1.644531 -3.65625 1.9375 -3.125 C 2.238281 -2.59375 2.59375 -2.132812 3 -1.75 C 3.414062 -1.363281 3.859375 -1.066406 4.328125 -0.859375 C 4.796875 -0.648438 5.265625 -0.546875 5.734375 -0.546875 C 6.210938 -0.546875 6.660156 -0.660156 7.078125 -0.890625 Z M 7.078125 -0.890625 "/></g></g></g></g></g></g><g transform="matrix(1, 0, 0, 1, 50, 86)"><g clip-path="url(#185c06ca1a)"><g clip-path="url(#1e3e41d34e)"><g fill="#ffffff" fill-opacity="1"><g transform="translate(0.344942, 6.73566)"><g><path d="M 8.203125 -4.515625 L 8.203125 -4.484375 C 8.191406 -4.410156 8.148438 -4.375 8.078125 -4.375 C 8.023438 -4.382812 8 -4.425781 8 -4.5 L 8 -4.515625 C 8 -4.515625 8 -4.519531 8 -4.53125 C 8 -4.550781 8 -4.578125 8 -4.609375 C 8 -4.648438 7.984375 -4.703125 7.953125 -4.765625 C 7.929688 -4.835938 7.875 -4.890625 7.78125 -4.921875 C 7.675781 -4.960938 7.570312 -4.984375 7.46875 -4.984375 C 7.375 -4.984375 7.289062 -4.972656 7.21875 -4.953125 C 7.15625 -4.941406 7.125 -4.9375 7.125 -4.9375 C 7.0625 -4.914062 6.992188 -4.882812 6.921875 -4.84375 C 6.847656 -4.8125 6.765625 -4.769531 6.671875 -4.71875 L 6.734375 -4.625 C 6.828125 -4.488281 6.898438 -4.335938 6.953125 -4.171875 C 7.003906 -4.015625 7.03125 -3.835938 7.03125 -3.640625 C 7.03125 -3.472656 7.007812 -3.296875 6.96875 -3.109375 C 6.925781 -2.929688 6.859375 -2.742188 6.765625 -2.546875 C 6.617188 -2.222656 6.445312 -1.941406 6.25 -1.703125 C 6.0625 -1.460938 5.863281 -1.265625 5.65625 -1.109375 C 5.457031 -0.953125 5.265625 -0.820312 5.078125 -0.71875 C 4.890625 -0.625 4.71875 -0.550781 4.5625 -0.5 C 4.40625 -0.445312 4.28125 -0.410156 4.1875 -0.390625 C 4.101562 -0.378906 4.054688 -0.375 4.046875 -0.375 C 4.003906 -0.375 3.984375 -0.394531 3.984375 -0.4375 C 3.984375 -0.46875 4 -0.488281 4.03125 -0.5 C 4.039062 -0.5 4.097656 -0.515625 4.203125 -0.546875 C 4.316406 -0.578125 4.457031 -0.632812 4.625 -0.71875 C 4.800781 -0.800781 4.992188 -0.914062 5.203125 -1.0625 C 5.410156 -1.21875 5.613281 -1.414062 5.8125 -1.65625 C 6.019531 -1.90625 6.203125 -2.207031 6.359375 -2.5625 C 6.441406 -2.75 6.515625 -2.945312 6.578125 -3.15625 C 6.640625 -3.363281 6.671875 -3.570312 6.671875 -3.78125 C 6.671875 -3.914062 6.648438 -4.046875 6.609375 -4.171875 C 6.578125 -4.304688 6.53125 -4.4375 6.46875 -4.5625 C 6.15625 -4.320312 5.875 -4.035156 5.625 -3.703125 C 5.382812 -3.378906 5.164062 -3.050781 4.96875 -2.71875 C 4.90625 -2.625 4.84375 -2.523438 4.78125 -2.421875 C 4.726562 -2.328125 4.675781 -2.226562 4.625 -2.125 C 4.320312 -1.59375 4.050781 -1.140625 3.8125 -0.765625 C 3.582031 -0.390625 3.375 -0.078125 3.1875 0.171875 C 3 0.429688 2.828125 0.632812 2.671875 0.78125 C 2.515625 0.9375 2.367188 1.050781 2.234375 1.125 C 2.097656 1.207031 1.960938 1.265625 1.828125 1.296875 C 1.722656 1.316406 1.625 1.328125 1.53125 1.328125 C 1.34375 1.328125 1.195312 1.300781 1.09375 1.25 C 1 1.195312 0.925781 1.132812 0.875 1.0625 C 0.832031 0.988281 0.804688 0.921875 0.796875 0.859375 C 0.785156 0.804688 0.78125 0.769531 0.78125 0.75 C 0.78125 0.726562 0.789062 0.710938 0.8125 0.703125 C 0.832031 0.691406 0.84375 0.6875 0.84375 0.6875 C 0.882812 0.6875 0.90625 0.707031 0.90625 0.75 C 0.90625 0.78125 0.914062 0.820312 0.9375 0.875 C 0.96875 0.9375 1.003906 0.992188 1.046875 1.046875 C 1.097656 1.097656 1.140625 1.125 1.171875 1.125 C 1.191406 1.125 1.222656 1.128906 1.265625 1.140625 C 1.316406 1.160156 1.378906 1.171875 1.453125 1.171875 C 1.472656 1.171875 1.5 1.164062 1.53125 1.15625 C 1.570312 1.15625 1.609375 1.148438 1.640625 1.140625 C 1.742188 1.117188 1.847656 1.066406 1.953125 0.984375 C 2.066406 0.910156 2.195312 0.789062 2.34375 0.625 C 2.488281 0.457031 2.65625 0.238281 2.84375 -0.03125 C 3.039062 -0.3125 3.265625 -0.660156 3.515625 -1.078125 C 3.554688 -1.140625 3.609375 -1.226562 3.671875 -1.34375 C 3.742188 -1.457031 3.816406 -1.578125 3.890625 -1.703125 C 3.960938 -1.835938 4.035156 -1.96875 4.109375 -2.09375 C 4.179688 -2.21875 4.242188 -2.320312 4.296875 -2.40625 C 4.347656 -2.488281 4.378906 -2.539062 4.390625 -2.5625 C 4.398438 -2.582031 4.441406 -2.65625 4.515625 -2.78125 C 4.585938 -2.90625 4.679688 -3.054688 4.796875 -3.234375 C 4.921875 -3.410156 5.066406 -3.597656 5.234375 -3.796875 C 5.398438 -4.003906 5.582031 -4.191406 5.78125 -4.359375 C 5.957031 -4.515625 6.132812 -4.644531 6.3125 -4.75 C 6.15625 -4.90625 5.953125 -5.023438 5.703125 -5.109375 C 5.460938 -5.191406 5.207031 -5.234375 4.9375 -5.234375 C 4.582031 -5.234375 4.25 -5.1875 3.9375 -5.09375 C 3.625 -5 3.332031 -4.878906 3.0625 -4.734375 C 2.789062 -4.585938 2.546875 -4.425781 2.328125 -4.25 C 2.109375 -4.070312 1.914062 -3.890625 1.75 -3.703125 C 1.582031 -3.523438 1.441406 -3.359375 1.328125 -3.203125 C 1.191406 -3.003906 1.070312 -2.816406 0.96875 -2.640625 C 0.875 -2.472656 0.800781 -2.335938 0.75 -2.234375 C 0.695312 -2.140625 0.671875 -2.09375 0.671875 -2.09375 L 0.53125 -1.71875 C 0.519531 -1.695312 0.507812 -1.671875 0.5 -1.640625 C 0.5 -1.617188 0.492188 -1.597656 0.484375 -1.578125 C 0.421875 -1.359375 0.390625 -1.148438 0.390625 -0.953125 C 0.390625 -0.867188 0.394531 -0.785156 0.40625 -0.703125 C 0.425781 -0.617188 0.453125 -0.539062 0.484375 -0.46875 C 0.503906 -0.425781 0.535156 -0.382812 0.578125 -0.34375 C 0.628906 -0.300781 0.6875 -0.265625 0.75 -0.234375 C 0.78125 -0.234375 0.8125 -0.226562 0.84375 -0.21875 C 0.875 -0.21875 0.90625 -0.21875 0.9375 -0.21875 C 1.09375 -0.21875 1.242188 -0.253906 1.390625 -0.328125 C 1.535156 -0.398438 1.675781 -0.5 1.8125 -0.625 C 2.007812 -0.800781 2.179688 -1.003906 2.328125 -1.234375 C 2.484375 -1.472656 2.601562 -1.703125 2.6875 -1.921875 C 2.738281 -2.046875 2.773438 -2.164062 2.796875 -2.28125 C 2.816406 -2.394531 2.832031 -2.488281 2.84375 -2.5625 C 2.851562 -2.632812 2.859375 -2.671875 2.859375 -2.671875 L 2.859375 -2.703125 C 2.859375 -2.742188 2.867188 -2.78125 2.890625 -2.8125 C 2.921875 -2.84375 2.960938 -2.859375 3.015625 -2.859375 C 3.085938 -2.847656 3.125 -2.796875 3.125 -2.703125 L 3.125 -2.671875 C 3.125 -2.660156 3.117188 -2.644531 3.109375 -2.625 C 3.085938 -2.507812 3.054688 -2.394531 3.015625 -2.28125 C 2.972656 -2.164062 2.925781 -2.0625 2.875 -1.96875 C 2.832031 -1.875 2.796875 -1.796875 2.765625 -1.734375 C 2.742188 -1.679688 2.734375 -1.65625 2.734375 -1.65625 C 2.628906 -1.445312 2.507812 -1.242188 2.375 -1.046875 C 2.238281 -0.847656 2.082031 -0.671875 1.90625 -0.515625 C 1.738281 -0.367188 1.566406 -0.253906 1.390625 -0.171875 C 1.210938 -0.0859375 1.035156 -0.046875 0.859375 -0.046875 C 0.835938 -0.046875 0.816406 -0.046875 0.796875 -0.046875 C 0.773438 -0.046875 0.753906 -0.046875 0.734375 -0.046875 C 0.441406 -0.0664062 0.238281 -0.1875 0.125 -0.40625 C 0.0507812 -0.570312 0.0078125 -0.769531 0 -1 C 0 -1 0 -1.003906 0 -1.015625 C 0 -1.023438 0 -1.039062 0 -1.0625 C 0 -1.125 0.00390625 -1.226562 0.015625 -1.375 C 0.0351562 -1.519531 0.078125 -1.695312 0.140625 -1.90625 C 0.203125 -2.113281 0.296875 -2.34375 0.421875 -2.59375 C 0.546875 -2.851562 0.71875 -3.125 0.9375 -3.40625 C 0.945312 -3.425781 0.992188 -3.488281 1.078125 -3.59375 C 1.160156 -3.695312 1.273438 -3.820312 1.421875 -3.96875 C 1.578125 -4.125 1.765625 -4.28125 1.984375 -4.4375 C 2.203125 -4.601562 2.453125 -4.757812 2.734375 -4.90625 C 3.015625 -5.050781 3.328125 -5.164062 3.671875 -5.25 C 4.015625 -5.34375 4.390625 -5.390625 4.796875 -5.390625 C 4.921875 -5.390625 5.039062 -5.382812 5.15625 -5.375 C 5.507812 -5.351562 5.789062 -5.296875 6 -5.203125 C 6.21875 -5.117188 6.394531 -5.007812 6.53125 -4.875 C 6.75 -4.976562 6.929688 -5.046875 7.078125 -5.078125 C 7.234375 -5.109375 7.332031 -5.125 7.375 -5.125 L 7.4375 -5.125 C 7.582031 -5.125 7.703125 -5.101562 7.796875 -5.0625 C 7.898438 -5.03125 7.988281 -4.976562 8.0625 -4.90625 C 8.113281 -4.851562 8.148438 -4.789062 8.171875 -4.71875 C 8.191406 -4.65625 8.203125 -4.585938 8.203125 -4.515625 Z M 8.203125 -4.515625 "/></g></g></g></g><g fill="#ffffff" fill-opacity="1"><g transform="translate(6.913476, 6.73566)"><g><path d="M 3.171875 -1.3125 C 3.191406 -1.300781 3.203125 -1.28125 3.203125 -1.25 C 3.203125 -1.238281 3.195312 -1.226562 3.1875 -1.21875 C 3.082031 -1.019531 2.960938 -0.828125 2.828125 -0.640625 C 2.703125 -0.453125 2.566406 -0.296875 2.421875 -0.171875 C 2.273438 -0.0546875 2.113281 0 1.9375 0 C 1.757812 0 1.617188 -0.0390625 1.515625 -0.125 C 1.410156 -0.21875 1.359375 -0.34375 1.359375 -0.5 C 1.359375 -0.519531 1.359375 -0.535156 1.359375 -0.546875 C 1.359375 -0.566406 1.363281 -0.582031 1.375 -0.59375 C 1.238281 -0.40625 1.097656 -0.257812 0.953125 -0.15625 C 0.804688 -0.0507812 0.664062 0 0.53125 0 L 0.515625 0 C 0.390625 0 0.285156 -0.0234375 0.203125 -0.078125 C 0.128906 -0.140625 0.078125 -0.210938 0.046875 -0.296875 C 0.015625 -0.390625 0 -0.488281 0 -0.59375 C 0 -0.613281 0 -0.628906 0 -0.640625 C 0 -0.660156 0 -0.679688 0 -0.703125 C 0.0195312 -0.859375 0.0625 -1.019531 0.125 -1.1875 C 0.195312 -1.363281 0.285156 -1.535156 0.390625 -1.703125 C 0.546875 -1.960938 0.695312 -2.164062 0.84375 -2.3125 C 1 -2.457031 1.140625 -2.5625 1.265625 -2.625 C 1.398438 -2.6875 1.523438 -2.71875 1.640625 -2.71875 C 1.679688 -2.71875 1.722656 -2.710938 1.765625 -2.703125 C 1.804688 -2.691406 1.84375 -2.679688 1.875 -2.671875 C 1.945312 -2.640625 2 -2.585938 2.03125 -2.515625 C 2.070312 -2.453125 2.09375 -2.378906 2.09375 -2.296875 C 2.09375 -2.265625 2.085938 -2.226562 2.078125 -2.1875 C 2.078125 -2.15625 2.070312 -2.117188 2.0625 -2.078125 L 2.390625 -2.671875 L 2.84375 -2.671875 L 2.078125 -1.3125 C 1.960938 -1.113281 1.878906 -0.945312 1.828125 -0.8125 C 1.773438 -0.6875 1.738281 -0.578125 1.71875 -0.484375 C 1.71875 -0.484375 1.71875 -0.476562 1.71875 -0.46875 C 1.71875 -0.457031 1.71875 -0.445312 1.71875 -0.4375 C 1.71875 -0.382812 1.734375 -0.328125 1.765625 -0.265625 C 1.796875 -0.210938 1.847656 -0.179688 1.921875 -0.171875 C 1.929688 -0.160156 1.941406 -0.15625 1.953125 -0.15625 C 1.960938 -0.15625 1.972656 -0.15625 1.984375 -0.15625 C 2.046875 -0.15625 2.113281 -0.171875 2.1875 -0.203125 C 2.269531 -0.242188 2.351562 -0.304688 2.4375 -0.390625 C 2.550781 -0.492188 2.660156 -0.625 2.765625 -0.78125 C 2.867188 -0.9375 2.96875 -1.101562 3.0625 -1.28125 C 3.082031 -1.3125 3.101562 -1.328125 3.125 -1.328125 C 3.132812 -1.328125 3.148438 -1.320312 3.171875 -1.3125 Z M 0.90625 -0.296875 C 1.101562 -0.453125 1.304688 -0.707031 1.515625 -1.0625 C 1.546875 -1.125 1.582031 -1.203125 1.625 -1.296875 C 1.675781 -1.398438 1.722656 -1.507812 1.765625 -1.625 C 1.816406 -1.738281 1.859375 -1.851562 1.890625 -1.96875 C 1.921875 -2.082031 1.9375 -2.179688 1.9375 -2.265625 C 1.9375 -2.328125 1.925781 -2.378906 1.90625 -2.421875 C 1.894531 -2.472656 1.867188 -2.507812 1.828125 -2.53125 C 1.804688 -2.550781 1.773438 -2.5625 1.734375 -2.5625 C 1.648438 -2.5625 1.554688 -2.515625 1.453125 -2.421875 C 1.347656 -2.335938 1.238281 -2.222656 1.125 -2.078125 C 1.007812 -1.941406 0.90625 -1.796875 0.8125 -1.640625 C 0.71875 -1.472656 0.632812 -1.304688 0.5625 -1.140625 C 0.488281 -0.984375 0.441406 -0.832031 0.421875 -0.6875 C 0.410156 -0.632812 0.40625 -0.578125 0.40625 -0.515625 C 0.40625 -0.410156 0.425781 -0.332031 0.46875 -0.28125 C 0.507812 -0.226562 0.566406 -0.203125 0.640625 -0.203125 C 0.710938 -0.203125 0.800781 -0.234375 0.90625 -0.296875 Z M 0.90625 -0.296875 "/></g></g></g><g fill="#ffffff" fill-opacity="1"><g transform="translate(9.768896, 6.73566)"><g><path d="M 3.15625 -1.3125 C 3.1875 -1.300781 3.203125 -1.28125 3.203125 -1.25 C 3.203125 -1.238281 3.195312 -1.226562 3.1875 -1.21875 C 3.101562 -1.070312 3.015625 -0.925781 2.921875 -0.78125 C 2.828125 -0.632812 2.726562 -0.503906 2.625 -0.390625 C 2.53125 -0.273438 2.425781 -0.179688 2.3125 -0.109375 C 2.195312 -0.0351562 2.070312 0 1.9375 0 C 1.769531 0 1.628906 -0.0390625 1.515625 -0.125 C 1.410156 -0.21875 1.359375 -0.351562 1.359375 -0.53125 C 1.359375 -0.539062 1.359375 -0.550781 1.359375 -0.5625 C 1.367188 -0.582031 1.375 -0.597656 1.375 -0.609375 C 1.238281 -0.421875 1.097656 -0.269531 0.953125 -0.15625 C 0.816406 -0.0507812 0.675781 0 0.53125 0 L 0.515625 0 C 0.390625 0 0.285156 -0.0234375 0.203125 -0.078125 C 0.128906 -0.140625 0.078125 -0.210938 0.046875 -0.296875 C 0.015625 -0.390625 0 -0.488281 0 -0.59375 C 0 -0.613281 0 -0.632812 0 -0.65625 C 0 -0.675781 0 -0.691406 0 -0.703125 C 0.0195312 -0.859375 0.0625 -1.019531 0.125 -1.1875 C 0.195312 -1.363281 0.285156 -1.535156 0.390625 -1.703125 C 0.546875 -1.960938 0.695312 -2.164062 0.84375 -2.3125 C 0.988281 -2.457031 1.128906 -2.5625 1.265625 -2.625 C 1.398438 -2.6875 1.519531 -2.71875 1.625 -2.71875 C 1.675781 -2.71875 1.722656 -2.710938 1.765625 -2.703125 C 1.804688 -2.691406 1.84375 -2.679688 1.875 -2.671875 C 1.945312 -2.640625 2 -2.585938 2.03125 -2.515625 C 2.0625 -2.453125 2.078125 -2.375 2.078125 -2.28125 C 2.078125 -2.21875 2.070312 -2.15625 2.0625 -2.09375 L 3.15625 -4.015625 L 3.609375 -4.015625 L 2 -1.1875 C 1.914062 -1.03125 1.84375 -0.894531 1.78125 -0.78125 C 1.726562 -0.664062 1.703125 -0.550781 1.703125 -0.4375 C 1.703125 -0.382812 1.71875 -0.328125 1.75 -0.265625 C 1.78125 -0.210938 1.835938 -0.179688 1.921875 -0.171875 C 1.929688 -0.171875 1.953125 -0.171875 1.984375 -0.171875 C 2.035156 -0.171875 2.097656 -0.1875 2.171875 -0.21875 C 2.253906 -0.25 2.34375 -0.3125 2.4375 -0.40625 C 2.550781 -0.5 2.660156 -0.625 2.765625 -0.78125 C 2.867188 -0.9375 2.96875 -1.109375 3.0625 -1.296875 C 3.070312 -1.316406 3.09375 -1.328125 3.125 -1.328125 C 3.144531 -1.328125 3.15625 -1.320312 3.15625 -1.3125 Z M 0.90625 -0.3125 C 1.007812 -0.382812 1.109375 -0.484375 1.203125 -0.609375 C 1.304688 -0.742188 1.410156 -0.898438 1.515625 -1.078125 C 1.523438 -1.109375 1.539062 -1.140625 1.5625 -1.171875 C 1.582031 -1.203125 1.597656 -1.238281 1.609375 -1.28125 L 1.640625 -1.328125 C 1.734375 -1.503906 1.804688 -1.675781 1.859375 -1.84375 C 1.910156 -2.007812 1.9375 -2.15625 1.9375 -2.28125 C 1.9375 -2.40625 1.898438 -2.488281 1.828125 -2.53125 C 1.796875 -2.550781 1.765625 -2.5625 1.734375 -2.5625 C 1.648438 -2.5625 1.550781 -2.515625 1.4375 -2.421875 C 1.332031 -2.335938 1.222656 -2.222656 1.109375 -2.078125 C 1.003906 -1.941406 0.90625 -1.796875 0.8125 -1.640625 C 0.71875 -1.472656 0.632812 -1.304688 0.5625 -1.140625 C 0.488281 -0.984375 0.441406 -0.832031 0.421875 -0.6875 C 0.421875 -0.664062 0.421875 -0.640625 0.421875 -0.609375 C 0.421875 -0.585938 0.421875 -0.5625 0.421875 -0.53125 C 0.421875 -0.425781 0.4375 -0.34375 0.46875 -0.28125 C 0.507812 -0.226562 0.566406 -0.203125 0.640625 -0.203125 C 0.722656 -0.203125 0.8125 -0.238281 0.90625 -0.3125 Z M 0.90625 -0.3125 "/></g></g></g><g fill="#ffffff" fill-opacity="1"><g transform="translate(12.61899, 6.73566)"><g><path d="M 3.171875 -1.3125 C 3.191406 -1.300781 3.203125 -1.28125 3.203125 -1.25 C 3.203125 -1.238281 3.195312 -1.226562 3.1875 -1.21875 C 3.082031 -1.019531 2.960938 -0.828125 2.828125 -0.640625 C 2.703125 -0.453125 2.566406 -0.296875 2.421875 -0.171875 C 2.273438 -0.0546875 2.113281 0 1.9375 0 C 1.757812 0 1.617188 -0.0390625 1.515625 -0.125 C 1.410156 -0.21875 1.359375 -0.34375 1.359375 -0.5 C 1.359375 -0.519531 1.359375 -0.535156 1.359375 -0.546875 C 1.359375 -0.566406 1.363281 -0.582031 1.375 -0.59375 C 1.238281 -0.40625 1.097656 -0.257812 0.953125 -0.15625 C 0.804688 -0.0507812 0.664062 0 0.53125 0 L 0.515625 0 C 0.390625 0 0.285156 -0.0234375 0.203125 -0.078125 C 0.128906 -0.140625 0.078125 -0.210938 0.046875 -0.296875 C 0.015625 -0.390625 0 -0.488281 0 -0.59375 C 0 -0.613281 0 -0.628906 0 -0.640625 C 0 -0.660156 0 -0.679688 0 -0.703125 C 0.0195312 -0.859375 0.0625 -1.019531 0.125 -1.1875 C 0.195312 -1.363281 0.285156 -1.535156 0.390625 -1.703125 C 0.546875 -1.960938 0.695312 -2.164062 0.84375 -2.3125 C 1 -2.457031 1.140625 -2.5625 1.265625 -2.625 C 1.398438 -2.6875 1.523438 -2.71875 1.640625 -2.71875 C 1.679688 -2.71875 1.722656 -2.710938 1.765625 -2.703125 C 1.804688 -2.691406 1.84375 -2.679688 1.875 -2.671875 C 1.945312 -2.640625 2 -2.585938 2.03125 -2.515625 C 2.070312 -2.453125 2.09375 -2.378906 2.09375 -2.296875 C 2.09375 -2.265625 2.085938 -2.226562 2.078125 -2.1875 C 2.078125 -2.15625 2.070312 -2.117188 2.0625 -2.078125 L 2.390625 -2.671875 L 2.84375 -2.671875 L 2.078125 -1.3125 C 1.960938 -1.113281 1.878906 -0.945312 1.828125 -0.8125 C 1.773438 -0.6875 1.738281 -0.578125 1.71875 -0.484375 C 1.71875 -0.484375 1.71875 -0.476562 1.71875 -0.46875 C 1.71875 -0.457031 1.71875 -0.445312 1.71875 -0.4375 C 1.71875 -0.382812 1.734375 -0.328125 1.765625 -0.265625 C 1.796875 -0.210938 1.847656 -0.179688 1.921875 -0.171875 C 1.929688 -0.160156 1.941406 -0.15625 1.953125 -0.15625 C 1.960938 -0.15625 1.972656 -0.15625 1.984375 -0.15625 C 2.046875 -0.15625 2.113281 -0.171875 2.1875 -0.203125 C 2.269531 -0.242188 2.351562 -0.304688 2.4375 -0.390625 C 2.550781 -0.492188 2.660156 -0.625 2.765625 -0.78125 C 2.867188 -0.9375 2.96875 -1.101562 3.0625 -1.28125 C 3.082031 -1.3125 3.101562 -1.328125 3.125 -1.328125 C 3.132812 -1.328125 3.148438 -1.320312 3.171875 -1.3125 Z M 0.90625 -0.296875 C 1.101562 -0.453125 1.304688 -0.707031 1.515625 -1.0625 C 1.546875 -1.125 1.582031 -1.203125 1.625 -1.296875 C 1.675781 -1.398438 1.722656 -1.507812 1.765625 -1.625 C 1.816406 -1.738281 1.859375 -1.851562 1.890625 -1.96875 C 1.921875 -2.082031 1.9375 -2.179688 1.9375 -2.265625 C 1.9375 -2.328125 1.925781 -2.378906 1.90625 -2.421875 C 1.894531 -2.472656 1.867188 -2.507812 1.828125 -2.53125 C 1.804688 -2.550781 1.773438 -2.5625 1.734375 -2.5625 C 1.648438 -2.5625 1.554688 -2.515625 1.453125 -2.421875 C 1.347656 -2.335938 1.238281 -2.222656 1.125 -2.078125 C 1.007812 -1.941406 0.90625 -1.796875 0.8125 -1.640625 C 0.71875 -1.472656 0.632812 -1.304688 0.5625 -1.140625 C 0.488281 -0.984375 0.441406 -0.832031 0.421875 -0.6875 C 0.410156 -0.632812 0.40625 -0.578125 0.40625 -0.515625 C 0.40625 -0.410156 0.425781 -0.332031 0.46875 -0.28125 C 0.507812 -0.226562 0.566406 -0.203125 0.640625 -0.203125 C 0.710938 -0.203125 0.800781 -0.234375 0.90625 -0.296875 Z M 0.90625 -0.296875 "/></g></g></g><g fill="#ffffff" fill-opacity="1"><g transform="translate(15.474411, 6.73566)"><g><path d="M 2.546875 -1.3125 C 2.566406 -1.300781 2.578125 -1.28125 2.578125 -1.25 C 2.578125 -1.238281 2.570312 -1.226562 2.5625 -1.21875 C 2.34375 -0.820312 2.113281 -0.519531 1.875 -0.3125 C 1.632812 -0.101562 1.378906 0 1.109375 0 C 0.992188 0 0.894531 -0.015625 0.8125 -0.046875 C 0.738281 -0.0859375 0.6875 -0.132812 0.65625 -0.1875 C 0.625 -0.25 0.609375 -0.316406 0.609375 -0.390625 C 0.609375 -0.535156 0.660156 -0.703125 0.765625 -0.890625 C 0.867188 -1.078125 1.015625 -1.300781 1.203125 -1.5625 C 1.296875 -1.675781 1.382812 -1.796875 1.46875 -1.921875 C 1.5625 -2.046875 1.640625 -2.175781 1.703125 -2.3125 L 1.734375 -2.375 L 1.703125 -2.375 C 1.546875 -2.375 1.414062 -2.394531 1.3125 -2.4375 C 1.21875 -2.488281 1.148438 -2.539062 1.109375 -2.59375 L 0.34375 -1.21875 C 0.320312 -1.195312 0.300781 -1.1875 0.28125 -1.1875 C 0.269531 -1.1875 0.257812 -1.191406 0.25 -1.203125 C 0.226562 -1.210938 0.21875 -1.226562 0.21875 -1.25 C 0.21875 -1.257812 0.21875 -1.273438 0.21875 -1.296875 L 1.015625 -2.703125 C 0.984375 -2.742188 0.960938 -2.785156 0.953125 -2.828125 C 0.941406 -2.878906 0.9375 -2.925781 0.9375 -2.96875 C 0.9375 -3.039062 0.945312 -3.101562 0.96875 -3.15625 C 0.976562 -3.164062 0.984375 -3.175781 0.984375 -3.1875 C 0.992188 -3.207031 1.003906 -3.222656 1.015625 -3.234375 C 1.054688 -3.285156 1.097656 -3.320312 1.140625 -3.34375 C 1.191406 -3.382812 1.242188 -3.410156 1.296875 -3.421875 C 1.359375 -3.429688 1.410156 -3.4375 1.453125 -3.4375 C 1.492188 -3.4375 1.523438 -3.4375 1.546875 -3.4375 C 1.566406 -3.4375 1.578125 -3.4375 1.578125 -3.4375 C 1.492188 -3.28125 1.425781 -3.160156 1.375 -3.078125 C 1.332031 -2.992188 1.300781 -2.929688 1.28125 -2.890625 C 1.257812 -2.859375 1.242188 -2.835938 1.234375 -2.828125 C 1.222656 -2.804688 1.210938 -2.78125 1.203125 -2.75 C 1.191406 -2.726562 1.179688 -2.71875 1.171875 -2.71875 C 1.234375 -2.632812 1.316406 -2.570312 1.421875 -2.53125 C 1.535156 -2.5 1.664062 -2.484375 1.8125 -2.484375 C 1.882812 -2.484375 1.957031 -2.488281 2.03125 -2.5 C 2.101562 -2.507812 2.175781 -2.519531 2.25 -2.53125 C 2.25 -2.53125 2.207031 -2.441406 2.125 -2.265625 C 2.039062 -2.097656 1.898438 -1.875 1.703125 -1.59375 L 1.625 -1.484375 C 1.539062 -1.359375 1.453125 -1.226562 1.359375 -1.09375 C 1.265625 -0.957031 1.179688 -0.832031 1.109375 -0.71875 C 1.085938 -0.675781 1.066406 -0.617188 1.046875 -0.546875 C 1.023438 -0.484375 1.015625 -0.421875 1.015625 -0.359375 C 1.015625 -0.316406 1.023438 -0.273438 1.046875 -0.234375 C 1.066406 -0.203125 1.097656 -0.179688 1.140625 -0.171875 C 1.148438 -0.171875 1.160156 -0.171875 1.171875 -0.171875 C 1.179688 -0.171875 1.191406 -0.171875 1.203125 -0.171875 C 1.359375 -0.171875 1.53125 -0.238281 1.71875 -0.375 C 1.84375 -0.46875 1.960938 -0.585938 2.078125 -0.734375 C 2.203125 -0.890625 2.328125 -1.078125 2.453125 -1.296875 C 2.460938 -1.316406 2.484375 -1.328125 2.515625 -1.328125 C 2.523438 -1.328125 2.535156 -1.320312 2.546875 -1.3125 Z M 2.546875 -1.3125 "/></g></g></g><g fill="#ffffff" fill-opacity="1"><g transform="translate(17.722522, 6.73566)"><g><path d="M 1.796875 -1.3125 C 1.816406 -1.300781 1.828125 -1.28125 1.828125 -1.25 C 1.828125 -1.238281 1.828125 -1.226562 1.828125 -1.21875 C 1.742188 -1.070312 1.65625 -0.925781 1.5625 -0.78125 C 1.46875 -0.632812 1.367188 -0.503906 1.265625 -0.390625 C 1.160156 -0.273438 1.050781 -0.179688 0.9375 -0.109375 C 0.820312 -0.0351562 0.703125 0 0.578125 0 C 0.398438 0 0.257812 -0.0390625 0.15625 -0.125 C 0.0507812 -0.21875 0 -0.347656 0 -0.515625 C 0 -0.617188 0.0195312 -0.734375 0.0625 -0.859375 C 0.101562 -0.984375 0.164062 -1.125 0.25 -1.28125 L 1.03125 -2.671875 L 1.46875 -2.671875 L 0.703125 -1.3125 C 0.609375 -1.125 0.53125 -0.960938 0.46875 -0.828125 C 0.414062 -0.703125 0.378906 -0.59375 0.359375 -0.5 C 0.359375 -0.488281 0.359375 -0.476562 0.359375 -0.46875 C 0.359375 -0.457031 0.359375 -0.445312 0.359375 -0.4375 C 0.359375 -0.394531 0.367188 -0.34375 0.390625 -0.28125 C 0.421875 -0.21875 0.472656 -0.179688 0.546875 -0.171875 C 0.554688 -0.171875 0.578125 -0.171875 0.609375 -0.171875 C 0.671875 -0.171875 0.738281 -0.1875 0.8125 -0.21875 C 0.894531 -0.25 0.984375 -0.3125 1.078125 -0.40625 C 1.179688 -0.507812 1.285156 -0.640625 1.390625 -0.796875 C 1.492188 -0.953125 1.597656 -1.117188 1.703125 -1.296875 C 1.710938 -1.316406 1.734375 -1.328125 1.765625 -1.328125 C 1.773438 -1.328125 1.785156 -1.320312 1.796875 -1.3125 Z M 1.8125 -3.21875 C 1.78125 -3.144531 1.734375 -3.082031 1.671875 -3.03125 C 1.617188 -2.988281 1.554688 -2.96875 1.484375 -2.96875 C 1.460938 -2.96875 1.4375 -2.972656 1.40625 -2.984375 C 1.320312 -3.023438 1.28125 -3.09375 1.28125 -3.1875 C 1.28125 -3.238281 1.296875 -3.300781 1.328125 -3.375 C 1.367188 -3.445312 1.421875 -3.503906 1.484375 -3.546875 C 1.546875 -3.597656 1.609375 -3.625 1.671875 -3.625 C 1.691406 -3.625 1.71875 -3.617188 1.75 -3.609375 C 1.820312 -3.566406 1.859375 -3.5 1.859375 -3.40625 C 1.859375 -3.34375 1.84375 -3.28125 1.8125 -3.21875 Z M 1.8125 -3.21875 "/></g></g></g><g fill="#ffffff" fill-opacity="1"><g transform="translate(19.230141, 6.73566)"><g><path d="M 3.171875 -1.3125 C 3.191406 -1.300781 3.203125 -1.28125 3.203125 -1.25 C 3.203125 -1.238281 3.195312 -1.226562 3.1875 -1.21875 C 3.082031 -1.019531 2.960938 -0.828125 2.828125 -0.640625 C 2.703125 -0.453125 2.566406 -0.296875 2.421875 -0.171875 C 2.273438 -0.0546875 2.113281 0 1.9375 0 C 1.757812 0 1.617188 -0.0390625 1.515625 -0.125 C 1.410156 -0.21875 1.359375 -0.34375 1.359375 -0.5 C 1.359375 -0.519531 1.359375 -0.535156 1.359375 -0.546875 C 1.359375 -0.566406 1.363281 -0.582031 1.375 -0.59375 C 1.238281 -0.40625 1.097656 -0.257812 0.953125 -0.15625 C 0.804688 -0.0507812 0.664062 0 0.53125 0 L 0.515625 0 C 0.390625 0 0.285156 -0.0234375 0.203125 -0.078125 C 0.128906 -0.140625 0.078125 -0.210938 0.046875 -0.296875 C 0.015625 -0.390625 0 -0.488281 0 -0.59375 C 0 -0.613281 0 -0.628906 0 -0.640625 C 0 -0.660156 0 -0.679688 0 -0.703125 C 0.0195312 -0.859375 0.0625 -1.019531 0.125 -1.1875 C 0.195312 -1.363281 0.285156 -1.535156 0.390625 -1.703125 C 0.546875 -1.960938 0.695312 -2.164062 0.84375 -2.3125 C 1 -2.457031 1.140625 -2.5625 1.265625 -2.625 C 1.398438 -2.6875 1.523438 -2.71875 1.640625 -2.71875 C 1.679688 -2.71875 1.722656 -2.710938 1.765625 -2.703125 C 1.804688 -2.691406 1.84375 -2.679688 1.875 -2.671875 C 1.945312 -2.640625 2 -2.585938 2.03125 -2.515625 C 2.070312 -2.453125 2.09375 -2.378906 2.09375 -2.296875 C 2.09375 -2.265625 2.085938 -2.226562 2.078125 -2.1875 C 2.078125 -2.15625 2.070312 -2.117188 2.0625 -2.078125 L 2.390625 -2.671875 L 2.84375 -2.671875 L 2.078125 -1.3125 C 1.960938 -1.113281 1.878906 -0.945312 1.828125 -0.8125 C 1.773438 -0.6875 1.738281 -0.578125 1.71875 -0.484375 C 1.71875 -0.484375 1.71875 -0.476562 1.71875 -0.46875 C 1.71875 -0.457031 1.71875 -0.445312 1.71875 -0.4375 C 1.71875 -0.382812 1.734375 -0.328125 1.765625 -0.265625 C 1.796875 -0.210938 1.847656 -0.179688 1.921875 -0.171875 C 1.929688 -0.160156 1.941406 -0.15625 1.953125 -0.15625 C 1.960938 -0.15625 1.972656 -0.15625 1.984375 -0.15625 C 2.046875 -0.15625 2.113281 -0.171875 2.1875 -0.203125 C 2.269531 -0.242188 2.351562 -0.304688 2.4375 -0.390625 C 2.550781 -0.492188 2.660156 -0.625 2.765625 -0.78125 C 2.867188 -0.9375 2.96875 -1.101562 3.0625 -1.28125 C 3.082031 -1.3125 3.101562 -1.328125 3.125 -1.328125 C 3.132812 -1.328125 3.148438 -1.320312 3.171875 -1.3125 Z M 0.90625 -0.296875 C 1.101562 -0.453125 1.304688 -0.707031 1.515625 -1.0625 C 1.546875 -1.125 1.582031 -1.203125 1.625 -1.296875 C 1.675781 -1.398438 1.722656 -1.507812 1.765625 -1.625 C 1.816406 -1.738281 1.859375 -1.851562 1.890625 -1.96875 C 1.921875 -2.082031 1.9375 -2.179688 1.9375 -2.265625 C 1.9375 -2.328125 1.925781 -2.378906 1.90625 -2.421875 C 1.894531 -2.472656 1.867188 -2.507812 1.828125 -2.53125 C 1.804688 -2.550781 1.773438 -2.5625 1.734375 -2.5625 C 1.648438 -2.5625 1.554688 -2.515625 1.453125 -2.421875 C 1.347656 -2.335938 1.238281 -2.222656 1.125 -2.078125 C 1.007812 -1.941406 0.90625 -1.796875 0.8125 -1.640625 C 0.71875 -1.472656 0.632812 -1.304688 0.5625 -1.140625 C 0.488281 -0.984375 0.441406 -0.832031 0.421875 -0.6875 C 0.410156 -0.632812 0.40625 -0.578125 0.40625 -0.515625 C 0.40625 -0.410156 0.425781 -0.332031 0.46875 -0.28125 C 0.507812 -0.226562 0.566406 -0.203125 0.640625 -0.203125 C 0.710938 -0.203125 0.800781 -0.234375 0.90625 -0.296875 Z M 0.90625 -0.296875 "/></g></g></g><g fill="#ffffff" fill-opacity="1"><g transform="translate(22.085562, 6.73566)"><g/></g></g><g fill="#ffffff" fill-opacity="1"><g transform="translate(23.433363, 6.73566)"><g><path d="M 10.78125 1.265625 C 10.8125 1.285156 10.828125 1.316406 10.828125 1.359375 C 10.828125 1.421875 10.789062 1.484375 10.71875 1.546875 C 10.644531 1.597656 10.566406 1.65625 10.484375 1.71875 C 10.398438 1.78125 10.316406 1.832031 10.234375 1.875 C 10.160156 1.925781 10.097656 1.96875 10.046875 2 C 9.992188 2.039062 9.96875 2.0625 9.96875 2.0625 C 9.789062 2.164062 9.578125 2.253906 9.328125 2.328125 C 9.078125 2.398438 8.789062 2.4375 8.46875 2.4375 L 8.40625 2.4375 C 7.945312 2.425781 7.582031 2.335938 7.3125 2.171875 C 7.039062 2.015625 6.84375 1.800781 6.71875 1.53125 C 6.601562 1.257812 6.546875 0.957031 6.546875 0.625 C 6.546875 0.34375 6.578125 0.0507812 6.640625 -0.25 C 6.710938 -0.5625 6.804688 -0.875 6.921875 -1.1875 C 7.035156 -1.5 7.164062 -1.804688 7.3125 -2.109375 C 7.21875 -2.109375 7.117188 -2.109375 7.015625 -2.109375 C 6.921875 -2.117188 6.820312 -2.128906 6.71875 -2.140625 L 6.703125 -2.140625 C 6.578125 -1.941406 6.476562 -1.773438 6.40625 -1.640625 C 6.332031 -1.503906 6.289062 -1.425781 6.28125 -1.40625 C 5.875 -0.75 5.492188 -0.207031 5.140625 0.21875 C 4.785156 0.644531 4.441406 0.976562 4.109375 1.21875 C 3.773438 1.46875 3.441406 1.640625 3.109375 1.734375 C 2.773438 1.835938 2.429688 1.890625 2.078125 1.890625 C 2.046875 1.890625 2.015625 1.890625 1.984375 1.890625 C 1.953125 1.890625 1.921875 1.890625 1.890625 1.890625 C 1.597656 1.878906 1.332031 1.816406 1.09375 1.703125 C 0.851562 1.585938 0.648438 1.429688 0.484375 1.234375 C 0.335938 1.066406 0.21875 0.878906 0.125 0.671875 C 0.0390625 0.460938 0 0.242188 0 0.015625 C 0 -0.00390625 0 -0.0195312 0 -0.03125 C 0 -0.0507812 0 -0.0703125 0 -0.09375 C 0.0195312 -0.40625 0.101562 -0.707031 0.25 -1 C 0.40625 -1.300781 0.628906 -1.570312 0.921875 -1.8125 C 1.210938 -2.050781 1.570312 -2.238281 2 -2.375 C 2.101562 -2.78125 2.296875 -3.144531 2.578125 -3.46875 C 2.867188 -3.800781 3.222656 -4.082031 3.640625 -4.3125 C 4.023438 -4.507812 4.472656 -4.65625 4.984375 -4.75 C 5.492188 -4.851562 6.050781 -4.90625 6.65625 -4.90625 C 7.132812 -4.90625 7.632812 -4.875 8.15625 -4.8125 C 8.414062 -4.78125 8.640625 -4.753906 8.828125 -4.734375 C 9.023438 -4.722656 9.191406 -4.71875 9.328125 -4.71875 C 9.492188 -4.71875 9.628906 -4.726562 9.734375 -4.75 C 9.847656 -4.78125 9.941406 -4.816406 10.015625 -4.859375 C 10.085938 -4.910156 10.160156 -4.972656 10.234375 -5.046875 C 10.253906 -5.078125 10.273438 -5.09375 10.296875 -5.09375 C 10.304688 -5.09375 10.316406 -5.085938 10.328125 -5.078125 C 10.347656 -5.066406 10.359375 -5.050781 10.359375 -5.03125 C 10.359375 -5.007812 10.359375 -5 10.359375 -5 C 10.359375 -4.988281 10.335938 -4.957031 10.296875 -4.90625 C 10.265625 -4.863281 10.207031 -4.8125 10.125 -4.75 C 10.039062 -4.695312 9.921875 -4.648438 9.765625 -4.609375 C 9.617188 -4.566406 9.484375 -4.503906 9.359375 -4.421875 C 9.242188 -4.335938 9.144531 -4.25 9.0625 -4.15625 C 8.976562 -4.0625 8.90625 -3.976562 8.84375 -3.90625 C 8.726562 -3.75 8.597656 -3.554688 8.453125 -3.328125 C 8.316406 -3.097656 8.160156 -2.828125 7.984375 -2.515625 C 7.867188 -2.296875 7.75 -2.054688 7.625 -1.796875 C 7.507812 -1.535156 7.40625 -1.265625 7.3125 -0.984375 C 7.21875 -0.703125 7.140625 -0.421875 7.078125 -0.140625 C 7.023438 0.128906 7 0.394531 7 0.65625 C 7 0.9375 7.039062 1.191406 7.125 1.421875 C 7.21875 1.660156 7.363281 1.851562 7.5625 2 C 7.757812 2.15625 8.019531 2.25 8.34375 2.28125 C 8.363281 2.28125 8.382812 2.28125 8.40625 2.28125 C 8.425781 2.289062 8.453125 2.296875 8.484375 2.296875 C 8.691406 2.296875 8.90625 2.269531 9.125 2.21875 C 9.351562 2.164062 9.539062 2.097656 9.6875 2.015625 C 9.875 1.910156 10.03125 1.804688 10.15625 1.703125 C 10.289062 1.597656 10.394531 1.503906 10.46875 1.421875 C 10.539062 1.347656 10.578125 1.3125 10.578125 1.3125 C 10.609375 1.257812 10.648438 1.234375 10.703125 1.234375 C 10.734375 1.234375 10.757812 1.242188 10.78125 1.265625 Z M 5.953125 -1.6875 C 6.015625 -1.769531 6.066406 -1.851562 6.109375 -1.9375 C 6.160156 -2.03125 6.210938 -2.113281 6.265625 -2.1875 C 6.109375 -2.207031 5.953125 -2.226562 5.796875 -2.25 C 5.648438 -2.269531 5.503906 -2.289062 5.359375 -2.3125 C 5.085938 -2.34375 4.820312 -2.367188 4.5625 -2.390625 C 4.3125 -2.421875 4.078125 -2.4375 3.859375 -2.4375 C 3.566406 -2.4375 3.289062 -2.414062 3.03125 -2.375 C 2.769531 -2.332031 2.53125 -2.269531 2.3125 -2.1875 C 2.3125 -2.175781 2.304688 -2.160156 2.296875 -2.140625 C 2.296875 -2.117188 2.296875 -2.097656 2.296875 -2.078125 C 2.285156 -2.015625 2.273438 -1.953125 2.265625 -1.890625 C 2.265625 -1.835938 2.265625 -1.78125 2.265625 -1.71875 C 2.265625 -1.46875 2.300781 -1.257812 2.375 -1.09375 C 2.457031 -0.925781 2.554688 -0.796875 2.671875 -0.703125 C 2.785156 -0.609375 2.894531 -0.546875 3 -0.515625 C 3.113281 -0.484375 3.207031 -0.46875 3.28125 -0.46875 C 3.382812 -0.46875 3.488281 -0.476562 3.59375 -0.5 C 3.707031 -0.53125 3.8125 -0.582031 3.90625 -0.65625 C 4.007812 -0.71875 4.082031 -0.789062 4.125 -0.875 C 4.175781 -0.96875 4.210938 -1.054688 4.234375 -1.140625 C 4.253906 -1.222656 4.265625 -1.273438 4.265625 -1.296875 C 4.273438 -1.390625 4.320312 -1.4375 4.40625 -1.4375 C 4.46875 -1.425781 4.5 -1.382812 4.5 -1.3125 C 4.5 -1.289062 4.5 -1.273438 4.5 -1.265625 C 4.476562 -1.128906 4.4375 -1.015625 4.375 -0.921875 C 4.3125 -0.828125 4.253906 -0.753906 4.203125 -0.703125 C 4.148438 -0.660156 4.125 -0.640625 4.125 -0.640625 C 4 -0.535156 3.863281 -0.457031 3.71875 -0.40625 C 3.582031 -0.351562 3.4375 -0.328125 3.28125 -0.328125 C 3.164062 -0.328125 3.039062 -0.34375 2.90625 -0.375 C 2.78125 -0.414062 2.660156 -0.460938 2.546875 -0.515625 C 2.441406 -0.578125 2.347656 -0.65625 2.265625 -0.75 C 2.023438 -1.019531 1.90625 -1.367188 1.90625 -1.796875 C 1.90625 -1.867188 1.910156 -1.953125 1.921875 -2.046875 C 1.617188 -1.890625 1.351562 -1.707031 1.125 -1.5 C 0.90625 -1.289062 0.734375 -1.0625 0.609375 -0.8125 C 0.492188 -0.570312 0.425781 -0.328125 0.40625 -0.078125 C 0.40625 -0.0664062 0.40625 -0.0507812 0.40625 -0.03125 C 0.40625 -0.0195312 0.40625 -0.00390625 0.40625 0.015625 C 0.40625 0.210938 0.4375 0.40625 0.5 0.59375 C 0.570312 0.789062 0.671875 0.96875 0.796875 1.125 C 0.929688 1.289062 1.09375 1.425781 1.28125 1.53125 C 1.476562 1.632812 1.695312 1.695312 1.9375 1.71875 C 1.96875 1.71875 2 1.71875 2.03125 1.71875 C 2.0625 1.726562 2.09375 1.734375 2.125 1.734375 C 2.425781 1.734375 2.710938 1.671875 2.984375 1.546875 C 3.253906 1.429688 3.507812 1.273438 3.75 1.078125 C 4 0.890625 4.226562 0.671875 4.4375 0.421875 C 4.65625 0.179688 4.851562 -0.0625 5.03125 -0.3125 C 5.21875 -0.570312 5.382812 -0.820312 5.53125 -1.0625 C 5.6875 -1.300781 5.828125 -1.507812 5.953125 -1.6875 Z M 6.359375 -2.3125 C 6.617188 -2.71875 6.890625 -3.078125 7.171875 -3.390625 C 7.460938 -3.703125 7.753906 -3.957031 8.046875 -4.15625 C 8.347656 -4.363281 8.628906 -4.507812 8.890625 -4.59375 L 8.125 -4.6875 C 7.894531 -4.707031 7.664062 -4.722656 7.4375 -4.734375 C 7.207031 -4.753906 6.984375 -4.765625 6.765625 -4.765625 C 6.210938 -4.765625 5.691406 -4.71875 5.203125 -4.625 C 4.710938 -4.53125 4.28125 -4.382812 3.90625 -4.1875 C 3.519531 -3.988281 3.195312 -3.742188 2.9375 -3.453125 C 2.675781 -3.160156 2.488281 -2.835938 2.375 -2.484375 C 2.5625 -2.523438 2.753906 -2.554688 2.953125 -2.578125 C 3.160156 -2.597656 3.378906 -2.609375 3.609375 -2.609375 C 3.648438 -2.609375 3.691406 -2.609375 3.734375 -2.609375 C 3.773438 -2.609375 3.816406 -2.609375 3.859375 -2.609375 C 4.085938 -2.597656 4.328125 -2.578125 4.578125 -2.546875 C 4.835938 -2.515625 5.101562 -2.476562 5.375 -2.4375 L 5.4375 -2.421875 C 5.582031 -2.398438 5.734375 -2.378906 5.890625 -2.359375 C 6.046875 -2.347656 6.203125 -2.332031 6.359375 -2.3125 Z M 6.78125 -2.265625 C 6.988281 -2.253906 7.1875 -2.242188 7.375 -2.234375 C 7.625 -2.671875 7.851562 -3.035156 8.0625 -3.328125 C 8.28125 -3.628906 8.484375 -3.875 8.671875 -4.0625 C 8.859375 -4.25 9.03125 -4.40625 9.1875 -4.53125 C 9.195312 -4.539062 9.207031 -4.546875 9.21875 -4.546875 C 8.925781 -4.492188 8.644531 -4.367188 8.375 -4.171875 C 8.101562 -3.972656 7.847656 -3.726562 7.609375 -3.4375 C 7.367188 -3.15625 7.148438 -2.851562 6.953125 -2.53125 C 6.921875 -2.488281 6.890625 -2.441406 6.859375 -2.390625 C 6.835938 -2.347656 6.8125 -2.304688 6.78125 -2.265625 Z M 6.78125 -2.265625 "/></g></g></g><g fill="#ffffff" fill-opacity="1"><g transform="translate(31.12595, 6.73566)"><g><path d="M 2.546875 -1.3125 C 2.566406 -1.300781 2.578125 -1.28125 2.578125 -1.25 C 2.578125 -1.238281 2.570312 -1.226562 2.5625 -1.21875 C 2.34375 -0.820312 2.113281 -0.519531 1.875 -0.3125 C 1.632812 -0.101562 1.378906 0 1.109375 0 C 0.992188 0 0.894531 -0.015625 0.8125 -0.046875 C 0.738281 -0.0859375 0.6875 -0.132812 0.65625 -0.1875 C 0.625 -0.25 0.609375 -0.316406 0.609375 -0.390625 C 0.609375 -0.535156 0.660156 -0.703125 0.765625 -0.890625 C 0.867188 -1.078125 1.015625 -1.300781 1.203125 -1.5625 C 1.296875 -1.675781 1.382812 -1.796875 1.46875 -1.921875 C 1.5625 -2.046875 1.640625 -2.175781 1.703125 -2.3125 L 1.734375 -2.375 L 1.703125 -2.375 C 1.546875 -2.375 1.414062 -2.394531 1.3125 -2.4375 C 1.21875 -2.488281 1.148438 -2.539062 1.109375 -2.59375 L 0.34375 -1.21875 C 0.320312 -1.195312 0.300781 -1.1875 0.28125 -1.1875 C 0.269531 -1.1875 0.257812 -1.191406 0.25 -1.203125 C 0.226562 -1.210938 0.21875 -1.226562 0.21875 -1.25 C 0.21875 -1.257812 0.21875 -1.273438 0.21875 -1.296875 L 1.015625 -2.703125 C 0.984375 -2.742188 0.960938 -2.785156 0.953125 -2.828125 C 0.941406 -2.878906 0.9375 -2.925781 0.9375 -2.96875 C 0.9375 -3.039062 0.945312 -3.101562 0.96875 -3.15625 C 0.976562 -3.164062 0.984375 -3.175781 0.984375 -3.1875 C 0.992188 -3.207031 1.003906 -3.222656 1.015625 -3.234375 C 1.054688 -3.285156 1.097656 -3.320312 1.140625 -3.34375 C 1.191406 -3.382812 1.242188 -3.410156 1.296875 -3.421875 C 1.359375 -3.429688 1.410156 -3.4375 1.453125 -3.4375 C 1.492188 -3.4375 1.523438 -3.4375 1.546875 -3.4375 C 1.566406 -3.4375 1.578125 -3.4375 1.578125 -3.4375 C 1.492188 -3.28125 1.425781 -3.160156 1.375 -3.078125 C 1.332031 -2.992188 1.300781 -2.929688 1.28125 -2.890625 C 1.257812 -2.859375 1.242188 -2.835938 1.234375 -2.828125 C 1.222656 -2.804688 1.210938 -2.78125 1.203125 -2.75 C 1.191406 -2.726562 1.179688 -2.71875 1.171875 -2.71875 C 1.234375 -2.632812 1.316406 -2.570312 1.421875 -2.53125 C 1.535156 -2.5 1.664062 -2.484375 1.8125 -2.484375 C 1.882812 -2.484375 1.957031 -2.488281 2.03125 -2.5 C 2.101562 -2.507812 2.175781 -2.519531 2.25 -2.53125 C 2.25 -2.53125 2.207031 -2.441406 2.125 -2.265625 C 2.039062 -2.097656 1.898438 -1.875 1.703125 -1.59375 L 1.625 -1.484375 C 1.539062 -1.359375 1.453125 -1.226562 1.359375 -1.09375 C 1.265625 -0.957031 1.179688 -0.832031 1.109375 -0.71875 C 1.085938 -0.675781 1.066406 -0.617188 1.046875 -0.546875 C 1.023438 -0.484375 1.015625 -0.421875 1.015625 -0.359375 C 1.015625 -0.316406 1.023438 -0.273438 1.046875 -0.234375 C 1.066406 -0.203125 1.097656 -0.179688 1.140625 -0.171875 C 1.148438 -0.171875 1.160156 -0.171875 1.171875 -0.171875 C 1.179688 -0.171875 1.191406 -0.171875 1.203125 -0.171875 C 1.359375 -0.171875 1.53125 -0.238281 1.71875 -0.375 C 1.84375 -0.46875 1.960938 -0.585938 2.078125 -0.734375 C 2.203125 -0.890625 2.328125 -1.078125 2.453125 -1.296875 C 2.460938 -1.316406 2.484375 -1.328125 2.515625 -1.328125 C 2.523438 -1.328125 2.535156 -1.320312 2.546875 -1.3125 Z M 2.546875 -1.3125 "/></g></g></g><g fill="#ffffff" fill-opacity="1"><g transform="translate(33.374063, 6.73566)"><g><path d="M 2.09375 -2.671875 C 2.132812 -2.671875 2.15625 -2.648438 2.15625 -2.609375 C 2.15625 -2.554688 2.132812 -2.53125 2.09375 -2.53125 L 1.390625 -2.53125 L 0.71875 -1.3125 C 0.613281 -1.125 0.53125 -0.960938 0.46875 -0.828125 C 0.414062 -0.691406 0.378906 -0.578125 0.359375 -0.484375 C 0.359375 -0.484375 0.359375 -0.476562 0.359375 -0.46875 C 0.359375 -0.457031 0.359375 -0.445312 0.359375 -0.4375 C 0.359375 -0.382812 0.367188 -0.328125 0.390625 -0.265625 C 0.421875 -0.210938 0.472656 -0.179688 0.546875 -0.171875 C 0.554688 -0.160156 0.578125 -0.15625 0.609375 -0.15625 C 0.671875 -0.15625 0.738281 -0.171875 0.8125 -0.203125 C 0.894531 -0.242188 0.984375 -0.304688 1.078125 -0.390625 C 1.179688 -0.492188 1.285156 -0.625 1.390625 -0.78125 C 1.503906 -0.9375 1.609375 -1.109375 1.703125 -1.296875 C 1.710938 -1.316406 1.734375 -1.328125 1.765625 -1.328125 C 1.773438 -1.328125 1.785156 -1.320312 1.796875 -1.3125 C 1.816406 -1.300781 1.828125 -1.28125 1.828125 -1.25 C 1.828125 -1.238281 1.828125 -1.226562 1.828125 -1.21875 C 1.710938 -1.019531 1.59375 -0.828125 1.46875 -0.640625 C 1.34375 -0.453125 1.207031 -0.296875 1.0625 -0.171875 C 0.914062 -0.0546875 0.753906 0 0.578125 0 C 0.398438 0 0.257812 -0.0390625 0.15625 -0.125 C 0.0507812 -0.21875 0 -0.347656 0 -0.515625 C 0 -0.617188 0.0195312 -0.734375 0.0625 -0.859375 C 0.101562 -0.984375 0.164062 -1.125 0.25 -1.28125 L 0.953125 -2.53125 L 0.515625 -2.53125 C 0.472656 -2.53125 0.453125 -2.554688 0.453125 -2.609375 C 0.453125 -2.648438 0.472656 -2.671875 0.515625 -2.671875 L 1.03125 -2.671875 L 1.78125 -4.03125 L 2.234375 -4.03125 L 1.46875 -2.671875 Z M 2.09375 -2.671875 "/></g></g></g><g fill="#ffffff" fill-opacity="1"><g transform="translate(34.902994, 6.73566)"><g><path d="M 2.328125 -1.34375 C 2.347656 -1.332031 2.359375 -1.3125 2.359375 -1.28125 C 2.359375 -1.257812 2.359375 -1.25 2.359375 -1.25 C 2.273438 -1.09375 2.179688 -0.941406 2.078125 -0.796875 C 1.972656 -0.648438 1.851562 -0.515625 1.71875 -0.390625 C 1.59375 -0.273438 1.453125 -0.179688 1.296875 -0.109375 C 1.140625 -0.0351562 0.960938 0 0.765625 0 C 0.554688 0 0.394531 -0.0351562 0.28125 -0.109375 C 0.175781 -0.179688 0.101562 -0.269531 0.0625 -0.375 C 0.0195312 -0.476562 0 -0.582031 0 -0.6875 C 0 -0.71875 0 -0.742188 0 -0.765625 C 0 -0.785156 0.00390625 -0.804688 0.015625 -0.828125 C 0.0351562 -0.984375 0.0703125 -1.128906 0.125 -1.265625 C 0.1875 -1.398438 0.265625 -1.550781 0.359375 -1.71875 C 0.421875 -1.820312 0.492188 -1.929688 0.578125 -2.046875 C 0.671875 -2.160156 0.773438 -2.265625 0.890625 -2.359375 C 1.003906 -2.460938 1.125 -2.546875 1.25 -2.609375 C 1.375 -2.679688 1.5 -2.71875 1.625 -2.71875 C 1.644531 -2.71875 1.679688 -2.710938 1.734375 -2.703125 C 1.785156 -2.703125 1.835938 -2.6875 1.890625 -2.65625 C 1.953125 -2.632812 2.003906 -2.59375 2.046875 -2.53125 C 2.085938 -2.46875 2.109375 -2.382812 2.109375 -2.28125 C 2.109375 -2.238281 2.101562 -2.191406 2.09375 -2.140625 C 2.082031 -2.085938 2.066406 -2.039062 2.046875 -2 C 1.960938 -1.832031 1.859375 -1.695312 1.734375 -1.59375 C 1.617188 -1.5 1.492188 -1.425781 1.359375 -1.375 C 1.222656 -1.320312 1.085938 -1.285156 0.953125 -1.265625 C 0.816406 -1.242188 0.6875 -1.226562 0.5625 -1.21875 C 0.550781 -1.195312 0.539062 -1.171875 0.53125 -1.140625 C 0.519531 -1.109375 0.507812 -1.082031 0.5 -1.0625 C 0.445312 -0.90625 0.421875 -0.765625 0.421875 -0.640625 C 0.421875 -0.484375 0.46875 -0.363281 0.5625 -0.28125 C 0.65625 -0.207031 0.769531 -0.171875 0.90625 -0.171875 L 0.9375 -0.171875 C 1.164062 -0.179688 1.382812 -0.273438 1.59375 -0.453125 C 1.8125 -0.640625 2.03125 -0.925781 2.25 -1.3125 C 2.257812 -1.332031 2.273438 -1.34375 2.296875 -1.34375 C 2.316406 -1.34375 2.328125 -1.34375 2.328125 -1.34375 Z M 1.671875 -2.546875 C 1.609375 -2.546875 1.53125 -2.503906 1.4375 -2.421875 C 1.351562 -2.347656 1.257812 -2.25 1.15625 -2.125 C 1.0625 -2 0.96875 -1.867188 0.875 -1.734375 C 0.78125 -1.597656 0.703125 -1.472656 0.640625 -1.359375 C 0.753906 -1.367188 0.882812 -1.394531 1.03125 -1.4375 C 1.1875 -1.488281 1.332031 -1.5625 1.46875 -1.65625 C 1.613281 -1.75 1.722656 -1.878906 1.796875 -2.046875 C 1.847656 -2.148438 1.875 -2.242188 1.875 -2.328125 C 1.875 -2.472656 1.804688 -2.546875 1.671875 -2.546875 Z M 1.671875 -2.546875 "/></g></g></g><g fill="#ffffff" fill-opacity="1"><g transform="translate(36.969976, 6.73566)"><g><path d="M 2.359375 -1.3125 C 2.378906 -1.300781 2.390625 -1.28125 2.390625 -1.25 C 2.390625 -1.238281 2.390625 -1.226562 2.390625 -1.21875 C 2.242188 -0.96875 2.082031 -0.75 1.90625 -0.5625 C 1.738281 -0.375 1.539062 -0.234375 1.3125 -0.140625 C 1.082031 -0.046875 0.8125 0 0.5 0 C 0.320312 0 0.179688 -0.0507812 0.078125 -0.15625 C 0.0546875 -0.1875 0.0351562 -0.21875 0.015625 -0.25 C 0.00390625 -0.28125 0 -0.316406 0 -0.359375 C 0 -0.410156 0.0078125 -0.453125 0.03125 -0.484375 C 0.0507812 -0.523438 0.0625 -0.550781 0.0625 -0.5625 C 0.101562 -0.613281 0.144531 -0.648438 0.1875 -0.671875 C 0.226562 -0.703125 0.269531 -0.71875 0.3125 -0.71875 C 0.34375 -0.71875 0.363281 -0.710938 0.375 -0.703125 C 0.4375 -0.679688 0.46875 -0.628906 0.46875 -0.546875 C 0.46875 -0.523438 0.460938 -0.5 0.453125 -0.46875 C 0.453125 -0.445312 0.441406 -0.421875 0.421875 -0.390625 C 0.398438 -0.347656 0.375 -0.3125 0.34375 -0.28125 C 0.3125 -0.25 0.28125 -0.226562 0.25 -0.21875 C 0.300781 -0.175781 0.367188 -0.15625 0.453125 -0.15625 L 0.5 -0.15625 C 0.59375 -0.164062 0.679688 -0.21875 0.765625 -0.3125 C 0.859375 -0.40625 0.9375 -0.53125 1 -0.6875 C 1.0625 -0.84375 1.097656 -1.03125 1.109375 -1.25 C 1.140625 -1.519531 1.1875 -1.757812 1.25 -1.96875 C 1.320312 -2.1875 1.414062 -2.351562 1.53125 -2.46875 C 1.320312 -2.414062 1.144531 -2.332031 1 -2.21875 C 0.863281 -2.101562 0.742188 -1.96875 0.640625 -1.8125 C 0.546875 -1.65625 0.453125 -1.492188 0.359375 -1.328125 L 0.296875 -1.21875 C 0.285156 -1.195312 0.265625 -1.1875 0.234375 -1.1875 C 0.222656 -1.1875 0.210938 -1.1875 0.203125 -1.1875 C 0.179688 -1.195312 0.171875 -1.21875 0.171875 -1.25 C 0.171875 -1.257812 0.171875 -1.269531 0.171875 -1.28125 L 0.234375 -1.390625 C 0.328125 -1.554688 0.421875 -1.710938 0.515625 -1.859375 C 0.617188 -2.015625 0.738281 -2.15625 0.875 -2.28125 C 1.007812 -2.40625 1.171875 -2.5 1.359375 -2.5625 C 1.554688 -2.632812 1.796875 -2.671875 2.078125 -2.671875 C 2.117188 -2.671875 2.140625 -2.648438 2.140625 -2.609375 C 2.140625 -2.554688 2.117188 -2.53125 2.078125 -2.53125 C 2.078125 -2.53125 2.070312 -2.53125 2.0625 -2.53125 C 1.945312 -2.53125 1.851562 -2.492188 1.78125 -2.421875 C 1.71875 -2.347656 1.671875 -2.25 1.640625 -2.125 C 1.609375 -2 1.582031 -1.859375 1.5625 -1.703125 C 1.539062 -1.546875 1.523438 -1.390625 1.515625 -1.234375 C 1.492188 -0.992188 1.445312 -0.785156 1.375 -0.609375 C 1.300781 -0.441406 1.207031 -0.304688 1.09375 -0.203125 C 1.300781 -0.265625 1.472656 -0.347656 1.609375 -0.453125 C 1.753906 -0.554688 1.875 -0.679688 1.96875 -0.828125 C 2.070312 -0.972656 2.171875 -1.128906 2.265625 -1.296875 C 2.285156 -1.316406 2.304688 -1.328125 2.328125 -1.328125 C 2.347656 -1.328125 2.359375 -1.320312 2.359375 -1.3125 Z M 2.359375 -1.3125 "/></g></g></g><g fill="#ffffff" fill-opacity="1"><g transform="translate(39.100888, 6.73566)"><g><path d="M 3.171875 -1.3125 C 3.191406 -1.300781 3.203125 -1.28125 3.203125 -1.25 C 3.203125 -1.238281 3.195312 -1.226562 3.1875 -1.21875 C 3.082031 -1.019531 2.960938 -0.828125 2.828125 -0.640625 C 2.703125 -0.453125 2.566406 -0.296875 2.421875 -0.171875 C 2.273438 -0.0546875 2.113281 0 1.9375 0 C 1.757812 0 1.617188 -0.0390625 1.515625 -0.125 C 1.410156 -0.21875 1.359375 -0.34375 1.359375 -0.5 C 1.359375 -0.519531 1.359375 -0.535156 1.359375 -0.546875 C 1.359375 -0.566406 1.363281 -0.582031 1.375 -0.59375 C 1.238281 -0.40625 1.097656 -0.257812 0.953125 -0.15625 C 0.804688 -0.0507812 0.664062 0 0.53125 0 L 0.515625 0 C 0.390625 0 0.285156 -0.0234375 0.203125 -0.078125 C 0.128906 -0.140625 0.078125 -0.210938 0.046875 -0.296875 C 0.015625 -0.390625 0 -0.488281 0 -0.59375 C 0 -0.613281 0 -0.628906 0 -0.640625 C 0 -0.660156 0 -0.679688 0 -0.703125 C 0.0195312 -0.859375 0.0625 -1.019531 0.125 -1.1875 C 0.195312 -1.363281 0.285156 -1.535156 0.390625 -1.703125 C 0.546875 -1.960938 0.695312 -2.164062 0.84375 -2.3125 C 1 -2.457031 1.140625 -2.5625 1.265625 -2.625 C 1.398438 -2.6875 1.523438 -2.71875 1.640625 -2.71875 C 1.679688 -2.71875 1.722656 -2.710938 1.765625 -2.703125 C 1.804688 -2.691406 1.84375 -2.679688 1.875 -2.671875 C 1.945312 -2.640625 2 -2.585938 2.03125 -2.515625 C 2.070312 -2.453125 2.09375 -2.378906 2.09375 -2.296875 C 2.09375 -2.265625 2.085938 -2.226562 2.078125 -2.1875 C 2.078125 -2.15625 2.070312 -2.117188 2.0625 -2.078125 L 2.390625 -2.671875 L 2.84375 -2.671875 L 2.078125 -1.3125 C 1.960938 -1.113281 1.878906 -0.945312 1.828125 -0.8125 C 1.773438 -0.6875 1.738281 -0.578125 1.71875 -0.484375 C 1.71875 -0.484375 1.71875 -0.476562 1.71875 -0.46875 C 1.71875 -0.457031 1.71875 -0.445312 1.71875 -0.4375 C 1.71875 -0.382812 1.734375 -0.328125 1.765625 -0.265625 C 1.796875 -0.210938 1.847656 -0.179688 1.921875 -0.171875 C 1.929688 -0.160156 1.941406 -0.15625 1.953125 -0.15625 C 1.960938 -0.15625 1.972656 -0.15625 1.984375 -0.15625 C 2.046875 -0.15625 2.113281 -0.171875 2.1875 -0.203125 C 2.269531 -0.242188 2.351562 -0.304688 2.4375 -0.390625 C 2.550781 -0.492188 2.660156 -0.625 2.765625 -0.78125 C 2.867188 -0.9375 2.96875 -1.101562 3.0625 -1.28125 C 3.082031 -1.3125 3.101562 -1.328125 3.125 -1.328125 C 3.132812 -1.328125 3.148438 -1.320312 3.171875 -1.3125 Z M 0.90625 -0.296875 C 1.101562 -0.453125 1.304688 -0.707031 1.515625 -1.0625 C 1.546875 -1.125 1.582031 -1.203125 1.625 -1.296875 C 1.675781 -1.398438 1.722656 -1.507812 1.765625 -1.625 C 1.816406 -1.738281 1.859375 -1.851562 1.890625 -1.96875 C 1.921875 -2.082031 1.9375 -2.179688 1.9375 -2.265625 C 1.9375 -2.328125 1.925781 -2.378906 1.90625 -2.421875 C 1.894531 -2.472656 1.867188 -2.507812 1.828125 -2.53125 C 1.804688 -2.550781 1.773438 -2.5625 1.734375 -2.5625 C 1.648438 -2.5625 1.554688 -2.515625 1.453125 -2.421875 C 1.347656 -2.335938 1.238281 -2.222656 1.125 -2.078125 C 1.007812 -1.941406 0.90625 -1.796875 0.8125 -1.640625 C 0.71875 -1.472656 0.632812 -1.304688 0.5625 -1.140625 C 0.488281 -0.984375 0.441406 -0.832031 0.421875 -0.6875 C 0.410156 -0.632812 0.40625 -0.578125 0.40625 -0.515625 C 0.40625 -0.410156 0.425781 -0.332031 0.46875 -0.28125 C 0.507812 -0.226562 0.566406 -0.203125 0.640625 -0.203125 C 0.710938 -0.203125 0.800781 -0.234375 0.90625 -0.296875 Z M 0.90625 -0.296875 "/></g></g></g><g fill="#ffffff" fill-opacity="1"><g transform="translate(41.956308, 6.73566)"><g><path d="M 3.515625 -1.3125 C 3.535156 -1.300781 3.546875 -1.28125 3.546875 -1.25 C 3.546875 -1.238281 3.539062 -1.226562 3.53125 -1.21875 C 3.3125 -0.820312 3.082031 -0.519531 2.84375 -0.3125 C 2.601562 -0.101562 2.347656 0 2.078125 0 C 1.960938 0 1.863281 -0.015625 1.78125 -0.046875 C 1.707031 -0.0859375 1.65625 -0.132812 1.625 -0.1875 C 1.59375 -0.25 1.578125 -0.316406 1.578125 -0.390625 C 1.578125 -0.523438 1.628906 -0.6875 1.734375 -0.875 C 1.835938 -1.070312 1.984375 -1.300781 2.171875 -1.5625 L 2.234375 -1.640625 C 2.296875 -1.710938 2.363281 -1.800781 2.4375 -1.90625 C 2.507812 -2.007812 2.570312 -2.109375 2.625 -2.203125 C 2.6875 -2.296875 2.71875 -2.378906 2.71875 -2.453125 C 2.71875 -2.515625 2.679688 -2.546875 2.609375 -2.546875 C 2.597656 -2.546875 2.585938 -2.546875 2.578125 -2.546875 C 2.578125 -2.546875 2.570312 -2.546875 2.5625 -2.546875 C 2.5 -2.535156 2.429688 -2.507812 2.359375 -2.46875 C 2.285156 -2.4375 2.210938 -2.394531 2.140625 -2.34375 C 1.929688 -2.195312 1.742188 -2.03125 1.578125 -1.84375 C 1.421875 -1.65625 1.285156 -1.472656 1.171875 -1.296875 C 1.054688 -1.128906 0.972656 -1 0.921875 -0.90625 C 0.921875 -0.90625 0.914062 -0.894531 0.90625 -0.875 C 0.90625 -0.863281 0.890625 -0.832031 0.859375 -0.78125 C 0.828125 -0.726562 0.78125 -0.644531 0.71875 -0.53125 C 0.65625 -0.414062 0.5625 -0.253906 0.4375 -0.046875 L 0 -0.046875 L 1.46875 -2.671875 L 1.90625 -2.671875 L 1.5 -1.921875 C 1.613281 -2.054688 1.734375 -2.1875 1.859375 -2.3125 C 1.992188 -2.4375 2.128906 -2.535156 2.265625 -2.609375 C 2.410156 -2.679688 2.546875 -2.71875 2.671875 -2.71875 C 2.734375 -2.71875 2.789062 -2.707031 2.84375 -2.6875 C 2.894531 -2.675781 2.9375 -2.644531 2.96875 -2.59375 C 2.976562 -2.570312 2.988281 -2.546875 3 -2.515625 C 3.007812 -2.484375 3.015625 -2.445312 3.015625 -2.40625 C 3.015625 -2.3125 2.984375 -2.1875 2.921875 -2.03125 C 2.859375 -1.882812 2.75 -1.703125 2.59375 -1.484375 C 2.5 -1.335938 2.394531 -1.179688 2.28125 -1.015625 C 2.164062 -0.859375 2.078125 -0.71875 2.015625 -0.59375 C 1.972656 -0.5 1.953125 -0.421875 1.953125 -0.359375 C 1.953125 -0.296875 1.972656 -0.25 2.015625 -0.21875 C 2.054688 -0.1875 2.109375 -0.171875 2.171875 -0.171875 C 2.242188 -0.171875 2.320312 -0.1875 2.40625 -0.21875 C 2.5 -0.25 2.59375 -0.300781 2.6875 -0.375 C 2.8125 -0.46875 2.929688 -0.585938 3.046875 -0.734375 C 3.171875 -0.890625 3.296875 -1.078125 3.421875 -1.296875 C 3.429688 -1.316406 3.445312 -1.328125 3.46875 -1.328125 C 3.476562 -1.328125 3.492188 -1.320312 3.515625 -1.3125 Z M 3.515625 -1.3125 "/></g></g></g><g fill="#ffffff" fill-opacity="1"><g transform="translate(45.163328, 6.73566)"><g><path d="M 3.171875 -1.3125 C 3.191406 -1.300781 3.203125 -1.28125 3.203125 -1.25 C 3.203125 -1.238281 3.195312 -1.226562 3.1875 -1.21875 C 3.082031 -1.019531 2.960938 -0.828125 2.828125 -0.640625 C 2.703125 -0.453125 2.566406 -0.296875 2.421875 -0.171875 C 2.273438 -0.0546875 2.113281 0 1.9375 0 C 1.757812 0 1.617188 -0.0390625 1.515625 -0.125 C 1.410156 -0.21875 1.359375 -0.34375 1.359375 -0.5 C 1.359375 -0.519531 1.359375 -0.535156 1.359375 -0.546875 C 1.359375 -0.566406 1.363281 -0.582031 1.375 -0.59375 C 1.238281 -0.40625 1.097656 -0.257812 0.953125 -0.15625 C 0.804688 -0.0507812 0.664062 0 0.53125 0 L 0.515625 0 C 0.390625 0 0.285156 -0.0234375 0.203125 -0.078125 C 0.128906 -0.140625 0.078125 -0.210938 0.046875 -0.296875 C 0.015625 -0.390625 0 -0.488281 0 -0.59375 C 0 -0.613281 0 -0.628906 0 -0.640625 C 0 -0.660156 0 -0.679688 0 -0.703125 C 0.0195312 -0.859375 0.0625 -1.019531 0.125 -1.1875 C 0.195312 -1.363281 0.285156 -1.535156 0.390625 -1.703125 C 0.546875 -1.960938 0.695312 -2.164062 0.84375 -2.3125 C 1 -2.457031 1.140625 -2.5625 1.265625 -2.625 C 1.398438 -2.6875 1.523438 -2.71875 1.640625 -2.71875 C 1.679688 -2.71875 1.722656 -2.710938 1.765625 -2.703125 C 1.804688 -2.691406 1.84375 -2.679688 1.875 -2.671875 C 1.945312 -2.640625 2 -2.585938 2.03125 -2.515625 C 2.070312 -2.453125 2.09375 -2.378906 2.09375 -2.296875 C 2.09375 -2.265625 2.085938 -2.226562 2.078125 -2.1875 C 2.078125 -2.15625 2.070312 -2.117188 2.0625 -2.078125 L 2.390625 -2.671875 L 2.84375 -2.671875 L 2.078125 -1.3125 C 1.960938 -1.113281 1.878906 -0.945312 1.828125 -0.8125 C 1.773438 -0.6875 1.738281 -0.578125 1.71875 -0.484375 C 1.71875 -0.484375 1.71875 -0.476562 1.71875 -0.46875 C 1.71875 -0.457031 1.71875 -0.445312 1.71875 -0.4375 C 1.71875 -0.382812 1.734375 -0.328125 1.765625 -0.265625 C 1.796875 -0.210938 1.847656 -0.179688 1.921875 -0.171875 C 1.929688 -0.160156 1.941406 -0.15625 1.953125 -0.15625 C 1.960938 -0.15625 1.972656 -0.15625 1.984375 -0.15625 C 2.046875 -0.15625 2.113281 -0.171875 2.1875 -0.203125 C 2.269531 -0.242188 2.351562 -0.304688 2.4375 -0.390625 C 2.550781 -0.492188 2.660156 -0.625 2.765625 -0.78125 C 2.867188 -0.9375 2.96875 -1.101562 3.0625 -1.28125 C 3.082031 -1.3125 3.101562 -1.328125 3.125 -1.328125 C 3.132812 -1.328125 3.148438 -1.320312 3.171875 -1.3125 Z M 0.90625 -0.296875 C 1.101562 -0.453125 1.304688 -0.707031 1.515625 -1.0625 C 1.546875 -1.125 1.582031 -1.203125 1.625 -1.296875 C 1.675781 -1.398438 1.722656 -1.507812 1.765625 -1.625 C 1.816406 -1.738281 1.859375 -1.851562 1.890625 -1.96875 C 1.921875 -2.082031 1.9375 -2.179688 1.9375 -2.265625 C 1.9375 -2.328125 1.925781 -2.378906 1.90625 -2.421875 C 1.894531 -2.472656 1.867188 -2.507812 1.828125 -2.53125 C 1.804688 -2.550781 1.773438 -2.5625 1.734375 -2.5625 C 1.648438 -2.5625 1.554688 -2.515625 1.453125 -2.421875 C 1.347656 -2.335938 1.238281 -2.222656 1.125 -2.078125 C 1.007812 -1.941406 0.90625 -1.796875 0.8125 -1.640625 C 0.71875 -1.472656 0.632812 -1.304688 0.5625 -1.140625 C 0.488281 -0.984375 0.441406 -0.832031 0.421875 -0.6875 C 0.410156 -0.632812 0.40625 -0.578125 0.40625 -0.515625 C 0.40625 -0.410156 0.425781 -0.332031 0.46875 -0.28125 C 0.507812 -0.226562 0.566406 -0.203125 0.640625 -0.203125 C 0.710938 -0.203125 0.800781 -0.234375 0.90625 -0.296875 Z M 0.90625 -0.296875 "/></g></g></g><g clip-path="url(#3f3651ba6f)"><g fill="#ffffff" fill-opacity="1"><g transform="translate(48.018749, 6.73566)"><g><path d="M 0.703125 -1.3125 C 0.609375 -1.125 0.53125 -0.960938 0.46875 -0.828125 C 0.414062 -0.691406 0.378906 -0.578125 0.359375 -0.484375 C 0.359375 -0.484375 0.359375 -0.476562 0.359375 -0.46875 C 0.359375 -0.457031 0.359375 -0.445312 0.359375 -0.4375 C 0.359375 -0.382812 0.375 -0.332031 0.40625 -0.28125 C 0.4375 -0.226562 0.492188 -0.191406 0.578125 -0.171875 C 0.628906 -0.160156 0.671875 -0.15625 0.703125 -0.15625 C 0.816406 -0.15625 0.921875 -0.179688 1.015625 -0.234375 C 1.117188 -0.296875 1.210938 -0.367188 1.296875 -0.453125 C 1.378906 -0.546875 1.445312 -0.632812 1.5 -0.71875 C 1.5625 -0.800781 1.609375 -0.867188 1.640625 -0.921875 C 1.679688 -0.972656 1.71875 -1.03125 1.75 -1.09375 C 1.789062 -1.15625 1.828125 -1.222656 1.859375 -1.296875 C 1.867188 -1.316406 1.890625 -1.328125 1.921875 -1.328125 C 1.929688 -1.328125 1.941406 -1.320312 1.953125 -1.3125 C 1.972656 -1.300781 1.984375 -1.28125 1.984375 -1.25 C 1.984375 -1.238281 1.984375 -1.226562 1.984375 -1.21875 C 1.878906 -1.050781 1.773438 -0.878906 1.671875 -0.703125 C 1.566406 -0.535156 1.453125 -0.394531 1.328125 -0.28125 C 1.191406 -0.15625 1.0625 -0.078125 0.9375 -0.046875 C 0.8125 -0.015625 0.691406 0 0.578125 0 C 0.398438 0 0.257812 -0.0390625 0.15625 -0.125 C 0.0625 -0.207031 0.015625 -0.332031 0.015625 -0.5 C 0.015625 -0.695312 0.0976562 -0.953125 0.265625 -1.265625 L 0.78125 -2.28125 C 0.84375 -2.394531 0.910156 -2.515625 0.984375 -2.640625 C 1.054688 -2.765625 1.128906 -2.882812 1.203125 -3 C 1.304688 -3.144531 1.410156 -3.28125 1.515625 -3.40625 C 1.617188 -3.539062 1.722656 -3.65625 1.828125 -3.75 C 1.960938 -3.882812 2.082031 -3.96875 2.1875 -4 C 2.300781 -4.039062 2.390625 -4.0625 2.453125 -4.0625 C 2.484375 -4.0625 2.507812 -4.054688 2.53125 -4.046875 C 2.550781 -4.046875 2.5625 -4.046875 2.5625 -4.046875 C 2.613281 -4.023438 2.648438 -3.992188 2.671875 -3.953125 C 2.691406 -3.910156 2.703125 -3.863281 2.703125 -3.8125 C 2.703125 -3.707031 2.660156 -3.582031 2.578125 -3.4375 C 2.503906 -3.289062 2.394531 -3.132812 2.25 -2.96875 C 2.113281 -2.8125 1.945312 -2.648438 1.75 -2.484375 C 1.550781 -2.316406 1.332031 -2.164062 1.09375 -2.03125 Z M 2.5625 -3.8125 C 2.5625 -3.84375 2.550781 -3.867188 2.53125 -3.890625 C 2.519531 -3.921875 2.492188 -3.9375 2.453125 -3.9375 C 2.398438 -3.9375 2.34375 -3.914062 2.28125 -3.875 C 2.164062 -3.800781 2.039062 -3.660156 1.90625 -3.453125 C 1.769531 -3.242188 1.613281 -2.972656 1.4375 -2.640625 L 1.21875 -2.265625 C 1.5 -2.453125 1.738281 -2.644531 1.9375 -2.84375 C 2.144531 -3.039062 2.300781 -3.226562 2.40625 -3.40625 C 2.507812 -3.582031 2.5625 -3.71875 2.5625 -3.8125 Z M 2.5625 -3.8125 "/></g></g></g></g></g></g></svg>