<svg xmlns="http://www.w3.org/2000/svg" xmlns:xlink="http://www.w3.org/1999/xlink" width="200" zoomAndPan="magnify" viewBox="0 0 150 149.999998" height="200" preserveAspectRatio="xMidYMid meet" version="1.0"><defs><g/><clipPath id="303bc85eec"><path d="M 54.34375 31.921875 L 95.652344 31.921875 L 95.652344 73.230469 L 54.34375 73.230469 Z M 54.34375 31.921875 " clip-rule="nonzero"/></clipPath><clipPath id="1da24315b7"><path d="M 75 31.921875 C 63.59375 31.921875 54.34375 41.167969 54.34375 52.574219 C 54.34375 63.980469 63.59375 73.230469 75 73.230469 C 86.40625 73.230469 95.652344 63.980469 95.652344 52.574219 C 95.652344 41.167969 86.40625 31.921875 75 31.921875 Z M 75 31.921875 " clip-rule="nonzero"/></clipPath><clipPath id="ad374c45f6"><path d="M 0.34375 0.921875 L 41.652344 0.921875 L 41.652344 42.230469 L 0.34375 42.230469 Z M 0.34375 0.921875 " clip-rule="nonzero"/></clipPath><clipPath id="23f376be56"><path d="M 21 0.921875 C 9.59375 0.921875 0.34375 10.167969 0.34375 21.574219 C 0.34375 32.980469 9.59375 42.230469 21 42.230469 C 32.40625 42.230469 41.652344 32.980469 41.652344 21.574219 C 41.652344 10.167969 32.40625 0.921875 21 0.921875 Z M 21 0.921875 " clip-rule="nonzero"/></clipPath><clipPath id="af85e279e0"><rect x="0" width="42" y="0" height="43"/></clipPath><clipPath id="19452f3f3f"><rect x="0" width="125" y="0" height="56"/></clipPath><clipPath id="f71f0b6e03"><path d="M 44.777344 42.058594 L 105.527344 42.058594 L 105.527344 65.308594 L 44.777344 65.308594 Z M 44.777344 42.058594 " clip-rule="nonzero"/></clipPath><clipPath id="1f59072646"><rect x="0" width="96" y="0" height="18"/></clipPath></defs><g clip-path="url(#303bc85eec)"><g clip-path="url(#1da24315b7)"><g transform="matrix(1, 0, 0, 1, 54, 31)"><g clip-path="url(#af85e279e0)"><g clip-path="url(#ad374c45f6)"><g clip-path="url(#23f376be56)"><path fill="#ffffff" d="M 0.34375 0.921875 L 41.652344 0.921875 L 41.652344 42.230469 L 0.34375 42.230469 Z M 0.34375 0.921875 " fill-opacity="1" fill-rule="nonzero"/></g></g></g></g></g></g><g transform="matrix(1, 0, 0, 1, 12, 58)"><g clip-path="url(#19452f3f3f)"><g fill="#ffffff" fill-opacity="1"><g transform="translate(1.699548, 43.087697)"><g><path d="M 7.953125 -28.46875 C 7.671875 -28.46875 7.414062 -28.328125 7.1875 -28.046875 L 7.1875 -16.546875 L 12.734375 -16.546875 L 12.734375 -15.53125 L 10.625 -14.46875 L 7.1875 -14.46875 L 7.1875 -6.515625 C 7.1875 -5.472656 7.300781 -4.722656 7.53125 -4.265625 C 7.757812 -3.816406 8.222656 -3.59375 8.921875 -3.59375 L 8.921875 -2.28125 L 0.25 1.359375 L -0.421875 0 C 0.191406 0 0.785156 -0.363281 1.359375 -1.09375 C 1.859375 -1.800781 2.109375 -2.875 2.109375 -4.3125 L 2.109375 -28.6875 C 2.109375 -28.882812 3.722656 -29.582031 6.953125 -30.78125 C 10.191406 -31.976562 12.050781 -32.578125 12.53125 -32.578125 C 12.695312 -32.578125 12.890625 -32.164062 13.109375 -31.34375 C 13.335938 -30.53125 13.597656 -29.546875 13.890625 -28.390625 C 14.191406 -27.234375 14.503906 -26.378906 14.828125 -25.828125 C 15.148438 -25.273438 15.765625 -25 16.671875 -25 L 16.671875 -24.15625 C 16.046875 -23.875 14.992188 -23.375 13.515625 -22.65625 C 12.035156 -21.9375 11.238281 -21.578125 11.125 -21.578125 C 10.707031 -21.578125 10.171875 -22.722656 9.515625 -25.015625 C 8.867188 -27.316406 8.347656 -28.46875 7.953125 -28.46875 Z M 7.953125 -28.46875 "/></g></g></g><g fill="#ffffff" fill-opacity="1"><g transform="translate(16.552984, 43.087697)"><g><path d="M 15.234375 -18.53125 L 15.234375 -6.5625 C 15.234375 -5.519531 15.398438 -4.789062 15.734375 -4.375 C 16.078125 -3.96875 16.601562 -3.679688 17.3125 -3.515625 L 17.3125 -2.578125 L 12.6875 0 C 12.070312 -0.25 11.492188 -0.660156 10.953125 -1.234375 C 10.421875 -1.816406 10.15625 -2.347656 10.15625 -2.828125 L 4.859375 0 C 4.773438 -0.0507812 4.648438 -0.125 4.484375 -0.21875 C 4.316406 -0.320312 4.023438 -0.535156 3.609375 -0.859375 C 3.203125 -1.191406 2.84375 -1.539062 2.53125 -1.90625 C 1.6875 -2.832031 1.265625 -3.890625 1.265625 -5.078125 L 1.265625 -12.015625 C 1.265625 -12.460938 2 -13.039062 3.46875 -13.75 C 4.9375 -14.457031 6.40625 -15.035156 7.875 -15.484375 L 10.109375 -16.203125 C 10.109375 -17.816406 9.6875 -18.9375 8.84375 -19.5625 C 8 -20.195312 6.363281 -20.515625 3.9375 -20.515625 L 3.9375 -21.796875 C 8.3125 -23.347656 10.765625 -24.125 11.296875 -24.125 C 12.222656 -24.125 13.109375 -23.515625 13.953125 -22.296875 C 14.804688 -21.085938 15.234375 -19.832031 15.234375 -18.53125 Z M 6.34375 -6.59375 C 6.34375 -5.863281 6.5625 -5.265625 7 -4.796875 C 7.4375 -4.335938 7.921875 -4.109375 8.453125 -4.109375 C 8.992188 -4.109375 9.5625 -4.316406 10.15625 -4.734375 L 10.15625 -14.296875 C 9.445312 -14.046875 8.914062 -13.832031 8.5625 -13.65625 C 8.21875 -13.488281 7.847656 -13.222656 7.453125 -12.859375 C 6.710938 -12.179688 6.34375 -11.007812 6.34375 -9.34375 Z M 6.34375 -6.59375 "/></g></g></g><g fill="#ffffff" fill-opacity="1"><g transform="translate(33.903153, 43.087697)"><g><path d="M 7.1875 -6.59375 C 7.1875 -5.863281 7.40625 -5.265625 7.84375 -4.796875 C 8.28125 -4.335938 8.765625 -4.109375 9.296875 -4.109375 C 9.835938 -4.109375 10.40625 -4.316406 11 -4.734375 L 11 -17.890625 C 11 -19.617188 10.421875 -20.59375 9.265625 -20.8125 L 9.265625 -21.75 L 13.546875 -24.15625 C 14.160156 -23.90625 14.734375 -23.488281 15.265625 -22.90625 C 15.804688 -22.332031 16.078125 -21.789062 16.078125 -21.28125 L 16.078125 -6.9375 C 16.078125 -6.007812 16.273438 -5.207031 16.671875 -4.53125 C 17.066406 -3.851562 17.5625 -3.515625 18.15625 -3.515625 L 18.15625 -2.578125 C 17.957031 -2.546875 16.421875 -1.6875 13.546875 0 C 12.890625 -0.28125 12.300781 -0.695312 11.78125 -1.25 C 11.257812 -1.800781 11 -2.328125 11 -2.828125 L 5.71875 0 C 5.625 -0.0507812 5.492188 -0.125 5.328125 -0.21875 C 5.160156 -0.320312 4.867188 -0.535156 4.453125 -0.859375 C 4.046875 -1.191406 3.691406 -1.539062 3.390625 -1.90625 C 2.535156 -2.832031 2.109375 -3.890625 2.109375 -5.078125 L 2.109375 -17.890625 C 2.109375 -19.441406 1.421875 -20.363281 0.046875 -20.65625 L 0.046875 -21.578125 L 4.65625 -24.15625 C 5.269531 -23.90625 5.84375 -23.488281 6.375 -22.90625 C 6.914062 -22.332031 7.1875 -21.789062 7.1875 -21.28125 Z M 7.1875 -6.59375 "/></g></g></g><g fill="#ffffff" fill-opacity="1"><g transform="translate(52.099671, 43.087697)"><g><path d="M 4.0625 -9.265625 C 3.351562 -9.265625 2.742188 -9.800781 2.234375 -10.875 C 1.734375 -11.945312 1.484375 -13.257812 1.484375 -14.8125 L 1.484375 -19.375 C 1.484375 -19.914062 2.960938 -20.84375 5.921875 -22.15625 C 8.878906 -23.46875 10.585938 -24.125 11.046875 -24.125 C 11.296875 -24.125 11.519531 -23.972656 11.71875 -23.671875 C 11.914062 -23.378906 12.070312 -23.140625 12.1875 -22.953125 C 12.300781 -22.765625 12.476562 -22.453125 12.71875 -22.015625 C 12.957031 -21.585938 13.160156 -21.226562 13.328125 -20.9375 C 13.691406 -20.257812 14.15625 -19.921875 14.71875 -19.921875 L 14.71875 -19.078125 C 14.269531 -18.878906 13.679688 -18.582031 12.953125 -18.1875 C 11.140625 -17.207031 10.164062 -16.71875 10.03125 -16.71875 C 9.601562 -16.71875 9.140625 -17.40625 8.640625 -18.78125 C 8.148438 -20.164062 7.707031 -20.859375 7.3125 -20.859375 C 6.8125 -20.859375 6.5625 -20.4375 6.5625 -19.59375 L 6.5625 -14.390625 C 6.5625 -13.253906 6.8125 -12.6875 7.3125 -12.6875 C 7.425781 -12.6875 8.300781 -13.050781 9.9375 -13.78125 C 11.570312 -14.519531 12.5625 -14.890625 12.90625 -14.890625 C 13.582031 -14.890625 14.179688 -14.347656 14.703125 -13.265625 C 15.222656 -12.179688 15.484375 -10.789062 15.484375 -9.09375 L 15.484375 -4.3125 C 15.484375 -3.78125 13.867188 -2.859375 10.640625 -1.546875 C 7.410156 -0.234375 5.554688 0.421875 5.078125 0.421875 C 4.878906 0.421875 4.6875 0.242188 4.5 -0.109375 C 4.320312 -0.460938 4.070312 -1.003906 3.75 -1.734375 C 3.425781 -2.460938 3.109375 -3.082031 2.796875 -3.59375 C 2.429688 -4.269531 1.960938 -4.609375 1.390625 -4.609375 L 1.390625 -5.453125 C 1.847656 -5.648438 2.457031 -5.945312 3.21875 -6.34375 C 4.988281 -7.332031 5.945312 -7.828125 6.09375 -7.828125 C 6.519531 -7.828125 7.046875 -6.992188 7.671875 -5.328125 C 8.304688 -3.660156 8.820312 -2.828125 9.21875 -2.828125 C 9.5 -2.828125 9.765625 -2.941406 10.015625 -3.171875 C 10.273438 -3.398438 10.40625 -3.710938 10.40625 -4.109375 L 10.40625 -9.390625 C 10.40625 -10.660156 10.050781 -11.296875 9.34375 -11.296875 C 9.125 -11.296875 8.238281 -10.957031 6.6875 -10.28125 C 5.132812 -9.601562 4.257812 -9.265625 4.0625 -9.265625 Z M 4.0625 -9.265625 "/></g></g></g><g fill="#ffffff" fill-opacity="1"><g transform="translate(69.23825, 43.087697)"><g><path d="M 7.1875 -28.515625 L 7.1875 -23.484375 L 9.34375 -23.484375 L 8.921875 -21.40625 L 7.1875 -21.40625 L 7.1875 -6.265625 C 7.1875 -4.546875 7.765625 -3.570312 8.921875 -3.34375 L 8.921875 -2.40625 L 4.65625 0 C 4.03125 -0.25 3.445312 -0.660156 2.90625 -1.234375 C 2.375 -1.816406 2.109375 -2.363281 2.109375 -2.875 L 2.109375 -21.375 L 0.375 -21.375 L 0.796875 -23.140625 C 1.648438 -23.140625 2.675781 -23.710938 3.875 -24.859375 C 5.070312 -26.003906 5.785156 -27.222656 6.015625 -28.515625 Z M 7.1875 -28.515625 "/></g></g></g><g fill="#ffffff" fill-opacity="1"><g transform="translate(78.548097, 43.087697)"><g><path d="M 7.1875 -21.234375 L 7.1875 -6.265625 C 7.1875 -4.546875 7.765625 -3.570312 8.921875 -3.34375 L 8.921875 -2.40625 L 4.65625 0 C 4.03125 -0.25 3.445312 -0.660156 2.90625 -1.234375 C 2.375 -1.816406 2.109375 -2.363281 2.109375 -2.875 L 2.109375 -17.859375 C 2.109375 -19.578125 1.53125 -20.550781 0.375 -20.78125 L 0.375 -21.703125 L 4.65625 -24.125 C 5.269531 -23.863281 5.84375 -23.441406 6.375 -22.859375 C 6.914062 -22.285156 7.1875 -21.742188 7.1875 -21.234375 Z M 1.484375 -29.40625 L 1.484375 -31.984375 C 1.484375 -32.066406 2.066406 -32.328125 3.234375 -32.765625 C 4.410156 -33.203125 5.085938 -33.421875 5.265625 -33.421875 C 5.453125 -33.421875 5.71875 -33.179688 6.0625 -32.703125 C 6.414062 -32.222656 6.59375 -31.726562 6.59375 -31.21875 L 6.59375 -28.140625 C 6.59375 -28.054688 6.03125 -27.796875 4.90625 -27.359375 C 3.78125 -26.921875 3.085938 -26.703125 2.828125 -26.703125 C 2.578125 -26.703125 2.289062 -26.945312 1.96875 -27.4375 C 1.644531 -27.9375 1.484375 -28.59375 1.484375 -29.40625 Z M 1.484375 -29.40625 "/></g></g></g><g fill="#ffffff" fill-opacity="1"><g transform="translate(87.857944, 43.087697)"><g><path d="M 2.109375 -2.875 L 2.109375 -17.21875 C 2.109375 -18.15625 1.910156 -18.960938 1.515625 -19.640625 C 1.128906 -20.316406 0.640625 -20.65625 0.046875 -20.65625 L 0.046875 -21.578125 C 0.242188 -21.609375 1.78125 -22.46875 4.65625 -24.15625 C 4.851562 -24.101562 5.09375 -24.023438 5.375 -23.921875 C 5.65625 -23.828125 6.023438 -23.550781 6.484375 -23.09375 C 6.953125 -22.644531 7.1875 -22.125 7.1875 -21.53125 C 7.363281 -21.613281 7.84375 -21.882812 8.625 -22.34375 C 10.71875 -23.53125 11.960938 -24.125 12.359375 -24.125 C 13.253906 -24.125 14.097656 -23.53125 14.890625 -22.34375 C 15.679688 -21.15625 16.078125 -20.066406 16.078125 -19.078125 L 16.078125 -6.265625 C 16.078125 -4.710938 16.769531 -3.796875 18.15625 -3.515625 L 18.15625 -2.578125 L 13.546875 0 C 12.921875 -0.25 12.335938 -0.660156 11.796875 -1.234375 C 11.265625 -1.816406 11 -2.363281 11 -2.875 L 11 -15.140625 C 11 -16.722656 10.820312 -17.929688 10.46875 -18.765625 C 10.113281 -19.597656 9.488281 -20.015625 8.59375 -20.015625 L 7.1875 -19.765625 L 7.1875 -6.265625 C 7.1875 -4.546875 7.765625 -3.570312 8.921875 -3.34375 L 8.921875 -2.40625 L 4.65625 0 C 4.03125 -0.25 3.445312 -0.660156 2.90625 -1.234375 C 2.375 -1.816406 2.109375 -2.363281 2.109375 -2.875 Z M 2.109375 -2.875 "/></g></g></g><g fill="#ffffff" fill-opacity="1"><g transform="translate(106.054459, 43.087697)"><g><path d="M 2.109375 -6.171875 L 2.109375 -20.21875 C 2.109375 -20.414062 3.71875 -21.113281 6.9375 -22.3125 C 10.15625 -23.519531 12.003906 -24.125 12.484375 -24.125 C 12.960938 -24.125 13.6875 -23.546875 14.65625 -22.390625 C 15.632812 -21.234375 16.125 -20.1875 16.125 -19.25 L 16.125 -3.9375 C 16.125 -3.707031 14.578125 -2.992188 11.484375 -1.796875 C 8.398438 -0.597656 6.507812 0 5.8125 0 C 5.125 0 4.332031 -0.601562 3.4375 -1.8125 C 2.550781 -3.03125 2.109375 -4.484375 2.109375 -6.171875 Z M 9.34375 -3.890625 C 9.882812 -3.890625 10.4375 -4.113281 11 -4.5625 L 11 -17.046875 C 11 -19.140625 10.28125 -20.1875 8.84375 -20.1875 C 8.28125 -20.1875 7.726562 -19.972656 7.1875 -19.546875 L 7.1875 -7.03125 C 7.1875 -4.9375 7.90625 -3.890625 9.34375 -3.890625 Z M 9.34375 -3.890625 "/></g></g></g></g></g><g clip-path="url(#f71f0b6e03)"><path fill="#ffffff" d="M 94.476562 45.074219 C 90.222656 47.292969 80.605469 43.609375 75.042969 43.609375 C 69.9375 43.609375 61.628906 47.273438 58.789062 46.496094 C 56.605469 45.898438 54.769531 44.449219 52.730469 43.464844 C 49.820312 42.058594 47.414062 42.476562 44.800781 44.179688 C 46.9375 43.1875 49.542969 43.273438 51.605469 44.402344 C 53.273438 45.3125 54.535156 46.816406 56.144531 47.820312 C 59.183594 49.71875 63.082031 49.621094 66.566406 48.800781 C 58.871094 52.804688 66.386719 54.332031 68.269531 51.640625 C 70.394531 54.605469 71.5 58.285156 71.5 61.925781 C 71.5 64.78125 73.800781 65.167969 75 65.164062 C 76.273438 65.160156 78.707031 64.9375 78.707031 61.925781 C 78.707031 58.398438 79.976562 54.691406 81.746094 51.636719 C 84.410156 54.714844 90.027344 51.847656 83.4375 48.839844 C 86.28125 49.382812 90.070312 49.960938 92.949219 48.492188 C 95.109375 47.394531 96.6875 45.503906 98.878906 44.480469 C 100.847656 43.558594 103.226562 43.265625 105.191406 44.199219 C 103.589844 42.75 101.238281 42.179688 99.148438 42.726562 C 97.960938 43.042969 94.9375 44.832031 94.476562 45.074219 Z M 94.476562 45.074219 " fill-opacity="1" fill-rule="nonzero"/></g><g transform="matrix(1, 0, 0, 1, 28, 102)"><g clip-path="url(#1f59072646)"><g fill="#ffffff" fill-opacity="1"><g transform="translate(0.398238, 13.074823)"><g><path d="M 5.578125 -1.046875 L 5.578125 -2.9375 C 5.578125 -3.082031 5.554688 -3.175781 5.515625 -3.21875 C 5.472656 -3.269531 5.375 -3.296875 5.21875 -3.296875 L 1.84375 -3.296875 C 1.226562 -3.296875 0.921875 -3.601562 0.921875 -4.21875 L 0.921875 -6.296875 C 0.921875 -6.910156 1.226562 -7.21875 1.84375 -7.21875 L 5.640625 -7.21875 C 6.253906 -7.21875 6.5625 -6.910156 6.5625 -6.296875 L 6.5625 -5.15625 L 5.53125 -5.15625 L 5.53125 -6.171875 C 5.53125 -6.328125 5.507812 -6.425781 5.46875 -6.46875 C 5.425781 -6.507812 5.328125 -6.53125 5.171875 -6.53125 L 2.3125 -6.53125 C 2.164062 -6.53125 2.066406 -6.507812 2.015625 -6.46875 C 1.972656 -6.425781 1.953125 -6.328125 1.953125 -6.171875 L 1.953125 -4.34375 C 1.953125 -4.1875 1.972656 -4.085938 2.015625 -4.046875 C 2.066406 -4.003906 2.164062 -3.984375 2.3125 -3.984375 L 5.671875 -3.984375 C 6.285156 -3.984375 6.59375 -3.675781 6.59375 -3.0625 L 6.59375 -0.921875 C 6.59375 -0.304688 6.285156 0 5.671875 0 L 1.875 0 C 1.257812 0 0.953125 -0.304688 0.953125 -0.921875 L 0.953125 -2.0625 L 1.96875 -2.0625 L 1.96875 -1.046875 C 1.96875 -0.890625 1.988281 -0.789062 2.03125 -0.75 C 2.082031 -0.707031 2.179688 -0.6875 2.328125 -0.6875 L 5.21875 -0.6875 C 5.375 -0.6875 5.472656 -0.707031 5.515625 -0.75 C 5.554688 -0.789062 5.578125 -0.890625 5.578125 -1.046875 Z M 5.578125 -1.046875 "/></g></g></g><g fill="#ffffff" fill-opacity="1"><g transform="translate(9.922528, 13.074823)"><g><path d="M 6.4375 -7.21875 L 6.4375 -6.53125 L 3.78125 -6.53125 L 3.78125 0 L 2.78125 0 L 2.78125 -6.53125 L 0.109375 -6.53125 L 0.109375 -7.21875 Z M 6.4375 -7.21875 "/></g></g></g><g fill="#ffffff" fill-opacity="1"><g transform="translate(18.482805, 13.074823)"><g><path d="M 2.1875 -0.6875 L 6.234375 -0.6875 L 6.234375 0 L 1.15625 0 L 1.15625 -7.21875 L 6.078125 -7.21875 L 6.078125 -6.53125 L 2.1875 -6.53125 L 2.1875 -4.046875 L 5.59375 -4.046875 L 5.59375 -3.359375 L 2.1875 -3.359375 Z M 2.1875 -0.6875 "/></g></g></g><g fill="#ffffff" fill-opacity="1"><g transform="translate(27.298604, 13.074823)"><g><path d="M 2.234375 -2.109375 L 5.671875 -2.109375 L 3.953125 -6.53125 Z M 6.5 0 L 5.9375 -1.421875 L 1.96875 -1.421875 L 1.421875 0 L 0.40625 0 L 3.21875 -7.21875 L 4.6875 -7.21875 L 7.515625 0 Z M 6.5 0 "/></g></g></g><g fill="#ffffff" fill-opacity="1"><g transform="translate(37.217787, 13.074823)"><g><path d="M 6.078125 -7.21875 L 7.328125 -7.21875 L 3.71875 -3.6875 L 7.484375 0 L 6.203125 0 L 2.46875 -3.6875 Z M 1.15625 -7.21875 L 2.15625 -7.21875 L 2.15625 0 L 1.15625 0 Z M 1.15625 -7.21875 "/></g></g></g><g fill="#ffffff" fill-opacity="1"><g transform="translate(46.962753, 13.074823)"><g><path d="M 6.453125 -7.21875 L 7.46875 -7.21875 L 7.46875 0 L 6.453125 0 L 6.453125 -3.28125 L 2.1875 -3.28125 L 2.1875 0 L 1.15625 0 L 1.15625 -7.21875 L 2.1875 -7.21875 L 2.1875 -3.953125 L 6.453125 -3.953125 Z M 6.453125 -7.21875 "/></g></g></g><g fill="#ffffff" fill-opacity="1"><g transform="translate(57.602044, 13.074823)"><g><path d="M 6.671875 -6.296875 L 6.671875 -0.921875 C 6.671875 -0.304688 6.367188 0 5.765625 0 L 1.96875 0 C 1.351562 0 1.046875 -0.304688 1.046875 -0.921875 L 1.046875 -6.296875 C 1.046875 -6.910156 1.351562 -7.21875 1.96875 -7.21875 L 5.765625 -7.21875 C 6.367188 -7.21875 6.671875 -6.910156 6.671875 -6.296875 Z M 5.671875 -1.046875 L 5.671875 -6.171875 C 5.671875 -6.328125 5.648438 -6.425781 5.609375 -6.46875 C 5.566406 -6.507812 5.46875 -6.53125 5.3125 -6.53125 L 2.421875 -6.53125 C 2.265625 -6.53125 2.164062 -6.507812 2.125 -6.46875 C 2.082031 -6.425781 2.0625 -6.328125 2.0625 -6.171875 L 2.0625 -1.046875 C 2.0625 -0.890625 2.082031 -0.789062 2.125 -0.75 C 2.164062 -0.707031 2.265625 -0.6875 2.421875 -0.6875 L 5.3125 -0.6875 C 5.46875 -0.6875 5.566406 -0.707031 5.609375 -0.75 C 5.648438 -0.789062 5.671875 -0.890625 5.671875 -1.046875 Z M 5.671875 -1.046875 "/></g></g></g><g fill="#ffffff" fill-opacity="1"><g transform="translate(67.323783, 13.074823)"><g><path d="M 2.0625 -7.21875 L 2.0625 -1.046875 C 2.0625 -0.890625 2.082031 -0.789062 2.125 -0.75 C 2.164062 -0.707031 2.265625 -0.6875 2.421875 -0.6875 L 5.53125 -0.6875 C 5.6875 -0.6875 5.785156 -0.707031 5.828125 -0.75 C 5.867188 -0.789062 5.890625 -0.890625 5.890625 -1.046875 L 5.890625 -7.21875 L 6.890625 -7.21875 L 6.890625 -0.921875 C 6.890625 -0.304688 6.582031 0 5.96875 0 L 1.96875 0 C 1.351562 0 1.046875 -0.304688 1.046875 -0.921875 L 1.046875 -7.21875 Z M 2.0625 -7.21875 "/></g></g></g><g fill="#ffffff" fill-opacity="1"><g transform="translate(77.254583, 13.074823)"><g><path d="M 5.578125 -1.046875 L 5.578125 -2.9375 C 5.578125 -3.082031 5.554688 -3.175781 5.515625 -3.21875 C 5.472656 -3.269531 5.375 -3.296875 5.21875 -3.296875 L 1.84375 -3.296875 C 1.226562 -3.296875 0.921875 -3.601562 0.921875 -4.21875 L 0.921875 -6.296875 C 0.921875 -6.910156 1.226562 -7.21875 1.84375 -7.21875 L 5.640625 -7.21875 C 6.253906 -7.21875 6.5625 -6.910156 6.5625 -6.296875 L 6.5625 -5.15625 L 5.53125 -5.15625 L 5.53125 -6.171875 C 5.53125 -6.328125 5.507812 -6.425781 5.46875 -6.46875 C 5.425781 -6.507812 5.328125 -6.53125 5.171875 -6.53125 L 2.3125 -6.53125 C 2.164062 -6.53125 2.066406 -6.507812 2.015625 -6.46875 C 1.972656 -6.425781 1.953125 -6.328125 1.953125 -6.171875 L 1.953125 -4.34375 C 1.953125 -4.1875 1.972656 -4.085938 2.015625 -4.046875 C 2.066406 -4.003906 2.164062 -3.984375 2.3125 -3.984375 L 5.671875 -3.984375 C 6.285156 -3.984375 6.59375 -3.675781 6.59375 -3.0625 L 6.59375 -0.921875 C 6.59375 -0.304688 6.285156 0 5.671875 0 L 1.875 0 C 1.257812 0 0.953125 -0.304688 0.953125 -0.921875 L 0.953125 -2.0625 L 1.96875 -2.0625 L 1.96875 -1.046875 C 1.96875 -0.890625 1.988281 -0.789062 2.03125 -0.75 C 2.082031 -0.707031 2.179688 -0.6875 2.328125 -0.6875 L 5.21875 -0.6875 C 5.375 -0.6875 5.472656 -0.707031 5.515625 -0.75 C 5.554688 -0.789062 5.578125 -0.890625 5.578125 -1.046875 Z M 5.578125 -1.046875 "/></g></g></g><g fill="#ffffff" fill-opacity="1"><g transform="translate(86.778865, 13.074823)"><g><path d="M 2.1875 -0.6875 L 6.234375 -0.6875 L 6.234375 0 L 1.15625 0 L 1.15625 -7.21875 L 6.078125 -7.21875 L 6.078125 -6.53125 L 2.1875 -6.53125 L 2.1875 -4.046875 L 5.59375 -4.046875 L 5.59375 -3.359375 L 2.1875 -3.359375 Z M 2.1875 -0.6875 "/></g></g></g></g></g></svg>