<svg xmlns="http://www.w3.org/2000/svg" xmlns:xlink="http://www.w3.org/1999/xlink" width="200" zoomAndPan="magnify" viewBox="0 0 150 149.999998" height="200" preserveAspectRatio="xMidYMid meet" version="1.0"><defs><g/><clipPath id="2b2193fcda"><rect x="0" width="124" y="0" height="28"/></clipPath><clipPath id="f294f6b060"><path d="M 41.929688 40.101562 L 107.929688 40.101562 L 107.929688 64 L 41.929688 64 Z M 41.929688 40.101562 " clip-rule="nonzero"/></clipPath><clipPath id="920b3baba9"><rect x="0" width="112" y="0" height="10"/></clipPath></defs><g transform="matrix(1, 0, 0, 1, 13, 68)"><g clip-path="url(#2b2193fcda)"><g fill="#ffffff" fill-opacity="1"><g transform="translate(1.214302, 20.213966)"><g><path d="M 8.5625 -10.0625 C 9.644531 -10 10.601562 -9.804688 11.4375 -9.484375 C 12.28125 -9.160156 12.9375 -8.648438 13.40625 -7.953125 C 13.882812 -7.253906 14.125 -6.296875 14.125 -5.078125 C 14.125 -3.691406 13.804688 -2.628906 13.171875 -1.890625 C 12.546875 -1.160156 11.695312 -0.664062 10.625 -0.40625 C 9.5625 -0.15625 8.363281 -0.0195312 7.03125 0 L 0.90625 0 L 0.90625 -18.265625 L 5.375 -18.265625 C 6.675781 -18.265625 7.851562 -18.125 8.90625 -17.84375 C 9.96875 -17.570312 10.8125 -17.132812 11.4375 -16.53125 C 12.0625 -15.925781 12.375 -15.125 12.375 -14.125 C 12.375 -12.96875 12 -12.054688 11.25 -11.390625 C 10.507812 -10.734375 9.613281 -10.289062 8.5625 -10.0625 Z M 12.109375 -5.078125 C 12.109375 -6.234375 11.953125 -7.132812 11.640625 -7.78125 C 11.328125 -8.4375 10.914062 -8.921875 10.40625 -9.234375 C 9.90625 -9.546875 9.359375 -9.738281 8.765625 -9.8125 C 8.179688 -9.894531 7.601562 -9.9375 7.03125 -9.9375 C 6.425781 -9.9375 5.851562 -10.101562 5.3125 -10.4375 C 4.769531 -10.769531 4.3125 -11.234375 3.9375 -11.828125 C 3.707031 -12.171875 3.507812 -12.5625 3.34375 -13 C 3.1875 -13.4375 3.054688 -13.90625 2.953125 -14.40625 L 2.953125 -0.203125 L 6.828125 -0.203125 C 7.410156 -0.203125 8.007812 -0.238281 8.625 -0.3125 C 9.238281 -0.394531 9.804688 -0.585938 10.328125 -0.890625 C 10.859375 -1.191406 11.285156 -1.675781 11.609375 -2.34375 C 11.941406 -3.007812 12.109375 -3.921875 12.109375 -5.078125 Z M 10.34375 -14.125 C 10.34375 -15.113281 10.101562 -15.894531 9.625 -16.46875 C 9.144531 -17.050781 8.523438 -17.46875 7.765625 -17.71875 C 7.003906 -17.96875 6.207031 -18.09375 5.375 -18.09375 L 2.953125 -18.09375 L 2.953125 -16.375 C 2.953125 -15.476562 3.054688 -14.65625 3.265625 -13.90625 C 3.472656 -13.15625 3.765625 -12.503906 4.140625 -11.953125 C 4.898438 -10.742188 5.863281 -10.140625 7.03125 -10.140625 C 7.625 -10.140625 8.171875 -10.273438 8.671875 -10.546875 C 9.171875 -10.828125 9.570312 -11.257812 9.875 -11.84375 C 10.1875 -12.4375 10.34375 -13.195312 10.34375 -14.125 Z M 10.34375 -14.125 "/></g></g></g><g fill="#ffffff" fill-opacity="1"><g transform="translate(16.245401, 20.213966)"><g><path d="M 7.734375 -18.015625 C 8.941406 -18.359375 10.140625 -18.441406 11.328125 -18.265625 C 12.523438 -18.097656 13.632812 -17.710938 14.65625 -17.109375 C 15.6875 -16.503906 16.570312 -15.71875 17.3125 -14.75 C 18.050781 -13.78125 18.578125 -12.6875 18.890625 -11.46875 C 19.234375 -10.257812 19.320312 -9.054688 19.15625 -7.859375 C 19 -6.671875 18.617188 -5.554688 18.015625 -4.515625 C 17.421875 -3.484375 16.644531 -2.59375 15.6875 -1.84375 C 14.726562 -1.09375 13.640625 -0.554688 12.421875 -0.234375 C 11.210938 0.109375 10.007812 0.195312 8.8125 0.03125 C 7.625 -0.125 6.515625 -0.503906 5.484375 -1.109375 C 4.460938 -1.710938 3.582031 -2.492188 2.84375 -3.453125 C 2.101562 -4.410156 1.5625 -5.507812 1.21875 -6.75 C 0.882812 -7.976562 0.804688 -9.191406 0.984375 -10.390625 C 1.171875 -11.585938 1.5625 -12.695312 2.15625 -13.71875 C 2.75 -14.75 3.519531 -15.640625 4.46875 -16.390625 C 5.425781 -17.140625 6.515625 -17.679688 7.734375 -18.015625 Z M 7.765625 -17.796875 C 6.660156 -17.523438 5.757812 -17.015625 5.0625 -16.265625 C 4.363281 -15.515625 3.835938 -14.628906 3.484375 -13.609375 C 3.140625 -12.585938 2.957031 -11.523438 2.9375 -10.421875 C 2.925781 -9.316406 3.050781 -8.273438 3.3125 -7.296875 C 3.570312 -6.316406 3.976562 -5.359375 4.53125 -4.421875 C 5.09375 -3.492188 5.773438 -2.671875 6.578125 -1.953125 C 7.378906 -1.234375 8.269531 -0.722656 9.25 -0.421875 C 10.238281 -0.117188 11.28125 -0.113281 12.375 -0.40625 C 13.476562 -0.707031 14.378906 -1.234375 15.078125 -1.984375 C 15.785156 -2.734375 16.3125 -3.613281 16.65625 -4.625 C 17.007812 -5.644531 17.203125 -6.707031 17.234375 -7.8125 C 17.265625 -8.914062 17.148438 -9.957031 16.890625 -10.9375 C 16.640625 -11.945312 16.226562 -12.921875 15.65625 -13.859375 C 15.082031 -14.796875 14.394531 -15.617188 13.59375 -16.328125 C 12.789062 -17.035156 11.894531 -17.535156 10.90625 -17.828125 C 9.925781 -18.117188 8.878906 -18.109375 7.765625 -17.796875 Z M 7.765625 -17.796875 "/></g></g></g><g fill="#ffffff" fill-opacity="1"><g transform="translate(36.398973, 20.213966)"><g><path d="M 8.234375 -10.09375 C 9.128906 -9.882812 9.851562 -9.484375 10.40625 -8.890625 C 10.957031 -8.304688 11.414062 -7.617188 11.78125 -6.828125 C 12.15625 -6.035156 12.515625 -5.234375 12.859375 -4.421875 C 13.179688 -3.679688 13.515625 -2.988281 13.859375 -2.34375 C 14.210938 -1.695312 14.601562 -1.175781 15.03125 -0.78125 C 15.46875 -0.394531 15.96875 -0.203125 16.53125 -0.203125 L 16.53125 0 C 15.1875 0 14.117188 -0.179688 13.328125 -0.546875 C 12.546875 -0.910156 11.957031 -1.390625 11.5625 -1.984375 C 11.164062 -2.578125 10.878906 -3.226562 10.703125 -3.9375 C 10.535156 -4.644531 10.40625 -5.347656 10.3125 -6.046875 C 10.21875 -6.753906 10.078125 -7.40625 9.890625 -8 C 9.710938 -8.601562 9.410156 -9.082031 8.984375 -9.4375 C 8.566406 -9.800781 7.941406 -9.984375 7.109375 -9.984375 C 5.804688 -9.984375 4.753906 -10.601562 3.953125 -11.84375 C 3.503906 -12.570312 3.171875 -13.460938 2.953125 -14.515625 L 2.953125 0 L 0.90625 0 L 0.90625 -18.296875 L 5.453125 -18.296875 C 6.734375 -18.296875 7.894531 -18.15625 8.9375 -17.875 C 9.976562 -17.601562 10.8125 -17.171875 11.4375 -16.578125 C 12.070312 -15.984375 12.390625 -15.191406 12.390625 -14.203125 C 12.390625 -13.359375 12.195312 -12.644531 11.8125 -12.0625 C 11.4375 -11.488281 10.929688 -11.039062 10.296875 -10.71875 C 9.671875 -10.40625 8.984375 -10.195312 8.234375 -10.09375 Z M 10.34375 -14.203125 C 10.34375 -15.191406 10.109375 -15.96875 9.640625 -16.53125 C 9.179688 -17.101562 8.582031 -17.503906 7.84375 -17.734375 C 7.101562 -17.972656 6.304688 -18.09375 5.453125 -18.09375 L 2.953125 -18.09375 L 2.953125 -16.484375 C 2.953125 -15.535156 3.054688 -14.6875 3.265625 -13.9375 C 3.484375 -13.195312 3.773438 -12.546875 4.140625 -11.984375 C 4.503906 -11.441406 4.941406 -11.003906 5.453125 -10.671875 C 5.972656 -10.335938 6.523438 -10.171875 7.109375 -10.171875 L 7.296875 -10.171875 C 8.117188 -10.222656 8.832031 -10.566406 9.4375 -11.203125 C 10.039062 -11.835938 10.34375 -12.835938 10.34375 -14.203125 Z M 10.34375 -14.203125 "/></g></g></g><g fill="#ffffff" fill-opacity="1"><g transform="translate(53.836081, 20.213966)"><g><path d="M 7.765625 -17.78125 C 6.660156 -17.46875 5.753906 -16.929688 5.046875 -16.171875 C 4.335938 -15.410156 3.804688 -14.519531 3.453125 -13.5 C 3.097656 -12.488281 2.90625 -11.429688 2.875 -10.328125 C 2.851562 -9.222656 2.960938 -8.175781 3.203125 -7.1875 C 3.484375 -6.207031 3.910156 -5.242188 4.484375 -4.296875 C 5.066406 -3.359375 5.757812 -2.535156 6.5625 -1.828125 C 7.375 -1.128906 8.273438 -0.628906 9.265625 -0.328125 C 10.265625 -0.0351562 11.316406 -0.0390625 12.421875 -0.34375 C 13.390625 -0.59375 14.195312 -1.023438 14.84375 -1.640625 C 15.488281 -2.253906 16 -2.976562 16.375 -3.8125 C 16.757812 -4.65625 17.007812 -5.539062 17.125 -6.46875 L 17.125 -3.1875 C 15.957031 -1.695312 14.40625 -0.703125 12.46875 -0.203125 C 11.226562 0.160156 10.007812 0.257812 8.8125 0.09375 C 7.625 -0.0703125 6.519531 -0.457031 5.5 -1.0625 C 4.488281 -1.664062 3.609375 -2.445312 2.859375 -3.40625 C 2.109375 -4.363281 1.5625 -5.453125 1.21875 -6.671875 C 0.90625 -7.898438 0.832031 -9.113281 1 -10.3125 C 1.175781 -11.507812 1.5625 -12.628906 2.15625 -13.671875 C 2.75 -14.710938 3.515625 -15.601562 4.453125 -16.34375 C 5.398438 -17.09375 6.484375 -17.628906 7.703125 -17.953125 C 8.859375 -18.265625 9.890625 -18.398438 10.796875 -18.359375 C 11.703125 -18.316406 12.488281 -18.164062 13.15625 -17.90625 C 13.832031 -17.644531 14.394531 -17.351562 14.84375 -17.03125 C 15.300781 -16.71875 15.632812 -16.4375 15.84375 -16.1875 C 16.0625 -15.945312 16.171875 -15.828125 16.171875 -15.828125 L 16.171875 -13.140625 C 16.171875 -13.140625 16.09375 -13.285156 15.9375 -13.578125 C 15.78125 -13.878906 15.546875 -14.25 15.234375 -14.6875 C 14.929688 -15.125 14.546875 -15.570312 14.078125 -16.03125 C 13.609375 -16.5 13.0625 -16.914062 12.4375 -17.28125 C 11.820312 -17.644531 11.125 -17.882812 10.34375 -18 C 9.570312 -18.113281 8.710938 -18.039062 7.765625 -17.78125 Z M 7.765625 -17.78125 "/></g></g></g><g fill="#ffffff" fill-opacity="1"><g transform="translate(71.868224, 20.213966)"><g><path d="M 2.890625 -12.1875 L 2.890625 -0.203125 L 7.265625 -0.203125 C 8.390625 -0.203125 9.304688 -0.476562 10.015625 -1.03125 C 10.734375 -1.582031 11.328125 -2.515625 11.796875 -3.828125 L 11.203125 0 L 0.90625 0 L 0.90625 -18.265625 L 11.359375 -18.265625 L 11.359375 -16.203125 C 10.753906 -16.785156 10.164062 -17.207031 9.59375 -17.46875 C 9.03125 -17.738281 8.390625 -17.910156 7.671875 -17.984375 C 6.953125 -18.054688 6.066406 -18.09375 5.015625 -18.09375 L 2.890625 -18.09375 L 2.890625 -13.890625 C 2.890625 -12.722656 3.085938 -11.828125 3.484375 -11.203125 C 3.890625 -10.578125 4.488281 -10.15625 5.28125 -9.9375 C 6.070312 -9.726562 7.0625 -9.625 8.25 -9.625 L 8.25 -7.578125 C 7.875 -8.015625 7.421875 -8.359375 6.890625 -8.609375 C 6.367188 -8.859375 5.832031 -9.113281 5.28125 -9.375 C 4.738281 -9.644531 4.253906 -9.988281 3.828125 -10.40625 C 3.398438 -10.832031 3.085938 -11.425781 2.890625 -12.1875 Z M 2.890625 -12.1875 "/></g></g></g><g fill="#ffffff" fill-opacity="1"><g transform="translate(84.570926, 20.213966)"><g><path d="M 11.84375 -3.828125 L 11.234375 0 L 0.90625 0 L 0.90625 -18.265625 L 2.96875 -18.265625 L 2.96875 -0.203125 L 7.34375 -0.203125 C 8.46875 -0.203125 9.378906 -0.476562 10.078125 -1.03125 C 10.773438 -1.582031 11.363281 -2.515625 11.84375 -3.828125 Z M 11.84375 -3.828125 "/></g></g></g><g fill="#ffffff" fill-opacity="1"><g transform="translate(97.325377, 20.213966)"><g><path d="M 11.84375 -3.828125 L 11.234375 0 L 0.90625 0 L 0.90625 -18.265625 L 2.96875 -18.265625 L 2.96875 -0.203125 L 7.34375 -0.203125 C 8.46875 -0.203125 9.378906 -0.476562 10.078125 -1.03125 C 10.773438 -1.582031 11.363281 -2.515625 11.84375 -3.828125 Z M 11.84375 -3.828125 "/></g></g></g><g fill="#ffffff" fill-opacity="1"><g transform="translate(110.079818, 20.213966)"><g><path d="M 2.890625 -12.1875 L 2.890625 -0.203125 L 7.265625 -0.203125 C 8.390625 -0.203125 9.304688 -0.476562 10.015625 -1.03125 C 10.734375 -1.582031 11.328125 -2.515625 11.796875 -3.828125 L 11.203125 0 L 0.90625 0 L 0.90625 -18.265625 L 11.359375 -18.265625 L 11.359375 -16.203125 C 10.753906 -16.785156 10.164062 -17.207031 9.59375 -17.46875 C 9.03125 -17.738281 8.390625 -17.910156 7.671875 -17.984375 C 6.953125 -18.054688 6.066406 -18.09375 5.015625 -18.09375 L 2.890625 -18.09375 L 2.890625 -13.890625 C 2.890625 -12.722656 3.085938 -11.828125 3.484375 -11.203125 C 3.890625 -10.578125 4.488281 -10.15625 5.28125 -9.9375 C 6.070312 -9.726562 7.0625 -9.625 8.25 -9.625 L 8.25 -7.578125 C 7.875 -8.015625 7.421875 -8.359375 6.890625 -8.609375 C 6.367188 -8.859375 5.832031 -9.113281 5.28125 -9.375 C 4.738281 -9.644531 4.253906 -9.988281 3.828125 -10.40625 C 3.398438 -10.832031 3.085938 -11.425781 2.890625 -12.1875 Z M 2.890625 -12.1875 "/></g></g></g></g></g><g clip-path="url(#f294f6b060)"><path fill="#ffffff" d="M 75 63.269531 L 70.367188 44.734375 L 75 40.101562 L 79.632812 44.734375 Z M 71.382812 45.015625 L 75 59.484375 L 78.617188 45.015625 L 75 41.394531 Z M 72.210938 63.820312 L 57.484375 54.984375 L 57.484375 49.09375 L 63.375 49.09375 Z M 58.402344 54.464844 L 69.539062 61.144531 L 62.855469 50.011719 L 58.402344 50.011719 Z M 77.789062 63.820312 L 86.621094 49.09375 L 92.511719 49.09375 L 92.511719 54.984375 Z M 87.144531 50.011719 L 80.460938 61.144531 L 91.597656 54.464844 L 91.597656 50.011719 Z M 66.746094 62.773438 L 41.992188 62.773438 L 41.992188 63.6875 L 66.746094 63.6875 Z M 108.003906 62.773438 L 83.25 62.773438 L 83.25 63.6875 L 108.003906 63.6875 Z M 108.003906 62.773438 " fill-opacity="1" fill-rule="nonzero"/></g><g transform="matrix(1, 0, 0, 1, 19, 92)"><g clip-path="url(#920b3baba9)"><g fill="#ffffff" fill-opacity="1"><g transform="translate(1.071399, 7.931847)"><g><path d="M 0.75 -3.25 L 3.5 -3.25 L 3.5 -0.5 L 0.75 -0.5 Z M 0.75 -3.25 "/></g></g></g><g fill="#ffffff" fill-opacity="1"><g transform="translate(5.314264, 7.931847)"><g/></g></g><g fill="#ffffff" fill-opacity="1"><g transform="translate(7.166982, 7.931847)"><g><path d="M 2.171875 0.046875 C 1.804688 0.046875 1.453125 -0.0078125 1.109375 -0.125 C 0.773438 -0.25 0.515625 -0.410156 0.328125 -0.609375 L 0.53125 -1 C 0.71875 -0.820312 0.957031 -0.675781 1.25 -0.5625 C 1.550781 -0.457031 1.859375 -0.40625 2.171875 -0.40625 C 2.617188 -0.40625 2.953125 -0.484375 3.171875 -0.640625 C 3.390625 -0.804688 3.5 -1.019531 3.5 -1.28125 C 3.5 -1.476562 3.4375 -1.632812 3.3125 -1.75 C 3.195312 -1.875 3.050781 -1.96875 2.875 -2.03125 C 2.707031 -2.09375 2.46875 -2.160156 2.15625 -2.234375 C 1.78125 -2.328125 1.476562 -2.414062 1.25 -2.5 C 1.03125 -2.59375 0.84375 -2.726562 0.6875 -2.90625 C 0.53125 -3.082031 0.453125 -3.328125 0.453125 -3.640625 C 0.453125 -3.890625 0.515625 -4.113281 0.640625 -4.3125 C 0.773438 -4.519531 0.976562 -4.6875 1.25 -4.8125 C 1.53125 -4.9375 1.875 -5 2.28125 -5 C 2.5625 -5 2.835938 -4.957031 3.109375 -4.875 C 3.378906 -4.800781 3.613281 -4.695312 3.8125 -4.5625 L 3.640625 -4.140625 C 3.429688 -4.273438 3.207031 -4.375 2.96875 -4.4375 C 2.738281 -4.507812 2.507812 -4.546875 2.28125 -4.546875 C 1.84375 -4.546875 1.515625 -4.460938 1.296875 -4.296875 C 1.078125 -4.128906 0.96875 -3.914062 0.96875 -3.65625 C 0.96875 -3.457031 1.023438 -3.296875 1.140625 -3.171875 C 1.265625 -3.054688 1.414062 -2.960938 1.59375 -2.890625 C 1.78125 -2.828125 2.023438 -2.757812 2.328125 -2.6875 C 2.691406 -2.601562 2.984375 -2.515625 3.203125 -2.421875 C 3.429688 -2.335938 3.625 -2.207031 3.78125 -2.03125 C 3.9375 -1.851562 4.015625 -1.613281 4.015625 -1.3125 C 4.015625 -1.0625 3.945312 -0.832031 3.8125 -0.625 C 3.675781 -0.414062 3.46875 -0.25 3.1875 -0.125 C 2.914062 -0.0078125 2.578125 0.046875 2.171875 0.046875 Z M 2.171875 0.046875 "/></g></g></g><g fill="#ffffff" fill-opacity="1"><g transform="translate(11.51592, 7.931847)"><g><path d="M 4.3125 -0.453125 L 4.3125 0 L 0.8125 0 L 0.8125 -4.953125 L 4.203125 -4.953125 L 4.203125 -4.5 L 1.328125 -4.5 L 1.328125 -2.734375 L 3.890625 -2.734375 L 3.890625 -2.296875 L 1.328125 -2.296875 L 1.328125 -0.453125 Z M 4.3125 -0.453125 "/></g></g></g><g fill="#ffffff" fill-opacity="1"><g transform="translate(16.246715, 7.931847)"><g><path d="M 5.953125 -4.953125 L 5.953125 0 L 5.453125 0 L 5.453125 -3.96875 L 3.5 -0.625 L 3.25 -0.625 L 1.3125 -3.9375 L 1.3125 0 L 0.8125 0 L 0.8125 -4.953125 L 1.234375 -4.953125 L 3.390625 -1.28125 L 5.515625 -4.953125 Z M 5.953125 -4.953125 "/></g></g></g><g fill="#ffffff" fill-opacity="1"><g transform="translate(22.999942, 7.931847)"><g><path d="M 0.8125 -4.953125 L 1.328125 -4.953125 L 1.328125 0 L 0.8125 0 Z M 0.8125 -4.953125 "/></g></g></g><g fill="#ffffff" fill-opacity="1"><g transform="translate(25.135518, 7.931847)"><g><path d="M 1.34375 0.046875 C 1.050781 0.046875 0.785156 -0.015625 0.546875 -0.140625 C 0.304688 -0.265625 0.113281 -0.441406 -0.03125 -0.671875 L 0.28125 -1.015625 C 0.550781 -0.609375 0.90625 -0.40625 1.34375 -0.40625 C 1.957031 -0.40625 2.265625 -0.769531 2.265625 -1.5 L 2.265625 -4.5 L 0.453125 -4.5 L 0.453125 -4.953125 L 2.78125 -4.953125 L 2.78125 -1.515625 C 2.78125 -1.003906 2.65625 -0.613281 2.40625 -0.34375 C 2.164062 -0.0820312 1.8125 0.046875 1.34375 0.046875 Z M 1.34375 0.046875 "/></g></g></g><g fill="#ffffff" fill-opacity="1"><g transform="translate(28.678311, 7.931847)"><g><path d="M 2.96875 0.046875 C 2.476562 0.046875 2.035156 -0.0625 1.640625 -0.28125 C 1.242188 -0.5 0.929688 -0.800781 0.703125 -1.1875 C 0.484375 -1.570312 0.375 -2.003906 0.375 -2.484375 C 0.375 -2.953125 0.484375 -3.378906 0.703125 -3.765625 C 0.929688 -4.148438 1.242188 -4.453125 1.640625 -4.671875 C 2.035156 -4.890625 2.476562 -5 2.96875 -5 C 3.457031 -5 3.898438 -4.890625 4.296875 -4.671875 C 4.691406 -4.453125 5.003906 -4.148438 5.234375 -3.765625 C 5.460938 -3.378906 5.578125 -2.953125 5.578125 -2.484375 C 5.578125 -2.003906 5.460938 -1.570312 5.234375 -1.1875 C 5.003906 -0.800781 4.691406 -0.5 4.296875 -0.28125 C 3.898438 -0.0625 3.457031 0.046875 2.96875 0.046875 Z M 2.96875 -0.421875 C 3.363281 -0.421875 3.71875 -0.507812 4.03125 -0.6875 C 4.351562 -0.863281 4.601562 -1.109375 4.78125 -1.421875 C 4.957031 -1.734375 5.046875 -2.085938 5.046875 -2.484375 C 5.046875 -2.867188 4.957031 -3.21875 4.78125 -3.53125 C 4.601562 -3.84375 4.351562 -4.085938 4.03125 -4.265625 C 3.71875 -4.441406 3.363281 -4.53125 2.96875 -4.53125 C 2.582031 -4.53125 2.226562 -4.441406 1.90625 -4.265625 C 1.59375 -4.085938 1.34375 -3.84375 1.15625 -3.53125 C 0.976562 -3.21875 0.890625 -2.867188 0.890625 -2.484375 C 0.890625 -2.085938 0.976562 -1.734375 1.15625 -1.421875 C 1.34375 -1.109375 1.59375 -0.863281 1.90625 -0.6875 C 2.226562 -0.507812 2.582031 -0.421875 2.96875 -0.421875 Z M 2.96875 -0.421875 "/></g></g></g><g fill="#ffffff" fill-opacity="1"><g transform="translate(34.611253, 7.931847)"><g><path d="M 0.8125 -4.953125 L 1.328125 -4.953125 L 1.328125 0 L 0.8125 0 Z M 0.8125 -4.953125 "/></g></g></g><g fill="#ffffff" fill-opacity="1"><g transform="translate(36.746829, 7.931847)"><g><path d="M 3.921875 -1.328125 L 1.15625 -1.328125 L 0.5625 0 L 0.015625 0 L 2.28125 -4.953125 L 2.796875 -4.953125 L 5.0625 0 L 4.515625 0 Z M 3.71875 -1.75 L 2.53125 -4.40625 L 1.34375 -1.75 Z M 3.71875 -1.75 "/></g></g></g><g fill="#ffffff" fill-opacity="1"><g transform="translate(41.817053, 7.931847)"><g><path d="M 2.171875 0.046875 C 1.804688 0.046875 1.453125 -0.0078125 1.109375 -0.125 C 0.773438 -0.25 0.515625 -0.410156 0.328125 -0.609375 L 0.53125 -1 C 0.71875 -0.820312 0.957031 -0.675781 1.25 -0.5625 C 1.550781 -0.457031 1.859375 -0.40625 2.171875 -0.40625 C 2.617188 -0.40625 2.953125 -0.484375 3.171875 -0.640625 C 3.390625 -0.804688 3.5 -1.019531 3.5 -1.28125 C 3.5 -1.476562 3.4375 -1.632812 3.3125 -1.75 C 3.195312 -1.875 3.050781 -1.96875 2.875 -2.03125 C 2.707031 -2.09375 2.46875 -2.160156 2.15625 -2.234375 C 1.78125 -2.328125 1.476562 -2.414062 1.25 -2.5 C 1.03125 -2.59375 0.84375 -2.726562 0.6875 -2.90625 C 0.53125 -3.082031 0.453125 -3.328125 0.453125 -3.640625 C 0.453125 -3.890625 0.515625 -4.113281 0.640625 -4.3125 C 0.773438 -4.519531 0.976562 -4.6875 1.25 -4.8125 C 1.53125 -4.9375 1.875 -5 2.28125 -5 C 2.5625 -5 2.835938 -4.957031 3.109375 -4.875 C 3.378906 -4.800781 3.613281 -4.695312 3.8125 -4.5625 L 3.640625 -4.140625 C 3.429688 -4.273438 3.207031 -4.375 2.96875 -4.4375 C 2.738281 -4.507812 2.507812 -4.546875 2.28125 -4.546875 C 1.84375 -4.546875 1.515625 -4.460938 1.296875 -4.296875 C 1.078125 -4.128906 0.96875 -3.914062 0.96875 -3.65625 C 0.96875 -3.457031 1.023438 -3.296875 1.140625 -3.171875 C 1.265625 -3.054688 1.414062 -2.960938 1.59375 -2.890625 C 1.78125 -2.828125 2.023438 -2.757812 2.328125 -2.6875 C 2.691406 -2.601562 2.984375 -2.515625 3.203125 -2.421875 C 3.429688 -2.335938 3.625 -2.207031 3.78125 -2.03125 C 3.9375 -1.851562 4.015625 -1.613281 4.015625 -1.3125 C 4.015625 -1.0625 3.945312 -0.832031 3.8125 -0.625 C 3.675781 -0.414062 3.46875 -0.25 3.1875 -0.125 C 2.914062 -0.0078125 2.578125 0.046875 2.171875 0.046875 Z M 2.171875 0.046875 "/></g></g></g><g fill="#ffffff" fill-opacity="1"><g transform="translate(46.165991, 7.931847)"><g/></g></g><g fill="#ffffff" fill-opacity="1"><g transform="translate(48.018709, 7.931847)"><g><path d="M 0.8125 -4.953125 L 2.828125 -4.953125 C 3.347656 -4.953125 3.804688 -4.847656 4.203125 -4.640625 C 4.609375 -4.429688 4.921875 -4.140625 5.140625 -3.765625 C 5.367188 -3.390625 5.484375 -2.960938 5.484375 -2.484375 C 5.484375 -1.992188 5.367188 -1.5625 5.140625 -1.1875 C 4.921875 -0.8125 4.609375 -0.519531 4.203125 -0.3125 C 3.804688 -0.101562 3.347656 0 2.828125 0 L 0.8125 0 Z M 2.796875 -0.453125 C 3.234375 -0.453125 3.613281 -0.535156 3.9375 -0.703125 C 4.257812 -0.878906 4.507812 -1.117188 4.6875 -1.421875 C 4.875 -1.722656 4.96875 -2.078125 4.96875 -2.484375 C 4.96875 -2.878906 4.875 -3.226562 4.6875 -3.53125 C 4.507812 -3.832031 4.257812 -4.066406 3.9375 -4.234375 C 3.613281 -4.410156 3.234375 -4.5 2.796875 -4.5 L 1.328125 -4.5 L 1.328125 -0.453125 Z M 2.796875 -0.453125 "/></g></g></g><g fill="#ffffff" fill-opacity="1"><g transform="translate(53.859718, 7.931847)"><g><path d="M 4.3125 -0.453125 L 4.3125 0 L 0.8125 0 L 0.8125 -4.953125 L 4.203125 -4.953125 L 4.203125 -4.5 L 1.328125 -4.5 L 1.328125 -2.734375 L 3.890625 -2.734375 L 3.890625 -2.296875 L 1.328125 -2.296875 L 1.328125 -0.453125 Z M 4.3125 -0.453125 "/></g></g></g><g fill="#ffffff" fill-opacity="1"><g transform="translate(58.590515, 7.931847)"><g/></g></g><g fill="#ffffff" fill-opacity="1"><g transform="translate(60.443233, 7.931847)"><g><path d="M 5.796875 0.421875 C 5.648438 0.597656 5.472656 0.734375 5.265625 0.828125 C 5.054688 0.929688 4.832031 0.984375 4.59375 0.984375 C 4.300781 0.984375 4.023438 0.910156 3.765625 0.765625 C 3.503906 0.617188 3.207031 0.378906 2.875 0.046875 C 2.40625 0.0234375 1.976562 -0.09375 1.59375 -0.3125 C 1.207031 -0.53125 0.90625 -0.828125 0.6875 -1.203125 C 0.476562 -1.585938 0.375 -2.015625 0.375 -2.484375 C 0.375 -2.953125 0.484375 -3.378906 0.703125 -3.765625 C 0.929688 -4.148438 1.242188 -4.453125 1.640625 -4.671875 C 2.035156 -4.890625 2.476562 -5 2.96875 -5 C 3.457031 -5 3.898438 -4.890625 4.296875 -4.671875 C 4.691406 -4.453125 5.003906 -4.148438 5.234375 -3.765625 C 5.460938 -3.378906 5.578125 -2.953125 5.578125 -2.484375 C 5.578125 -2.066406 5.488281 -1.679688 5.3125 -1.328125 C 5.132812 -0.984375 4.890625 -0.695312 4.578125 -0.46875 C 4.273438 -0.238281 3.925781 -0.0820312 3.53125 0 C 3.882812 0.375 4.238281 0.5625 4.59375 0.5625 C 4.96875 0.5625 5.285156 0.410156 5.546875 0.109375 Z M 0.890625 -2.484375 C 0.890625 -2.085938 0.976562 -1.734375 1.15625 -1.421875 C 1.34375 -1.117188 1.59375 -0.875 1.90625 -0.6875 C 2.226562 -0.507812 2.582031 -0.421875 2.96875 -0.421875 C 3.363281 -0.421875 3.71875 -0.507812 4.03125 -0.6875 C 4.351562 -0.875 4.601562 -1.117188 4.78125 -1.421875 C 4.957031 -1.734375 5.046875 -2.085938 5.046875 -2.484375 C 5.046875 -2.867188 4.957031 -3.210938 4.78125 -3.515625 C 4.601562 -3.828125 4.351562 -4.070312 4.03125 -4.25 C 3.71875 -4.4375 3.363281 -4.53125 2.96875 -4.53125 C 2.582031 -4.53125 2.226562 -4.4375 1.90625 -4.25 C 1.59375 -4.070312 1.34375 -3.828125 1.15625 -3.515625 C 0.976562 -3.210938 0.890625 -2.867188 0.890625 -2.484375 Z M 0.890625 -2.484375 "/></g></g></g><g fill="#ffffff" fill-opacity="1"><g transform="translate(66.376175, 7.931847)"><g><path d="M 2.796875 0.046875 C 2.160156 0.046875 1.660156 -0.132812 1.296875 -0.5 C 0.941406 -0.875 0.765625 -1.410156 0.765625 -2.109375 L 0.765625 -4.953125 L 1.28125 -4.953125 L 1.28125 -2.140625 C 1.28125 -1.566406 1.410156 -1.132812 1.671875 -0.84375 C 1.929688 -0.5625 2.304688 -0.421875 2.796875 -0.421875 C 3.296875 -0.421875 3.675781 -0.5625 3.9375 -0.84375 C 4.195312 -1.132812 4.328125 -1.566406 4.328125 -2.140625 L 4.328125 -4.953125 L 4.828125 -4.953125 L 4.828125 -2.109375 C 4.828125 -1.410156 4.648438 -0.875 4.296875 -0.5 C 3.941406 -0.132812 3.441406 0.046875 2.796875 0.046875 Z M 2.796875 0.046875 "/></g></g></g><g fill="#ffffff" fill-opacity="1"><g transform="translate(71.976755, 7.931847)"><g><path d="M 3.921875 -1.328125 L 1.15625 -1.328125 L 0.5625 0 L 0.015625 0 L 2.28125 -4.953125 L 2.796875 -4.953125 L 5.0625 0 L 4.515625 0 Z M 3.71875 -1.75 L 2.53125 -4.40625 L 1.34375 -1.75 Z M 3.71875 -1.75 "/></g></g></g><g fill="#ffffff" fill-opacity="1"><g transform="translate(77.046979, 7.931847)"><g><path d="M 0.8125 -4.953125 L 1.328125 -4.953125 L 1.328125 -0.453125 L 4.109375 -0.453125 L 4.109375 0 L 0.8125 0 Z M 0.8125 -4.953125 "/></g></g></g><g fill="#ffffff" fill-opacity="1"><g transform="translate(81.212057, 7.931847)"><g><path d="M 0.8125 -4.953125 L 1.328125 -4.953125 L 1.328125 0 L 0.8125 0 Z M 0.8125 -4.953125 "/></g></g></g><g fill="#ffffff" fill-opacity="1"><g transform="translate(83.347636, 7.931847)"><g><path d="M 0.8125 -4.953125 L 2.828125 -4.953125 C 3.347656 -4.953125 3.804688 -4.847656 4.203125 -4.640625 C 4.609375 -4.429688 4.921875 -4.140625 5.140625 -3.765625 C 5.367188 -3.390625 5.484375 -2.960938 5.484375 -2.484375 C 5.484375 -1.992188 5.367188 -1.5625 5.140625 -1.1875 C 4.921875 -0.8125 4.609375 -0.519531 4.203125 -0.3125 C 3.804688 -0.101562 3.347656 0 2.828125 0 L 0.8125 0 Z M 2.796875 -0.453125 C 3.234375 -0.453125 3.613281 -0.535156 3.9375 -0.703125 C 4.257812 -0.878906 4.507812 -1.117188 4.6875 -1.421875 C 4.875 -1.722656 4.96875 -2.078125 4.96875 -2.484375 C 4.96875 -2.878906 4.875 -3.226562 4.6875 -3.53125 C 4.507812 -3.832031 4.257812 -4.066406 3.9375 -4.234375 C 3.613281 -4.410156 3.234375 -4.5 2.796875 -4.5 L 1.328125 -4.5 L 1.328125 -0.453125 Z M 2.796875 -0.453125 "/></g></g></g><g fill="#ffffff" fill-opacity="1"><g transform="translate(89.188645, 7.931847)"><g><path d="M 3.921875 -1.328125 L 1.15625 -1.328125 L 0.5625 0 L 0.015625 0 L 2.28125 -4.953125 L 2.796875 -4.953125 L 5.0625 0 L 4.515625 0 Z M 3.71875 -1.75 L 2.53125 -4.40625 L 1.34375 -1.75 Z M 3.71875 -1.75 "/></g></g></g><g fill="#ffffff" fill-opacity="1"><g transform="translate(94.25887, 7.931847)"><g><path d="M 0.8125 -4.953125 L 2.828125 -4.953125 C 3.347656 -4.953125 3.804688 -4.847656 4.203125 -4.640625 C 4.609375 -4.429688 4.921875 -4.140625 5.140625 -3.765625 C 5.367188 -3.390625 5.484375 -2.960938 5.484375 -2.484375 C 5.484375 -1.992188 5.367188 -1.5625 5.140625 -1.1875 C 4.921875 -0.8125 4.609375 -0.519531 4.203125 -0.3125 C 3.804688 -0.101562 3.347656 0 2.828125 0 L 0.8125 0 Z M 2.796875 -0.453125 C 3.234375 -0.453125 3.613281 -0.535156 3.9375 -0.703125 C 4.257812 -0.878906 4.507812 -1.117188 4.6875 -1.421875 C 4.875 -1.722656 4.96875 -2.078125 4.96875 -2.484375 C 4.96875 -2.878906 4.875 -3.226562 4.6875 -3.53125 C 4.507812 -3.832031 4.257812 -4.066406 3.9375 -4.234375 C 3.613281 -4.410156 3.234375 -4.5 2.796875 -4.5 L 1.328125 -4.5 L 1.328125 -0.453125 Z M 2.796875 -0.453125 "/></g></g></g><g fill="#ffffff" fill-opacity="1"><g transform="translate(100.099885, 7.931847)"><g><path d="M 4.3125 -0.453125 L 4.3125 0 L 0.8125 0 L 0.8125 -4.953125 L 4.203125 -4.953125 L 4.203125 -4.5 L 1.328125 -4.5 L 1.328125 -2.734375 L 3.890625 -2.734375 L 3.890625 -2.296875 L 1.328125 -2.296875 L 1.328125 -0.453125 Z M 4.3125 -0.453125 "/></g></g></g><g fill="#ffffff" fill-opacity="1"><g transform="translate(104.830679, 7.931847)"><g/></g></g><g fill="#ffffff" fill-opacity="1"><g transform="translate(106.683397, 7.931847)"><g><path d="M 0.75 -3.25 L 3.5 -3.25 L 3.5 -0.5 L 0.75 -0.5 Z M 0.75 -3.25 "/></g></g></g></g></g></svg>