<svg xmlns="http://www.w3.org/2000/svg" xmlns:xlink="http://www.w3.org/1999/xlink" width="150" zoomAndPan="magnify" viewBox="0 0 112.5 37.5" height="50" preserveAspectRatio="xMidYMid meet" version="1.0"><defs><g/><clipPath id="cb1fc80517"><path d="M 0.203125 2 L 5 2 L 5 7 L 0.203125 7 Z M 0.203125 2 " clip-rule="nonzero"/></clipPath><clipPath id="e6de984991"><path d="M 18 0.449219 L 24 0.449219 L 24 7 L 18 7 Z M 18 0.449219 " clip-rule="nonzero"/></clipPath><clipPath id="190f3a4d6c"><rect x="0" width="110" y="0" height="9"/></clipPath></defs><g fill="#1e90ff" fill-opacity="1"><g transform="translate(1.418585, 21.813634)"><g><path d="M 11.703125 0 L 7.921875 0 L 5.765625 -7.015625 L 5.765625 0 L 1.078125 0 L 1.078125 -12.59375 L 7.734375 -12.59375 L 9.8125 -5.765625 L 11.875 -12.59375 L 18.546875 -12.59375 L 18.546875 0 L 13.859375 0 L 13.859375 -7.015625 Z M 11.703125 0 "/></g></g></g><g fill="#1e90ff" fill-opacity="1"><g transform="translate(21.045228, 21.813634)"><g><path d="M 9.71875 -6.296875 C 9.71875 -6.929688 9.519531 -7.445312 9.125 -7.84375 C 8.738281 -8.25 8.273438 -8.453125 7.734375 -8.453125 C 7.203125 -8.453125 6.738281 -8.25 6.34375 -7.84375 C 5.957031 -7.445312 5.765625 -6.929688 5.765625 -6.296875 C 5.765625 -5.671875 5.957031 -5.15625 6.34375 -4.75 C 6.738281 -4.34375 7.203125 -4.140625 7.734375 -4.140625 C 8.273438 -4.140625 8.738281 -4.34375 9.125 -4.75 C 9.519531 -5.15625 9.71875 -5.671875 9.71875 -6.296875 Z M 14.765625 -6.296875 C 14.765625 -5.367188 14.59375 -4.503906 14.25 -3.703125 C 13.90625 -2.910156 13.421875 -2.21875 12.796875 -1.625 C 12.171875 -1.03125 11.425781 -0.566406 10.5625 -0.234375 C 9.707031 0.0976562 8.765625 0.265625 7.734375 0.265625 C 6.703125 0.265625 5.757812 0.0976562 4.90625 -0.234375 C 4.050781 -0.566406 3.3125 -1.03125 2.6875 -1.625 C 2.0625 -2.21875 1.578125 -2.910156 1.234375 -3.703125 C 0.890625 -4.503906 0.71875 -5.367188 0.71875 -6.296875 C 0.71875 -7.222656 0.890625 -8.082031 1.234375 -8.875 C 1.578125 -9.675781 2.0625 -10.375 2.6875 -10.96875 C 3.3125 -11.5625 4.050781 -12.023438 4.90625 -12.359375 C 5.757812 -12.703125 6.703125 -12.875 7.734375 -12.875 C 8.765625 -12.875 9.707031 -12.703125 10.5625 -12.359375 C 11.425781 -12.023438 12.171875 -11.5625 12.796875 -10.96875 C 13.421875 -10.375 13.90625 -9.675781 14.25 -8.875 C 14.59375 -8.082031 14.765625 -7.222656 14.765625 -6.296875 Z M 14.765625 -6.296875 "/></g></g></g><g fill="#1e90ff" fill-opacity="1"><g transform="translate(36.530473, 21.813634)"><g><path d="M 5.765625 -3.78125 L 6.484375 -3.78125 C 7.148438 -3.78125 7.675781 -3.984375 8.0625 -4.390625 C 8.445312 -4.804688 8.640625 -5.441406 8.640625 -6.296875 C 8.640625 -7.148438 8.445312 -7.78125 8.0625 -8.1875 C 7.675781 -8.601562 7.148438 -8.8125 6.484375 -8.8125 L 5.765625 -8.8125 Z M 13.6875 -6.296875 C 13.6875 -5.003906 13.414062 -3.867188 12.875 -2.890625 C 12.34375 -1.921875 11.539062 -1.164062 10.46875 -0.625 C 9.40625 -0.0820312 8.078125 0.1875 6.484375 0.1875 C 5.523438 0.1875 4.632812 0.171875 3.8125 0.140625 C 2.988281 0.109375 2.328125 0.078125 1.828125 0.046875 C 1.328125 0.015625 1.078125 0 1.078125 0 L 1.078125 -12.59375 C 1.078125 -12.59375 1.328125 -12.609375 1.828125 -12.640625 C 2.328125 -12.671875 2.988281 -12.703125 3.8125 -12.734375 C 4.632812 -12.765625 5.523438 -12.78125 6.484375 -12.78125 C 8.078125 -12.78125 9.40625 -12.507812 10.46875 -11.96875 C 11.539062 -11.425781 12.34375 -10.671875 12.875 -9.703125 C 13.414062 -8.734375 13.6875 -7.597656 13.6875 -6.296875 Z M 13.6875 -6.296875 "/></g></g></g><g fill="#1e90ff" fill-opacity="1"><g transform="translate(50.935346, 21.813634)"><g><path d="M 9.71875 -6.296875 C 9.71875 -6.929688 9.519531 -7.445312 9.125 -7.84375 C 8.738281 -8.25 8.273438 -8.453125 7.734375 -8.453125 C 7.203125 -8.453125 6.738281 -8.25 6.34375 -7.84375 C 5.957031 -7.445312 5.765625 -6.929688 5.765625 -6.296875 C 5.765625 -5.671875 5.957031 -5.15625 6.34375 -4.75 C 6.738281 -4.34375 7.203125 -4.140625 7.734375 -4.140625 C 8.273438 -4.140625 8.738281 -4.34375 9.125 -4.75 C 9.519531 -5.15625 9.71875 -5.671875 9.71875 -6.296875 Z M 14.765625 -6.296875 C 14.765625 -5.367188 14.59375 -4.503906 14.25 -3.703125 C 13.90625 -2.910156 13.421875 -2.21875 12.796875 -1.625 C 12.171875 -1.03125 11.425781 -0.566406 10.5625 -0.234375 C 9.707031 0.0976562 8.765625 0.265625 7.734375 0.265625 C 6.703125 0.265625 5.757812 0.0976562 4.90625 -0.234375 C 4.050781 -0.566406 3.3125 -1.03125 2.6875 -1.625 C 2.0625 -2.21875 1.578125 -2.910156 1.234375 -3.703125 C 0.890625 -4.503906 0.71875 -5.367188 0.71875 -6.296875 C 0.71875 -7.222656 0.890625 -8.082031 1.234375 -8.875 C 1.578125 -9.675781 2.0625 -10.375 2.6875 -10.96875 C 3.3125 -11.5625 4.050781 -12.023438 4.90625 -12.359375 C 5.757812 -12.703125 6.703125 -12.875 7.734375 -12.875 C 8.765625 -12.875 9.707031 -12.703125 10.5625 -12.359375 C 11.425781 -12.023438 12.171875 -11.5625 12.796875 -10.96875 C 13.421875 -10.375 13.90625 -9.675781 14.25 -8.875 C 14.59375 -8.082031 14.765625 -7.222656 14.765625 -6.296875 Z M 14.765625 -6.296875 "/></g></g></g><g fill="#ffffff" fill-opacity="1"><g transform="translate(66.422951, 21.813634)"><g><path d="M 11.515625 -12.59375 L 12.875 -5.671875 L 13.859375 -12.59375 L 18.71875 -12.59375 L 16.015625 0 L 10.796875 0 L 9.453125 -6.390625 L 8.09375 0 L 2.875 0 L 0.1875 -12.59375 L 5.046875 -12.59375 L 6.03125 -5.671875 L 7.375 -12.59375 Z M 11.515625 -12.59375 "/></g></g></g><g fill="#ffffff" fill-opacity="1"><g transform="translate(85.329351, 21.813634)"><g><path d="M 5.765625 -4.5 L 5.765625 -3.59375 L 11.15625 -3.59375 L 11.15625 0 L 1.078125 0 L 1.078125 -12.59375 L 10.796875 -12.59375 L 10.796875 -9 L 5.765625 -9 L 5.765625 -8.09375 L 10.4375 -8.09375 L 10.4375 -4.5 Z M 5.765625 -4.5 "/></g></g></g><g fill="#ffffff" fill-opacity="1"><g transform="translate(97.033313, 21.813634)"><g><path d="M 9.71875 -6.65625 L 9.71875 -6.5625 C 9.71875 -6.5625 9.8125 -6.535156 10 -6.484375 C 10.195312 -6.441406 10.4375 -6.359375 10.71875 -6.234375 C 11.007812 -6.109375 11.300781 -5.925781 11.59375 -5.6875 C 11.882812 -5.457031 12.125 -5.15625 12.3125 -4.78125 C 12.5 -4.414062 12.59375 -3.960938 12.59375 -3.421875 C 12.59375 -2.765625 12.394531 -2.160156 12 -1.609375 C 11.601562 -1.066406 10.957031 -0.628906 10.0625 -0.296875 C 9.175781 0.0234375 7.984375 0.1875 6.484375 0.1875 C 5.523438 0.1875 4.632812 0.171875 3.8125 0.140625 C 2.988281 0.109375 2.328125 0.078125 1.828125 0.046875 C 1.328125 0.015625 1.078125 0 1.078125 0 L 1.078125 -12.59375 C 1.078125 -12.59375 1.328125 -12.609375 1.828125 -12.640625 C 2.328125 -12.671875 2.976562 -12.703125 3.78125 -12.734375 C 4.59375 -12.765625 5.460938 -12.78125 6.390625 -12.78125 C 7.742188 -12.78125 8.832031 -12.617188 9.65625 -12.296875 C 10.488281 -11.972656 11.097656 -11.546875 11.484375 -11.015625 C 11.867188 -10.484375 12.0625 -9.898438 12.0625 -9.265625 C 12.0625 -8.722656 11.941406 -8.28125 11.703125 -7.9375 C 11.472656 -7.601562 11.203125 -7.34375 10.890625 -7.15625 C 10.578125 -6.96875 10.300781 -6.835938 10.0625 -6.765625 C 9.832031 -6.691406 9.71875 -6.65625 9.71875 -6.65625 Z M 5.765625 -9.546875 L 5.765625 -7.921875 L 6.390625 -7.921875 C 6.703125 -7.921875 6.941406 -8 7.109375 -8.15625 C 7.285156 -8.3125 7.375 -8.503906 7.375 -8.734375 C 7.375 -8.960938 7.285156 -9.15625 7.109375 -9.3125 C 6.941406 -9.46875 6.703125 -9.546875 6.390625 -9.546875 Z M 6.484375 -3.0625 C 6.835938 -3.0625 7.101562 -3.144531 7.28125 -3.3125 C 7.46875 -3.476562 7.5625 -3.691406 7.5625 -3.953125 C 7.5625 -4.234375 7.46875 -4.453125 7.28125 -4.609375 C 7.101562 -4.773438 6.835938 -4.859375 6.484375 -4.859375 L 5.765625 -4.859375 L 5.765625 -3.0625 C 5.765625 -3.0625 5.835938 -3.0625 5.984375 -3.0625 C 6.128906 -3.0625 6.296875 -3.0625 6.484375 -3.0625 Z M 6.484375 -3.0625 "/></g></g></g><g transform="matrix(1, 0, 0, 1, 1, 23)"><g clip-path="url(#190f3a4d6c)"><g clip-path="url(#cb1fc80517)"><g fill="#ffffff" fill-opacity="1"><g transform="translate(0.418585, 6.104993)"><g><path d="M 0.21875 -1.953125 C 0.21875 -2.234375 0.269531 -2.5 0.375 -2.75 C 0.476562 -3 0.625 -3.210938 0.8125 -3.390625 C 1 -3.578125 1.21875 -3.722656 1.46875 -3.828125 C 1.71875 -3.929688 1.988281 -3.984375 2.28125 -3.984375 C 2.550781 -3.984375 2.785156 -3.953125 2.984375 -3.890625 C 3.179688 -3.828125 3.34375 -3.753906 3.46875 -3.671875 C 3.59375 -3.597656 3.6875 -3.53125 3.75 -3.46875 C 3.8125 -3.40625 3.84375 -3.375 3.84375 -3.375 L 3.171875 -2.3125 C 3.171875 -2.3125 3.140625 -2.335938 3.078125 -2.390625 C 3.015625 -2.441406 2.925781 -2.492188 2.8125 -2.546875 C 2.707031 -2.597656 2.585938 -2.625 2.453125 -2.625 C 2.265625 -2.625 2.101562 -2.5625 1.96875 -2.4375 C 1.84375 -2.3125 1.78125 -2.148438 1.78125 -1.953125 C 1.78125 -1.753906 1.84375 -1.59375 1.96875 -1.46875 C 2.101562 -1.34375 2.265625 -1.28125 2.453125 -1.28125 C 2.585938 -1.28125 2.707031 -1.304688 2.8125 -1.359375 C 2.925781 -1.410156 3.015625 -1.460938 3.078125 -1.515625 C 3.140625 -1.566406 3.171875 -1.59375 3.171875 -1.59375 L 3.84375 -0.53125 C 3.84375 -0.53125 3.8125 -0.5 3.75 -0.4375 C 3.6875 -0.375 3.59375 -0.300781 3.46875 -0.21875 C 3.34375 -0.132812 3.179688 -0.0625 2.984375 0 C 2.785156 0.0507812 2.550781 0.078125 2.28125 0.078125 C 1.988281 0.078125 1.71875 0.0234375 1.46875 -0.078125 C 1.21875 -0.179688 1 -0.320312 0.8125 -0.5 C 0.625 -0.6875 0.476562 -0.898438 0.375 -1.140625 C 0.269531 -1.390625 0.21875 -1.660156 0.21875 -1.953125 Z M 0.21875 -1.953125 "/></g></g></g></g><g fill="#ffffff" fill-opacity="1"><g transform="translate(4.377981, 6.104993)"><g><path d="M 4.1875 0 L 2.515625 0 L 1.84375 -1.28125 L 1.78125 -1.28125 L 1.78125 0 L 0.328125 0 L 0.328125 -3.90625 C 0.328125 -3.90625 0.375 -3.90625 0.46875 -3.90625 C 0.5625 -3.914062 0.679688 -3.921875 0.828125 -3.921875 C 0.984375 -3.929688 1.15625 -3.9375 1.34375 -3.9375 C 1.539062 -3.945312 1.742188 -3.953125 1.953125 -3.953125 C 2.359375 -3.953125 2.691406 -3.894531 2.953125 -3.78125 C 3.222656 -3.664062 3.421875 -3.503906 3.546875 -3.296875 C 3.671875 -3.097656 3.734375 -2.863281 3.734375 -2.59375 C 3.734375 -2.394531 3.707031 -2.222656 3.65625 -2.078125 C 3.613281 -1.941406 3.554688 -1.832031 3.484375 -1.75 C 3.421875 -1.664062 3.363281 -1.601562 3.3125 -1.5625 C 3.257812 -1.519531 3.234375 -1.5 3.234375 -1.5 Z M 1.78125 -2.28125 L 1.953125 -2.28125 C 2.046875 -2.28125 2.125 -2.3125 2.1875 -2.375 C 2.25 -2.4375 2.28125 -2.507812 2.28125 -2.59375 C 2.28125 -2.675781 2.25 -2.75 2.1875 -2.8125 C 2.125 -2.875 2.046875 -2.90625 1.953125 -2.90625 L 1.78125 -2.90625 Z M 1.78125 -2.28125 "/></g></g></g><g fill="#ffffff" fill-opacity="1"><g transform="translate(8.448904, 6.104993)"><g><path d="M 1.78125 -3.90625 L 1.78125 0 L 0.328125 0 L 0.328125 -3.90625 Z M 1.78125 -3.90625 "/></g></g></g><g fill="#ffffff" fill-opacity="1"><g transform="translate(10.568014, 6.104993)"><g><path d="M 3.09375 -3.90625 C 3.09375 -3.90625 3.109375 -3.847656 3.140625 -3.734375 C 3.179688 -3.617188 3.226562 -3.46875 3.28125 -3.28125 C 3.332031 -3.09375 3.390625 -2.882812 3.453125 -2.65625 C 3.523438 -2.425781 3.597656 -2.1875 3.671875 -1.9375 C 3.742188 -1.695312 3.8125 -1.457031 3.875 -1.21875 C 3.945312 -0.988281 4.007812 -0.78125 4.0625 -0.59375 C 4.113281 -0.414062 4.15625 -0.269531 4.1875 -0.15625 C 4.21875 -0.0507812 4.234375 0 4.234375 0 L 2.625 0 L 2.515625 -0.5625 L 1.78125 -0.5625 L 1.671875 0 L 0.0625 0 L 1.203125 -3.90625 Z M 1.953125 -1.453125 L 2.34375 -1.453125 L 2.140625 -2.453125 Z M 1.953125 -1.453125 "/></g></g></g><g fill="#ffffff" fill-opacity="1"><g transform="translate(14.862005, 6.104993)"><g><path d="M 0.21875 -1.953125 C 0.21875 -2.234375 0.269531 -2.5 0.375 -2.75 C 0.476562 -3 0.625 -3.210938 0.8125 -3.390625 C 1 -3.578125 1.21875 -3.722656 1.46875 -3.828125 C 1.71875 -3.929688 1.988281 -3.984375 2.28125 -3.984375 C 2.550781 -3.984375 2.785156 -3.953125 2.984375 -3.890625 C 3.179688 -3.828125 3.34375 -3.753906 3.46875 -3.671875 C 3.59375 -3.597656 3.6875 -3.53125 3.75 -3.46875 C 3.8125 -3.40625 3.84375 -3.375 3.84375 -3.375 L 3.171875 -2.3125 C 3.171875 -2.3125 3.140625 -2.335938 3.078125 -2.390625 C 3.015625 -2.441406 2.925781 -2.492188 2.8125 -2.546875 C 2.707031 -2.597656 2.585938 -2.625 2.453125 -2.625 C 2.265625 -2.625 2.101562 -2.5625 1.96875 -2.4375 C 1.84375 -2.3125 1.78125 -2.148438 1.78125 -1.953125 C 1.78125 -1.753906 1.84375 -1.59375 1.96875 -1.46875 C 2.101562 -1.34375 2.265625 -1.28125 2.453125 -1.28125 C 2.585938 -1.28125 2.707031 -1.304688 2.8125 -1.359375 C 2.925781 -1.410156 3.015625 -1.460938 3.078125 -1.515625 C 3.140625 -1.566406 3.171875 -1.59375 3.171875 -1.59375 L 3.84375 -0.53125 C 3.84375 -0.53125 3.8125 -0.5 3.75 -0.4375 C 3.6875 -0.375 3.59375 -0.300781 3.46875 -0.21875 C 3.34375 -0.144531 3.1875 -0.078125 3 -0.015625 C 2.8125 0.046875 2.59375 0.078125 2.34375 0.078125 L 2.234375 0.328125 C 2.359375 0.328125 2.46875 0.359375 2.5625 0.421875 C 2.664062 0.484375 2.75 0.5625 2.8125 0.65625 C 2.875 0.757812 2.90625 0.875 2.90625 1 C 2.90625 1.207031 2.832031 1.378906 2.6875 1.515625 C 2.550781 1.660156 2.363281 1.734375 2.125 1.734375 L 1.625 1.734375 L 1.625 1.171875 L 2.015625 1.171875 C 2.046875 1.171875 2.078125 1.148438 2.109375 1.109375 C 2.148438 1.078125 2.171875 1.039062 2.171875 1 C 2.171875 0.957031 2.148438 0.921875 2.109375 0.890625 C 2.078125 0.859375 2.046875 0.84375 2.015625 0.84375 L 1.671875 0.84375 L 1.984375 0.0625 C 1.640625 0 1.332031 -0.117188 1.0625 -0.296875 C 0.800781 -0.484375 0.59375 -0.71875 0.4375 -1 C 0.289062 -1.28125 0.21875 -1.597656 0.21875 -1.953125 Z M 0.21875 -1.953125 "/></g></g></g><g clip-path="url(#e6de984991)"><g fill="#ffffff" fill-opacity="1"><g transform="translate(18.821401, 6.104993)"><g><path d="M 3.09375 -3.90625 C 3.09375 -3.90625 3.109375 -3.847656 3.140625 -3.734375 C 3.179688 -3.617188 3.226562 -3.46875 3.28125 -3.28125 C 3.332031 -3.09375 3.390625 -2.882812 3.453125 -2.65625 C 3.523438 -2.425781 3.597656 -2.1875 3.671875 -1.9375 C 3.742188 -1.695312 3.8125 -1.457031 3.875 -1.21875 C 3.945312 -0.988281 4.007812 -0.78125 4.0625 -0.59375 C 4.113281 -0.414062 4.15625 -0.269531 4.1875 -0.15625 C 4.21875 -0.0507812 4.234375 0 4.234375 0 L 2.625 0 L 2.515625 -0.5625 L 1.78125 -0.5625 L 1.671875 0 L 0.0625 0 L 1.203125 -3.90625 Z M 1.953125 -1.453125 L 2.34375 -1.453125 L 2.140625 -2.453125 Z M 2.53125 -4.296875 C 2.425781 -4.296875 2.332031 -4.316406 2.25 -4.359375 C 2.175781 -4.410156 2.113281 -4.457031 2.0625 -4.5 C 2.019531 -4.550781 1.972656 -4.578125 1.921875 -4.578125 C 1.878906 -4.578125 1.835938 -4.554688 1.796875 -4.515625 C 1.765625 -4.472656 1.75 -4.414062 1.75 -4.34375 L 1.25 -4.34375 L 1.25 -4.734375 C 1.25 -4.910156 1.296875 -5.046875 1.390625 -5.140625 C 1.492188 -5.242188 1.613281 -5.296875 1.75 -5.296875 C 1.863281 -5.296875 1.957031 -5.269531 2.03125 -5.21875 C 2.101562 -5.175781 2.164062 -5.128906 2.21875 -5.078125 C 2.269531 -5.035156 2.320312 -5.015625 2.375 -5.015625 C 2.414062 -5.015625 2.453125 -5.035156 2.484375 -5.078125 C 2.515625 -5.117188 2.53125 -5.175781 2.53125 -5.25 L 3.046875 -5.25 L 3.046875 -4.859375 C 3.046875 -4.691406 2.992188 -4.554688 2.890625 -4.453125 C 2.796875 -4.347656 2.675781 -4.296875 2.53125 -4.296875 Z M 2.53125 -4.296875 "/></g></g></g></g><g fill="#ffffff" fill-opacity="1"><g transform="translate(23.115392, 6.104993)"><g><path d="M 3.015625 -1.953125 C 3.015625 -2.148438 2.953125 -2.3125 2.828125 -2.4375 C 2.710938 -2.5625 2.570312 -2.625 2.40625 -2.625 C 2.226562 -2.625 2.078125 -2.5625 1.953125 -2.4375 C 1.835938 -2.3125 1.78125 -2.148438 1.78125 -1.953125 C 1.78125 -1.753906 1.835938 -1.59375 1.953125 -1.46875 C 2.078125 -1.34375 2.226562 -1.28125 2.40625 -1.28125 C 2.570312 -1.28125 2.710938 -1.34375 2.828125 -1.46875 C 2.953125 -1.59375 3.015625 -1.753906 3.015625 -1.953125 Z M 4.578125 -1.953125 C 4.578125 -1.660156 4.519531 -1.390625 4.40625 -1.140625 C 4.300781 -0.898438 4.148438 -0.6875 3.953125 -0.5 C 3.765625 -0.320312 3.535156 -0.179688 3.265625 -0.078125 C 3.003906 0.0234375 2.71875 0.078125 2.40625 0.078125 C 2.082031 0.078125 1.785156 0.0234375 1.515625 -0.078125 C 1.253906 -0.179688 1.023438 -0.320312 0.828125 -0.5 C 0.640625 -0.6875 0.488281 -0.898438 0.375 -1.140625 C 0.269531 -1.390625 0.21875 -1.660156 0.21875 -1.953125 C 0.21875 -2.234375 0.269531 -2.5 0.375 -2.75 C 0.488281 -3 0.640625 -3.210938 0.828125 -3.390625 C 1.023438 -3.578125 1.253906 -3.722656 1.515625 -3.828125 C 1.785156 -3.929688 2.082031 -3.984375 2.40625 -3.984375 C 2.71875 -3.984375 3.003906 -3.929688 3.265625 -3.828125 C 3.535156 -3.722656 3.765625 -3.578125 3.953125 -3.390625 C 4.148438 -3.210938 4.300781 -3 4.40625 -2.75 C 4.519531 -2.5 4.578125 -2.234375 4.578125 -1.953125 Z M 4.578125 -1.953125 "/></g></g></g><g fill="#ffffff" fill-opacity="1"><g transform="translate(27.911275, 6.104993)"><g/></g></g><g fill="#ffffff" fill-opacity="1"><g transform="translate(29.0266, 6.104993)"><g><path d="M 1.78125 -1.171875 L 2.015625 -1.171875 C 2.222656 -1.171875 2.382812 -1.234375 2.5 -1.359375 C 2.613281 -1.492188 2.671875 -1.691406 2.671875 -1.953125 C 2.671875 -2.210938 2.613281 -2.40625 2.5 -2.53125 C 2.382812 -2.664062 2.222656 -2.734375 2.015625 -2.734375 L 1.78125 -2.734375 Z M 4.234375 -1.953125 C 4.234375 -1.546875 4.148438 -1.191406 3.984375 -0.890625 C 3.828125 -0.597656 3.582031 -0.363281 3.25 -0.1875 C 2.914062 -0.0195312 2.503906 0.0625 2.015625 0.0625 C 1.710938 0.0625 1.429688 0.0546875 1.171875 0.046875 C 0.921875 0.0351562 0.71875 0.0234375 0.5625 0.015625 C 0.40625 0.00390625 0.328125 0 0.328125 0 L 0.328125 -3.90625 C 0.328125 -3.90625 0.40625 -3.910156 0.5625 -3.921875 C 0.71875 -3.929688 0.921875 -3.9375 1.171875 -3.9375 C 1.429688 -3.945312 1.710938 -3.953125 2.015625 -3.953125 C 2.503906 -3.953125 2.914062 -3.867188 3.25 -3.703125 C 3.582031 -3.535156 3.828125 -3.300781 3.984375 -3 C 4.148438 -2.707031 4.234375 -2.359375 4.234375 -1.953125 Z M 4.234375 -1.953125 "/></g></g></g><g fill="#ffffff" fill-opacity="1"><g transform="translate(33.487888, 6.104993)"><g><path d="M 1.78125 -1.390625 L 1.78125 -1.109375 L 3.453125 -1.109375 L 3.453125 0 L 0.328125 0 L 0.328125 -3.90625 L 3.34375 -3.90625 L 3.34375 -2.78125 L 1.78125 -2.78125 L 1.78125 -2.515625 L 3.234375 -2.515625 L 3.234375 -1.390625 Z M 1.78125 -1.390625 "/></g></g></g><g fill="#ffffff" fill-opacity="1"><g transform="translate(37.112682, 6.104993)"><g/></g></g><g fill="#ffffff" fill-opacity="1"><g transform="translate(38.228008, 6.104993)"><g><path d="M 1.53125 -1.0625 C 1.601562 -1.0625 1.65625 -1.078125 1.6875 -1.109375 C 1.726562 -1.148438 1.75 -1.191406 1.75 -1.234375 C 1.75 -1.273438 1.710938 -1.3125 1.640625 -1.34375 C 1.578125 -1.382812 1.488281 -1.425781 1.375 -1.46875 C 1.257812 -1.507812 1.132812 -1.5625 1 -1.625 C 0.875 -1.6875 0.753906 -1.765625 0.640625 -1.859375 C 0.523438 -1.953125 0.429688 -2.066406 0.359375 -2.203125 C 0.285156 -2.347656 0.25 -2.523438 0.25 -2.734375 C 0.25 -2.953125 0.3125 -3.15625 0.4375 -3.34375 C 0.570312 -3.53125 0.757812 -3.679688 1 -3.796875 C 1.238281 -3.921875 1.519531 -3.984375 1.84375 -3.984375 C 2.09375 -3.984375 2.3125 -3.953125 2.5 -3.890625 C 2.6875 -3.828125 2.84375 -3.753906 2.96875 -3.671875 C 3.09375 -3.597656 3.1875 -3.53125 3.25 -3.46875 C 3.3125 -3.40625 3.34375 -3.375 3.34375 -3.375 L 2.8125 -2.53125 C 2.8125 -2.53125 2.773438 -2.554688 2.703125 -2.609375 C 2.640625 -2.660156 2.550781 -2.710938 2.4375 -2.765625 C 2.332031 -2.816406 2.21875 -2.84375 2.09375 -2.84375 C 2.019531 -2.84375 1.960938 -2.820312 1.921875 -2.78125 C 1.890625 -2.75 1.875 -2.710938 1.875 -2.671875 C 1.875 -2.628906 1.910156 -2.585938 1.984375 -2.546875 C 2.054688 -2.515625 2.148438 -2.476562 2.265625 -2.4375 C 2.378906 -2.394531 2.5 -2.34375 2.625 -2.28125 C 2.75 -2.21875 2.867188 -2.140625 2.984375 -2.046875 C 3.097656 -1.953125 3.191406 -1.832031 3.265625 -1.6875 C 3.335938 -1.550781 3.375 -1.378906 3.375 -1.171875 C 3.375 -0.960938 3.304688 -0.757812 3.171875 -0.5625 C 3.046875 -0.375 2.863281 -0.21875 2.625 -0.09375 C 2.394531 0.0195312 2.113281 0.078125 1.78125 0.078125 C 1.476562 0.078125 1.21875 0.046875 1 -0.015625 C 0.78125 -0.078125 0.597656 -0.15625 0.453125 -0.25 C 0.316406 -0.34375 0.21875 -0.421875 0.15625 -0.484375 C 0.09375 -0.546875 0.0625 -0.578125 0.0625 -0.578125 L 0.578125 -1.421875 C 0.578125 -1.421875 0.597656 -1.398438 0.640625 -1.359375 C 0.691406 -1.328125 0.757812 -1.285156 0.84375 -1.234375 C 0.925781 -1.191406 1.023438 -1.148438 1.140625 -1.109375 C 1.265625 -1.078125 1.394531 -1.0625 1.53125 -1.0625 Z M 1.53125 -1.0625 "/></g></g></g><g fill="#ffffff" fill-opacity="1"><g transform="translate(41.713386, 6.104993)"><g><path d="M 1.78125 -3.90625 L 1.78125 0 L 0.328125 0 L 0.328125 -3.90625 Z M 1.78125 -3.90625 "/></g></g></g><g fill="#ffffff" fill-opacity="1"><g transform="translate(43.832497, 6.104993)"><g><path d="M 0.109375 -3.90625 L 3.6875 -3.90625 L 3.6875 -2.625 L 2.625 -2.625 L 2.625 0 L 1.171875 0 L 1.171875 -2.625 L 0.109375 -2.625 Z M 0.109375 -3.90625 "/></g></g></g><g fill="#ffffff" fill-opacity="1"><g transform="translate(47.624595, 6.104993)"><g><path d="M 1.78125 -1.390625 L 1.78125 -1.109375 L 3.453125 -1.109375 L 3.453125 0 L 0.328125 0 L 0.328125 -3.90625 L 3.34375 -3.90625 L 3.34375 -2.78125 L 1.78125 -2.78125 L 1.78125 -2.515625 L 3.234375 -2.515625 L 3.234375 -1.390625 Z M 1.78125 -1.390625 "/></g></g></g><g fill="#ffffff" fill-opacity="1"><g transform="translate(51.249389, 6.104993)"><g><path d="M 1.53125 -1.0625 C 1.601562 -1.0625 1.65625 -1.078125 1.6875 -1.109375 C 1.726562 -1.148438 1.75 -1.191406 1.75 -1.234375 C 1.75 -1.273438 1.710938 -1.3125 1.640625 -1.34375 C 1.578125 -1.382812 1.488281 -1.425781 1.375 -1.46875 C 1.257812 -1.507812 1.132812 -1.5625 1 -1.625 C 0.875 -1.6875 0.753906 -1.765625 0.640625 -1.859375 C 0.523438 -1.953125 0.429688 -2.066406 0.359375 -2.203125 C 0.285156 -2.347656 0.25 -2.523438 0.25 -2.734375 C 0.25 -2.953125 0.3125 -3.15625 0.4375 -3.34375 C 0.570312 -3.53125 0.757812 -3.679688 1 -3.796875 C 1.238281 -3.921875 1.519531 -3.984375 1.84375 -3.984375 C 2.09375 -3.984375 2.3125 -3.953125 2.5 -3.890625 C 2.6875 -3.828125 2.84375 -3.753906 2.96875 -3.671875 C 3.09375 -3.597656 3.1875 -3.53125 3.25 -3.46875 C 3.3125 -3.40625 3.34375 -3.375 3.34375 -3.375 L 2.8125 -2.53125 C 2.8125 -2.53125 2.773438 -2.554688 2.703125 -2.609375 C 2.640625 -2.660156 2.550781 -2.710938 2.4375 -2.765625 C 2.332031 -2.816406 2.21875 -2.84375 2.09375 -2.84375 C 2.019531 -2.84375 1.960938 -2.820312 1.921875 -2.78125 C 1.890625 -2.75 1.875 -2.710938 1.875 -2.671875 C 1.875 -2.628906 1.910156 -2.585938 1.984375 -2.546875 C 2.054688 -2.515625 2.148438 -2.476562 2.265625 -2.4375 C 2.378906 -2.394531 2.5 -2.34375 2.625 -2.28125 C 2.75 -2.21875 2.867188 -2.140625 2.984375 -2.046875 C 3.097656 -1.953125 3.191406 -1.832031 3.265625 -1.6875 C 3.335938 -1.550781 3.375 -1.378906 3.375 -1.171875 C 3.375 -0.960938 3.304688 -0.757812 3.171875 -0.5625 C 3.046875 -0.375 2.863281 -0.21875 2.625 -0.09375 C 2.394531 0.0195312 2.113281 0.078125 1.78125 0.078125 C 1.476562 0.078125 1.21875 0.046875 1 -0.015625 C 0.78125 -0.078125 0.597656 -0.15625 0.453125 -0.25 C 0.316406 -0.34375 0.21875 -0.421875 0.15625 -0.484375 C 0.09375 -0.546875 0.0625 -0.578125 0.0625 -0.578125 L 0.578125 -1.421875 C 0.578125 -1.421875 0.597656 -1.398438 0.640625 -1.359375 C 0.691406 -1.328125 0.757812 -1.285156 0.84375 -1.234375 C 0.925781 -1.191406 1.023438 -1.148438 1.140625 -1.109375 C 1.265625 -1.078125 1.394531 -1.0625 1.53125 -1.0625 Z M 1.53125 -1.0625 "/></g></g></g><g fill="#1e90ff" fill-opacity="1"><g transform="translate(54.739327, 6.104993)"><g/></g></g><g fill="#1e90ff" fill-opacity="1"><g transform="translate(55.854652, 6.104993)"><g><path d="M 1.78125 -1.390625 L 1.78125 -1.109375 L 3.453125 -1.109375 L 3.453125 0 L 0.328125 0 L 0.328125 -3.90625 L 3.34375 -3.90625 L 3.34375 -2.78125 L 1.78125 -2.78125 L 1.78125 -2.515625 L 3.234375 -2.515625 L 3.234375 -1.390625 Z M 1.78125 -1.390625 "/></g></g></g><g fill="#1e90ff" fill-opacity="1"><g transform="translate(59.479446, 6.104993)"><g/></g></g><g fill="#1e90ff" fill-opacity="1"><g transform="translate(60.594772, 6.104993)"><g><path d="M 1.78125 -3.90625 L 1.78125 -1.28125 L 3.296875 -1.28125 L 3.296875 0 L 0.328125 0 L 0.328125 -3.90625 Z M 1.78125 -3.90625 "/></g></g></g><g fill="#1e90ff" fill-opacity="1"><g transform="translate(63.996505, 6.104993)"><g><path d="M 3.09375 -3.90625 C 3.09375 -3.90625 3.109375 -3.847656 3.140625 -3.734375 C 3.179688 -3.617188 3.226562 -3.46875 3.28125 -3.28125 C 3.332031 -3.09375 3.390625 -2.882812 3.453125 -2.65625 C 3.523438 -2.425781 3.597656 -2.1875 3.671875 -1.9375 C 3.742188 -1.695312 3.8125 -1.457031 3.875 -1.21875 C 3.945312 -0.988281 4.007812 -0.78125 4.0625 -0.59375 C 4.113281 -0.414062 4.15625 -0.269531 4.1875 -0.15625 C 4.21875 -0.0507812 4.234375 0 4.234375 0 L 2.625 0 L 2.515625 -0.5625 L 1.78125 -0.5625 L 1.671875 0 L 0.0625 0 L 1.203125 -3.90625 Z M 1.953125 -1.453125 L 2.34375 -1.453125 L 2.140625 -2.453125 Z M 1.953125 -1.453125 "/></g></g></g><g fill="#1e90ff" fill-opacity="1"><g transform="translate(68.290496, 6.104993)"><g><path d="M 2.734375 0 L 1.78125 -1.734375 L 1.78125 0 L 0.328125 0 L 0.328125 -3.90625 L 1.953125 -3.90625 L 2.90625 -2.171875 L 2.90625 -3.90625 L 4.34375 -3.90625 L 4.34375 0 Z M 2.734375 0 "/></g></g></g><g fill="#1e90ff" fill-opacity="1"><g transform="translate(72.974852, 6.104993)"><g><path d="M 1.78125 -1.171875 L 2.015625 -1.171875 C 2.222656 -1.171875 2.382812 -1.234375 2.5 -1.359375 C 2.613281 -1.492188 2.671875 -1.691406 2.671875 -1.953125 C 2.671875 -2.210938 2.613281 -2.40625 2.5 -2.53125 C 2.382812 -2.664062 2.222656 -2.734375 2.015625 -2.734375 L 1.78125 -2.734375 Z M 4.234375 -1.953125 C 4.234375 -1.546875 4.148438 -1.191406 3.984375 -0.890625 C 3.828125 -0.597656 3.582031 -0.363281 3.25 -0.1875 C 2.914062 -0.0195312 2.503906 0.0625 2.015625 0.0625 C 1.710938 0.0625 1.429688 0.0546875 1.171875 0.046875 C 0.921875 0.0351562 0.71875 0.0234375 0.5625 0.015625 C 0.40625 0.00390625 0.328125 0 0.328125 0 L 0.328125 -3.90625 C 0.328125 -3.90625 0.40625 -3.910156 0.5625 -3.921875 C 0.71875 -3.929688 0.921875 -3.9375 1.171875 -3.9375 C 1.429688 -3.945312 1.710938 -3.953125 2.015625 -3.953125 C 2.503906 -3.953125 2.914062 -3.867188 3.25 -3.703125 C 3.582031 -3.535156 3.828125 -3.300781 3.984375 -3 C 4.148438 -2.707031 4.234375 -2.359375 4.234375 -1.953125 Z M 4.234375 -1.953125 "/></g></g></g><g fill="#1e90ff" fill-opacity="1"><g transform="translate(77.43614, 6.104993)"><g><path d="M 1.78125 -3.90625 L 1.78125 0 L 0.328125 0 L 0.328125 -3.90625 Z M 1.78125 -3.90625 "/></g></g></g><g fill="#1e90ff" fill-opacity="1"><g transform="translate(79.55525, 6.104993)"><g><path d="M 2.734375 0 L 1.78125 -1.734375 L 1.78125 0 L 0.328125 0 L 0.328125 -3.90625 L 1.953125 -3.90625 L 2.90625 -2.171875 L 2.90625 -3.90625 L 4.34375 -3.90625 L 4.34375 0 Z M 2.734375 0 "/></g></g></g><g fill="#1e90ff" fill-opacity="1"><g transform="translate(84.239606, 6.104993)"><g><path d="M 2.453125 -1.28125 C 2.484375 -1.28125 2.507812 -1.28125 2.53125 -1.28125 C 2.550781 -1.28125 2.5625 -1.28125 2.5625 -1.28125 L 2.5625 -1.953125 L 3.90625 -1.953125 L 3.90625 -0.578125 C 3.90625 -0.578125 3.875 -0.546875 3.8125 -0.484375 C 3.75 -0.421875 3.648438 -0.34375 3.515625 -0.25 C 3.378906 -0.15625 3.207031 -0.078125 3 -0.015625 C 2.800781 0.046875 2.5625 0.078125 2.28125 0.078125 C 1.988281 0.078125 1.71875 0.0234375 1.46875 -0.078125 C 1.21875 -0.179688 1 -0.320312 0.8125 -0.5 C 0.625 -0.6875 0.476562 -0.898438 0.375 -1.140625 C 0.269531 -1.390625 0.21875 -1.660156 0.21875 -1.953125 C 0.21875 -2.234375 0.269531 -2.5 0.375 -2.75 C 0.476562 -3 0.625 -3.210938 0.8125 -3.390625 C 1 -3.578125 1.21875 -3.722656 1.46875 -3.828125 C 1.71875 -3.929688 1.988281 -3.984375 2.28125 -3.984375 C 2.550781 -3.984375 2.785156 -3.953125 2.984375 -3.890625 C 3.179688 -3.828125 3.34375 -3.753906 3.46875 -3.671875 C 3.59375 -3.597656 3.6875 -3.53125 3.75 -3.46875 C 3.8125 -3.40625 3.84375 -3.375 3.84375 -3.375 L 3.171875 -2.3125 C 3.171875 -2.3125 3.140625 -2.335938 3.078125 -2.390625 C 3.015625 -2.441406 2.925781 -2.492188 2.8125 -2.546875 C 2.707031 -2.597656 2.585938 -2.625 2.453125 -2.625 C 2.265625 -2.625 2.101562 -2.5625 1.96875 -2.4375 C 1.84375 -2.3125 1.78125 -2.148438 1.78125 -1.953125 C 1.78125 -1.753906 1.84375 -1.59375 1.96875 -1.46875 C 2.101562 -1.34375 2.265625 -1.28125 2.453125 -1.28125 Z M 2.453125 -1.28125 "/></g></g></g><g fill="#1e90ff" fill-opacity="1"><g transform="translate(88.3663, 6.104993)"><g/></g></g><g fill="#1e90ff" fill-opacity="1"><g transform="translate(89.481625, 6.104993)"><g><path d="M 2.015625 -3.953125 C 2.421875 -3.953125 2.753906 -3.894531 3.015625 -3.78125 C 3.273438 -3.664062 3.46875 -3.503906 3.59375 -3.296875 C 3.726562 -3.097656 3.796875 -2.863281 3.796875 -2.59375 C 3.796875 -2.320312 3.734375 -2.082031 3.609375 -1.875 C 3.492188 -1.675781 3.320312 -1.519531 3.09375 -1.40625 C 2.875 -1.289062 2.601562 -1.234375 2.28125 -1.234375 C 2.207031 -1.234375 2.128906 -1.234375 2.046875 -1.234375 C 1.972656 -1.242188 1.910156 -1.25 1.859375 -1.25 C 1.804688 -1.25 1.78125 -1.25 1.78125 -1.25 L 1.78125 0 L 0.328125 0 L 0.328125 -3.90625 C 0.328125 -3.90625 0.40625 -3.910156 0.5625 -3.921875 C 0.71875 -3.929688 0.921875 -3.9375 1.171875 -3.9375 C 1.429688 -3.945312 1.710938 -3.953125 2.015625 -3.953125 Z M 1.78125 -2.28125 L 2.015625 -2.28125 C 2.109375 -2.28125 2.1875 -2.3125 2.25 -2.375 C 2.3125 -2.4375 2.34375 -2.507812 2.34375 -2.59375 C 2.34375 -2.675781 2.3125 -2.75 2.25 -2.8125 C 2.1875 -2.875 2.109375 -2.90625 2.015625 -2.90625 L 1.78125 -2.90625 Z M 1.78125 -2.28125 "/></g></g></g><g fill="#1e90ff" fill-opacity="1"><g transform="translate(93.441021, 6.104993)"><g><path d="M 3.09375 -3.90625 C 3.09375 -3.90625 3.109375 -3.847656 3.140625 -3.734375 C 3.179688 -3.617188 3.226562 -3.46875 3.28125 -3.28125 C 3.332031 -3.09375 3.390625 -2.882812 3.453125 -2.65625 C 3.523438 -2.425781 3.597656 -2.1875 3.671875 -1.9375 C 3.742188 -1.695312 3.8125 -1.457031 3.875 -1.21875 C 3.945312 -0.988281 4.007812 -0.78125 4.0625 -0.59375 C 4.113281 -0.414062 4.15625 -0.269531 4.1875 -0.15625 C 4.21875 -0.0507812 4.234375 0 4.234375 0 L 2.625 0 L 2.515625 -0.5625 L 1.78125 -0.5625 L 1.671875 0 L 0.0625 0 L 1.203125 -3.90625 Z M 1.953125 -1.453125 L 2.34375 -1.453125 L 2.140625 -2.453125 Z M 1.953125 -1.453125 "/></g></g></g><g fill="#1e90ff" fill-opacity="1"><g transform="translate(97.735012, 6.104993)"><g><path d="M 2.453125 -1.28125 C 2.484375 -1.28125 2.507812 -1.28125 2.53125 -1.28125 C 2.550781 -1.28125 2.5625 -1.28125 2.5625 -1.28125 L 2.5625 -1.953125 L 3.90625 -1.953125 L 3.90625 -0.578125 C 3.90625 -0.578125 3.875 -0.546875 3.8125 -0.484375 C 3.75 -0.421875 3.648438 -0.34375 3.515625 -0.25 C 3.378906 -0.15625 3.207031 -0.078125 3 -0.015625 C 2.800781 0.046875 2.5625 0.078125 2.28125 0.078125 C 1.988281 0.078125 1.71875 0.0234375 1.46875 -0.078125 C 1.21875 -0.179688 1 -0.320312 0.8125 -0.5 C 0.625 -0.6875 0.476562 -0.898438 0.375 -1.140625 C 0.269531 -1.390625 0.21875 -1.660156 0.21875 -1.953125 C 0.21875 -2.234375 0.269531 -2.5 0.375 -2.75 C 0.476562 -3 0.625 -3.210938 0.8125 -3.390625 C 1 -3.578125 1.21875 -3.722656 1.46875 -3.828125 C 1.71875 -3.929688 1.988281 -3.984375 2.28125 -3.984375 C 2.550781 -3.984375 2.785156 -3.953125 2.984375 -3.890625 C 3.179688 -3.828125 3.34375 -3.753906 3.46875 -3.671875 C 3.59375 -3.597656 3.6875 -3.53125 3.75 -3.46875 C 3.8125 -3.40625 3.84375 -3.375 3.84375 -3.375 L 3.171875 -2.3125 C 3.171875 -2.3125 3.140625 -2.335938 3.078125 -2.390625 C 3.015625 -2.441406 2.925781 -2.492188 2.8125 -2.546875 C 2.707031 -2.597656 2.585938 -2.625 2.453125 -2.625 C 2.265625 -2.625 2.101562 -2.5625 1.96875 -2.4375 C 1.84375 -2.3125 1.78125 -2.148438 1.78125 -1.953125 C 1.78125 -1.753906 1.84375 -1.59375 1.96875 -1.46875 C 2.101562 -1.34375 2.265625 -1.28125 2.453125 -1.28125 Z M 2.453125 -1.28125 "/></g></g></g><g fill="#1e90ff" fill-opacity="1"><g transform="translate(101.861705, 6.104993)"><g><path d="M 1.78125 -1.390625 L 1.78125 -1.109375 L 3.453125 -1.109375 L 3.453125 0 L 0.328125 0 L 0.328125 -3.90625 L 3.34375 -3.90625 L 3.34375 -2.78125 L 1.78125 -2.78125 L 1.78125 -2.515625 L 3.234375 -2.515625 L 3.234375 -1.390625 Z M 1.78125 -1.390625 "/></g></g></g><g fill="#1e90ff" fill-opacity="1"><g transform="translate(105.486499, 6.104993)"><g><path d="M 1.53125 -1.0625 C 1.601562 -1.0625 1.65625 -1.078125 1.6875 -1.109375 C 1.726562 -1.148438 1.75 -1.191406 1.75 -1.234375 C 1.75 -1.273438 1.710938 -1.3125 1.640625 -1.34375 C 1.578125 -1.382812 1.488281 -1.425781 1.375 -1.46875 C 1.257812 -1.507812 1.132812 -1.5625 1 -1.625 C 0.875 -1.6875 0.753906 -1.765625 0.640625 -1.859375 C 0.523438 -1.953125 0.429688 -2.066406 0.359375 -2.203125 C 0.285156 -2.347656 0.25 -2.523438 0.25 -2.734375 C 0.25 -2.953125 0.3125 -3.15625 0.4375 -3.34375 C 0.570312 -3.53125 0.757812 -3.679688 1 -3.796875 C 1.238281 -3.921875 1.519531 -3.984375 1.84375 -3.984375 C 2.09375 -3.984375 2.3125 -3.953125 2.5 -3.890625 C 2.6875 -3.828125 2.84375 -3.753906 2.96875 -3.671875 C 3.09375 -3.597656 3.1875 -3.53125 3.25 -3.46875 C 3.3125 -3.40625 3.34375 -3.375 3.34375 -3.375 L 2.8125 -2.53125 C 2.8125 -2.53125 2.773438 -2.554688 2.703125 -2.609375 C 2.640625 -2.660156 2.550781 -2.710938 2.4375 -2.765625 C 2.332031 -2.816406 2.21875 -2.84375 2.09375 -2.84375 C 2.019531 -2.84375 1.960938 -2.820312 1.921875 -2.78125 C 1.890625 -2.75 1.875 -2.710938 1.875 -2.671875 C 1.875 -2.628906 1.910156 -2.585938 1.984375 -2.546875 C 2.054688 -2.515625 2.148438 -2.476562 2.265625 -2.4375 C 2.378906 -2.394531 2.5 -2.34375 2.625 -2.28125 C 2.75 -2.21875 2.867188 -2.140625 2.984375 -2.046875 C 3.097656 -1.953125 3.191406 -1.832031 3.265625 -1.6875 C 3.335938 -1.550781 3.375 -1.378906 3.375 -1.171875 C 3.375 -0.960938 3.304688 -0.757812 3.171875 -0.5625 C 3.046875 -0.375 2.863281 -0.21875 2.625 -0.09375 C 2.394531 0.0195312 2.113281 0.078125 1.78125 0.078125 C 1.476562 0.078125 1.21875 0.046875 1 -0.015625 C 0.78125 -0.078125 0.597656 -0.15625 0.453125 -0.25 C 0.316406 -0.34375 0.21875 -0.421875 0.15625 -0.484375 C 0.09375 -0.546875 0.0625 -0.578125 0.0625 -0.578125 L 0.578125 -1.421875 C 0.578125 -1.421875 0.597656 -1.398438 0.640625 -1.359375 C 0.691406 -1.328125 0.757812 -1.285156 0.84375 -1.234375 C 0.925781 -1.191406 1.023438 -1.148438 1.140625 -1.109375 C 1.265625 -1.078125 1.394531 -1.0625 1.53125 -1.0625 Z M 1.53125 -1.0625 "/></g></g></g></g></g></svg>